<?xml version="1.0" encoding="UTF-8" standalone="no"?>
<!DOCTYPE svg PUBLIC "-//W3C//DTD SVG 1.1//EN" "http://www.w3.org/Graphics/SVG/1.1/DTD/svg11.dtd">
<svg xmlns="http://www.w3.org/2000/svg" version="1.1" viewBox="0.00 0.00 512.00 512.00">
<path fill="#2196f3" d="
  M 512.00 113.83
  L 512.00 116.31
  C 511.23 128.76 506.46 136.87 497.36 145.97
  Q 346.75 296.68 195.90 447.15
  C 188.04 454.99 176.17 457.13 166.45 452.39
  Q 162.21 450.32 154.40 442.52
  Q 82.53 370.68 10.69 298.80
  Q 1.01 289.11 0.00 273.43
  L 0.00 269.70
  Q 1.27 254.80 11.48 244.25
  Q 26.46 228.79 32.32 223.58
  C 43.89 213.30 62.80 211.28 76.54 219.04
  Q 81.45 221.82 90.63 231.01
  Q 133.84 274.28 177.14 317.48
  Q 177.51 317.86 177.89 317.48
  Q 297.52 197.86 417.11 78.28
  Q 428.81 66.58 431.65 64.56
  C 443.86 55.87 461.67 54.90 474.66 63.07
  Q 478.64 65.57 486.24 73.13
  C 498.44 85.25 510.91 94.60 512.00 113.83
  Z"
/>
</svg>
