<?xml version="1.0" encoding="UTF-8" standalone="no"?>
<!DOCTYPE svg PUBLIC "-//W3C//DTD SVG 1.1//EN" "http://www.w3.org/Graphics/SVG/1.1/DTD/svg11.dtd">
<svg xmlns="http://www.w3.org/2000/svg" version="1.1" viewBox="0.00 0.00 558.00 364.00">
<g stroke-width="2.00" fill="none" stroke-linecap="butt">
<path stroke="#8b6529" vector-effect="non-scaling-stroke" d="
  M 199.29 12.30
  Q 208.00 18.14 209.46 28.01
  A 0.41 0.41 0.0 0 1 208.72 28.30
  C 207.55 26.57 207.25 23.82 206.45 22.36
  Q 199.43 9.48 184.99 10.06"
/>
<path stroke="#9a7436" vector-effect="non-scaling-stroke" d="
  M 200.28 69.90
  Q 199.34 68.54 197.46 68.29
  Q 196.85 68.20 197.08 67.63
  C 197.54 66.47 198.12 65.65 198.38 64.47
  Q 200.51 54.72 206.11 46.55
  C 209.01 42.31 210.04 39.35 210.22 34.60
  A 0.76 0.75 -10.5 0 0 209.17 33.88
  C 208.97 33.96 208.76 34.48 208.76 34.76
  Q 208.81 40.40 205.77 44.82
  C 202.62 49.39 200.30 53.62 198.43 58.88
  C 197.45 61.65 197.63 64.99 194.94 68.03
  A 1.07 1.07 0.0 0 1 194.14 68.39
  L 177.58 68.44"
/>
<path stroke="#9a9a9a" vector-effect="non-scaling-stroke" d="
  M 162.42 192.63
  L 161.83 186.98
  Q 161.76 186.38 161.16 186.38
  Q 115.85 186.12 70.53 186.40
  Q 70.50 186.40 70.49 186.43
  Q 70.44 186.56 70.41 186.67
  Q 70.31 186.94 70.60 186.95
  Q 71.08 186.97 71.30 187.27"
/>
<path stroke="#8b3694" vector-effect="non-scaling-stroke" d="
  M 111.27 176.92
  L 67.61 177.65
  Q 67.00 177.66 66.82 178.24
  Q 65.85 181.42 66.64 184.69
  A 0.73 0.73 0.0 0 0 67.29 185.24
  Q 70.97 185.55 73.50 185.53
  Q 100.76 185.35 128.01 185.70
  C 138.88 185.83 149.83 184.79 160.72 185.49
  A 0.97 0.96 -88.1 0 0 161.75 184.52
  L 161.75 179.76
  A 1.99 1.99 0.0 0 0 159.80 177.77
  L 120.47 176.99"
/>
<path stroke="#9a864d" vector-effect="non-scaling-stroke" d="
  M 154.12 153.09
  Q 151.95 155.33 148.34 155.94
  A 0.42 0.42 0.0 0 0 148.15 156.69
  L 152.43 159.97
  A 0.94 0.93 36.2 0 1 152.63 161.23
  L 142.61 176.15
  A 0.43 0.43 0.0 0 0 142.97 176.82
  L 150.75 176.72
  A 1.14 1.14 0.0 0 0 151.68 176.21
  L 158.91 165.39
  Q 159.28 164.84 159.82 165.22
  L 163.33 167.67
  A 0.60 0.60 0.0 0 0 164.28 167.25
  L 166.52 148.70
  Q 166.60 148.04 166.02 148.36
  Q 163.62 149.70 161.51 149.77"
/>
<path stroke="#9a9a9a" vector-effect="non-scaling-stroke" d="
  M 161.19 206.03
  Q 162.04 206.93 161.71 209.00"
/>
<path stroke="#bebcbe" vector-effect="non-scaling-stroke" d="
  M 161.71 209.00
  C 161.12 211.37 157.97 211.07 157.88 212.19"
/>
<path stroke="#8b8b8d" vector-effect="non-scaling-stroke" d="
  M 155.33 214.45
  L 120.40 214.51"
/>
<path stroke="#9a9a9a" vector-effect="non-scaling-stroke" d="
  M 116.21 214.79
  Q 115.61 214.90 115.31 214.24"
/>
<path stroke="#8b8b8d" vector-effect="non-scaling-stroke" d="
  M 115.31 214.24
  C 114.12 210.34 110.57 211.77 109.56 215.24"
/>
<path stroke="#bebcbe" vector-effect="non-scaling-stroke" d="
  M 104.30 224.96
  Q 103.98 225.03 103.85 225.31
  Q 103.71 225.60 103.40 225.59
  L 83.26 225.29
  A 2.26 2.26 0.0 0 1 82.21 225.01
  L 80.86 224.28"
/>
<path stroke="#9a9a9a" vector-effect="non-scaling-stroke" d="
  M 79.36 219.61
  Q 78.95 219.02 79.74 218.95"
/>
<path stroke="#8b8b8d" vector-effect="non-scaling-stroke" d="
  M 79.74 218.95
  C 86.31 221.99 93.21 220.66 98.02 215.37
  C 109.93 202.23 92.58 182.98 77.42 193.45
  Q 77.04 193.72 76.79 192.30"
/>
<path stroke="#9a9a9a" vector-effect="non-scaling-stroke" d="
  M 76.66 192.60
  Q 76.51 191.12 75.92 190.46
  Q 75.60 190.10 75.12 190.18
  Q 74.33 190.32 74.39 190.96"
/>
<path stroke="#595759" vector-effect="non-scaling-stroke" d="
  M 68.05 226.24
  Q 67.51 224.27 65.60 223.70"
/>
<path stroke="#262628" vector-effect="non-scaling-stroke" d="
  M 79.74 218.95
  Q 78.15 217.31 76.68 217.08"
/>
<path stroke="#262628" vector-effect="non-scaling-stroke" d="
  M 115.31 214.24
  Q 115.20 214.58 114.75 214.50"
/>
<path stroke="#8b8b8d" vector-effect="non-scaling-stroke" d="
  M 114.75 214.50
  Q 114.23 213.17 113.02 212.66
  Q 112.53 212.45 112.12 212.77
  Q 110.98 213.66 110.77 215.20"
/>
<path stroke="#262628" vector-effect="non-scaling-stroke" d="
  M 110.77 215.20
  Q 110.15 215.09 110.20 216.11"
/>
<path stroke="#595759" vector-effect="non-scaling-stroke" d="
  M 162.70 208.22
  L 162.33 211.71
  Q 162.20 213.01 162.04 211.71
  L 161.71 209.00"
/>
<path stroke="#9a9a9a" vector-effect="non-scaling-stroke" d="
  M 114.75 214.50
  C 113.99 216.56 112.22 216.74 110.77 215.20"
/>
<path stroke="#595759" vector-effect="non-scaling-stroke" d="
  M 176.08 70.39
  Q 174.05 69.30 172.45 70.47
  A 1.24 1.23 -57.1 0 0 172.92 72.68
  Q 175.03 73.12 174.78 71.94"
/>
<path stroke="#8b3694" vector-effect="non-scaling-stroke" d="
  M 314.09 44.50
  A 1.32 1.32 0.0 0 1 316.05 43.76
  L 326.35 50.17
  A 0.30 0.30 0.0 0 0 326.81 49.95
  L 328.05 40.12
  A 0.40 0.40 0.0 0 0 327.68 39.67
  L 303.51 37.68
  A 0.52 0.51 -13.2 0 0 303.02 38.46
  L 315.10 57.79
  A 1.45 1.45 0.0 0 0 317.12 58.24
  L 324.32 53.58
  A 0.62 0.61 44.1 0 0 324.30 52.54
  C 322.69 51.56 313.50 46.38 314.09 44.50"
/>
<path stroke="#8b8b8d" vector-effect="non-scaling-stroke" d="
  M 264.90 61.77
  Q 254.90 58.59 247.78 60.06
  C 244.58 60.72 237.28 66.53 241.24 70.39
  Q 241.52 70.66 241.53 70.27
  C 241.96 54.56 264.17 61.96 271.99 67.00"
/>
<path stroke="#262628" vector-effect="non-scaling-stroke" d="
  M 282.55 214.26
  Q 282.83 213.98 282.74 213.45
  Q 282.67 212.96 282.17 212.99
  L 281.67 213.03
  A 0.42 0.42 0.0 0 0 281.32 213.62
  L 281.62 214.31"
/>
<path stroke="#262628" vector-effect="non-scaling-stroke" d="
  M 220.43 364.00
  Q 221.82 363.49 222.98 362.24"
/>
<path stroke="#4a484c" vector-effect="non-scaling-stroke" d="
  M 222.98 362.24
  C 226.37 359.81 230.20 358.15 230.18 353.23
  A 1.55 1.55 0.0 0 1 231.77 351.67
  L 243.79 352.01
  A 0.76 0.76 0.0 0 0 244.26 350.63
  L 242.82 349.58"
/>
<path stroke="#4a484c" vector-effect="non-scaling-stroke" d="
  M 231.54 349.40
  L 229.32 350.97
  Q 228.89 351.27 228.96 351.78
  C 229.57 356.93 225.17 359.24 221.91 361.94"
/>
<path stroke="#262628" vector-effect="non-scaling-stroke" d="
  M 221.91 361.94
  Q 221.08 362.48 220.40 362.09"
/>
<path stroke="#4a484c" vector-effect="non-scaling-stroke" d="
  M 224.71 275.92
  L 226.75 248.00"
/>
<path stroke="#8b8b8d" vector-effect="non-scaling-stroke" d="
  M 226.75 248.00
  C 227.22 230.30 228.39 213.29 231.34 195.37
  Q 233.93 179.67 235.91 163.88
  C 235.95 163.60 236.01 163.42 235.61 163.46
  Q 235.34 163.49 235.27 163.75
  C 231.89 176.73 230.69 187.05 228.36 203.36
  Q 225.32 224.67 226.10 246.22"
/>
<path stroke="#4a484c" vector-effect="non-scaling-stroke" d="
  M 226.10 246.22
  Q 225.25 246.86 224.75 246.74"
/>
<path stroke="#8b8b8d" vector-effect="non-scaling-stroke" d="
  M 243.11 76.81
  L 241.44 76.17
  A 0.94 0.94 0.0 0 0 240.16 77.09
  Q 240.34 81.10 238.47 84.62
  Q 238.22 85.09 238.59 85.47
  L 239.22 86.10
  Q 239.57 86.44 239.69 86.91
  L 241.35 93.01
  A 0.47 0.47 0.0 0 0 242.26 93.03
  L 243.94 87.70
  Q 244.09 87.23 244.56 87.06
  Q 249.60 85.20 248.12 79.89
  C 247.75 78.54 246.91 77.88 245.50 77.99
  A 0.63 0.63 0.0 0 1 244.84 77.52
  Q 244.16 74.78 242.15 72.83
  Q 241.47 72.17 241.24 73.09
  L 240.97 74.17
  Q 240.81 74.80 241.45 74.84
  Q 243.00 74.94 243.63 76.24
  A 0.42 0.41 87.5 0 1 243.11 76.81"
/>
<path stroke="#262628" vector-effect="non-scaling-stroke" d="
  M 179.28 106.75
  Q 178.77 106.20 178.04 106.24
  Q 177.51 106.27 177.72 106.75
  Q 178.05 107.54 179.02 107.72"
/>
<path stroke="#33418d" vector-effect="non-scaling-stroke" d="
  M 276.24 135.53
  C 277.34 140.61 277.19 146.75 277.59 150.73
  Q 278.39 158.54 279.31 166.34
  C 279.86 170.96 290.26 169.05 293.04 168.17
  Q 293.59 168.00 293.62 167.44
  Q 293.79 164.94 293.50 159.75
  C 292.55 142.70 291.93 124.45 282.81 110.93
  A 1.80 1.80 0.0 0 0 280.26 110.48
  C 270.01 117.92 250.94 119.34 243.09 106.72
  A 0.81 0.80 71.7 0 0 242.34 106.34
  C 234.27 106.85 230.02 107.26 225.52 113.53
  Q 220.01 121.20 218.44 123.73
  C 216.85 126.29 212.65 122.94 210.98 122.00
  A 1.57 1.57 0.0 0 0 209.10 122.27
  Q 204.68 126.81 204.44 133.20
  A 1.21 1.21 0.0 0 0 204.77 134.08
  C 210.02 139.73 223.16 148.80 230.14 140.54
  A 1.76 1.71 69.1 0 0 230.54 139.61
  C 230.63 138.85 230.98 134.43 231.92 134.57
  Q 232.45 134.64 232.37 135.17
  Q 231.96 137.98 232.77 142.99
  Q 234.22 152.00 234.94 160.95
  A 0.59 0.59 0.0 0 0 235.53 161.50
  L 271.98 161.50
  Q 272.42 161.50 272.53 161.07
  C 275.01 151.41 276.50 144.81 275.18 135.91
  Q 275.14 135.60 275.41 135.44
  L 275.66 135.29
  A 0.39 0.39 0.0 0 1 276.24 135.53"
/>
<path stroke="#262628" vector-effect="non-scaling-stroke" d="
  M 280.67 203.75
  Q 280.51 203.73 280.36 203.80
  Q 280.02 203.96 280.09 204.33
  Q 280.53 206.87 282.54 205.56"
/>
<path stroke="#262628" vector-effect="non-scaling-stroke" d="
  M 282.60 205.25
  Q 282.53 204.76 281.72 204.57"
/>
<path stroke="#8b8b8d" vector-effect="non-scaling-stroke" d="
  M 271.28 359.68
  Q 276.29 356.87 275.69 350.68
  A 1.41 1.41 0.0 0 1 276.84 349.16
  L 289.34 346.87
  A 0.55 0.54 41.5 0 0 289.27 345.79
  C 286.16 345.59 283.00 347.12 280.15 347.50
  Q 277.78 347.82 275.38 348.46
  Q 274.87 348.59 274.85 349.12
  C 274.66 354.21 274.16 356.60 270.23 359.61"
/>
<path stroke="#8b8b8d" vector-effect="non-scaling-stroke" d="
  M 240.94 78.81
  Q 240.88 79.92 241.90 79.69
  A 0.79 0.79 0.0 0 0 242.40 78.51
  L 242.02 77.88
  A 0.60 0.59 -35.8 0 0 241.12 77.74
  Q 240.43 78.34 240.94 78.81"
/>
<path stroke="#8b8b8d" vector-effect="non-scaling-stroke" d="
  M 245.83 79.28
  A 0.34 0.34 0.0 0 0 245.26 79.57
  Q 245.40 80.76 246.32 81.41
  A 0.69 0.69 0.0 0 1 246.50 82.34
  L 245.30 84.17
  Q 245.20 84.34 245.26 84.53
  Q 245.30 84.65 245.35 84.78
  A 0.35 0.35 0.0 0 0 245.92 84.91
  Q 248.84 81.98 245.83 79.28"
/>
<path stroke="#bebcbe" vector-effect="non-scaling-stroke" d="
  M 226.75 248.00
  Q 225.62 248.36 226.10 246.22"
/>
<path stroke="#7b2787" vector-effect="non-scaling-stroke" d="
  M 75.46 181.50
  A 2.54 2.54 0.0 0 0 72.92 178.96
  A 2.54 2.54 0.0 0 0 70.38 181.50
  A 2.54 2.54 0.0 0 0 72.92 184.04
  A 2.54 2.54 0.0 0 0 75.46 181.50"
/>
<path stroke="#7b2787" vector-effect="non-scaling-stroke" d="
  M 98.09 181.50
  A 2.50 2.50 0.0 0 0 95.59 179.00
  A 2.50 2.50 0.0 0 0 93.09 181.50
  A 2.50 2.50 0.0 0 0 95.59 184.00
  A 2.50 2.50 0.0 0 0 98.09 181.50"
/>
<path stroke="#7b2787" vector-effect="non-scaling-stroke" d="
  M 86.64 181.54
  A 2.46 2.46 0.0 0 0 84.18 179.08
  A 2.46 2.46 0.0 0 0 81.72 181.54
  A 2.46 2.46 0.0 0 0 84.18 184.00
  A 2.46 2.46 0.0 0 0 86.64 181.54"
/>
<path stroke="#8b8b8d" vector-effect="non-scaling-stroke" d="
  M 74.76 181.55
  A 1.85 1.85 0.0 0 0 72.91 179.70
  A 1.85 1.85 0.0 0 0 71.06 181.55
  A 1.85 1.85 0.0 0 0 72.91 183.40
  A 1.85 1.85 0.0 0 0 74.76 181.55"
/>
<path stroke="#7b2787" vector-effect="non-scaling-stroke" d="
  M 97.45 181.49
  A 1.79 1.79 0.0 0 0 95.66 179.70
  A 1.79 1.79 0.0 0 0 93.87 181.49
  A 1.79 1.79 0.0 0 0 95.66 183.28
  A 1.79 1.79 0.0 0 0 97.45 181.49"
/>
<path stroke="#7b2787" vector-effect="non-scaling-stroke" d="
  M 85.99 181.58
  A 1.77 1.77 0.0 0 0 84.22 179.81
  A 1.77 1.77 0.0 0 0 82.45 181.58
  A 1.77 1.77 0.0 0 0 84.22 183.35
  A 1.77 1.77 0.0 0 0 85.99 181.58"
/>
<path stroke="#8b8b8d" vector-effect="non-scaling-stroke" d="
  M 115.38 196.48
  A 2.67 2.67 0.0 0 0 112.71 193.81
  A 2.67 2.67 0.0 0 0 110.04 196.48
  A 2.67 2.67 0.0 0 0 112.71 199.15
  A 2.67 2.67 0.0 0 0 115.38 196.48"
/>
<path stroke="#8b8b8d" vector-effect="non-scaling-stroke" d="
  M 155.1400 196.2200
  A 0.48 0.48 0.0 0 0 154.6591 195.7409
  L 121.2592 195.7991
  A 0.48 0.48 0.0 0 0 120.7800 196.2800
  L 120.7800 196.3000
  A 0.48 0.48 0.0 0 0 121.2609 196.7791
  L 154.6608 196.7209
  A 0.48 0.48 0.0 0 0 155.1400 196.2400
  L 155.1400 196.2200"
/>
<path stroke="#8b8b8d" vector-effect="non-scaling-stroke" d="
  M 115.35 205.57
  A 2.62 2.62 0.0 0 0 112.73 202.95
  A 2.62 2.62 0.0 0 0 110.11 205.57
  A 2.62 2.62 0.0 0 0 112.73 208.19
  A 2.62 2.62 0.0 0 0 115.35 205.57"
/>
<path stroke="#9a9a9a" vector-effect="non-scaling-stroke" d="
  M 155.1800 205.4900
  A 0.46 0.46 0.0 0 0 154.7208 205.0292
  L 121.2809 204.9708
  A 0.46 0.46 0.0 0 0 120.8201 205.4300
  L 120.8200 205.4700
  A 0.46 0.46 0.0 0 0 121.2792 205.9308
  L 154.7191 205.9892
  A 0.46 0.46 0.0 0 0 155.1799 205.5300
  L 155.1800 205.4900"
/>
<path stroke="#8b7740" vector-effect="non-scaling-stroke" d="
  M 96.97 195.91
  Q 88.46 187.87 78.33 194.07
  A 1.03 1.02 -37.0 0 0 78.11 195.63
  L 86.33 204.61
  Q 86.70 205.02 87.14 204.69
  L 96.88 197.41
  Q 97.82 196.71 96.97 195.91"
/>
<path stroke="#8b8b8d" vector-effect="non-scaling-stroke" d="
  M 75.31 213.75
  C 79.23 218.84 84.31 220.63 90.57 219.24
  A 0.75 0.75 0.0 0 0 91.11 218.23
  Q 89.26 213.44 87.30 208.46
  C 85.43 203.72 80.52 199.52 77.05 195.79
  Q 76.69 195.40 76.36 195.82
  Q 68.92 205.42 75.31 213.75"
/>
<path stroke="#8b7740" vector-effect="non-scaling-stroke" d="
  M 92.77 218.28
  C 100.59 215.06 102.61 205.58 98.95 198.55
  A 1.01 1.01 0.0 0 0 97.46 198.20
  L 87.58 205.44
  Q 87.15 205.75 87.34 206.24
  L 91.88 217.90
  A 0.68 0.68 0.0 0 0 92.77 218.28"
/>
<path stroke="#8b7740" vector-effect="non-scaling-stroke" d="
  M 114.52 196.54
  A 1.78 1.78 0.0 0 0 112.74 194.76
  A 1.78 1.78 0.0 0 0 110.96 196.54
  A 1.78 1.78 0.0 0 0 112.74 198.32
  A 1.78 1.78 0.0 0 0 114.52 196.54"
/>
<path stroke="#8b7740" vector-effect="non-scaling-stroke" d="
  M 114.56 205.62
  A 1.80 1.80 0.0 0 0 112.76 203.82
  A 1.80 1.80 0.0 0 0 110.96 205.62
  A 1.80 1.80 0.0 0 0 112.76 207.42
  A 1.80 1.80 0.0 0 0 114.56 205.62"
/>
<path stroke="#3f489a" vector-effect="non-scaling-stroke" d="
  M 484.93 364.00
  L 485.61 363.61
  Q 486.01 363.38 486.02 362.91
  Q 486.47 328.42 485.71 293.92
  C 485.58 288.08 483.58 284.64 477.43 284.69
  Q 456.56 284.87 435.71 285.09
  Q 435.21 285.10 435.21 285.60
  Q 435.29 305.40 435.24 325.19
  C 435.22 333.12 430.81 333.18 424.25 332.98
  C 419.04 332.82 417.77 329.73 417.77 324.89
  Q 417.79 307.96 417.66 290.99"
/>
<path stroke="#42509a" vector-effect="non-scaling-stroke" d="
  M 417.66 290.99
  L 417.66 285.59
  A 0.58 0.58 0.0 0 0 417.08 285.01
  Q 395.60 284.98 374.12 285.01
  C 369.02 285.02 367.07 288.42 367.04 293.26
  Q 366.85 322.02 367.04 350.74"
/>
<path stroke="#3f489a" vector-effect="non-scaling-stroke" d="
  M 367.04 350.74
  L 367.38 364.00"
/>
<path stroke="#42509a" vector-effect="non-scaling-stroke" d="
  M 428.91 259.89
  C 436.64 260.05 450.40 256.91 450.84 268.80
  Q 451.10 275.75 450.98 282.71
  Q 450.97 283.25 451.51 283.25
  L 455.46 283.25
  A 0.52 0.52 0.0 0 0 455.98 282.73
  Q 456.03 271.91 456.03 261.08
  C 456.03 255.88 452.56 253.94 447.63 253.90
  Q 427.30 253.76 406.96 254.07
  C 402.11 254.14 397.93 255.58 398.05 261.01
  Q 398.30 271.86 398.26 282.73
  Q 398.26 283.36 398.89 283.32
  L 403.03 283.08
  A 0.50 0.50 0.0 0 0 403.50 282.59
  Q 403.67 275.62 403.86 268.61
  C 404.02 262.83 407.08 259.73 412.98 259.99
  C 418.02 260.22 424.00 259.79 428.91 259.89"
/>
<path stroke="#42509a" vector-effect="non-scaling-stroke" d="
  M 433.12 284.95
  L 419.74 284.93
  A 0.79 0.79 0.0 0 0 418.95 285.72
  L 418.88 326.25
  A 5.50 5.29 -89.9 0 0 424.16 331.76
  L 428.54 331.76
  A 5.50 5.29 -89.9 0 0 433.84 326.27
  L 433.91 285.74
  A 0.79 0.79 0.0 0 0 433.12 284.95"
/>
<path stroke="#4c62ff" vector-effect="non-scaling-stroke" d="
  M 367.04 350.74
  L 367.51 352.32
  Q 367.58 352.56 367.82 352.48
  Q 367.95 352.43 368.06 352.38
  Q 368.26 352.28 368.26 352.51
  Q 368.25 352.65 368.24 352.80
  Q 368.22 353.11 368.52 353.00
  Q 368.99 352.83 369.01 352.43
  Q 369.03 352.01 369.45 352.09
  C 373.64 352.88 375.25 348.36 377.86 346.02
  Q 378.22 345.70 378.70 345.62
  C 381.27 345.22 382.40 343.05 383.83 342.05
  Q 394.37 334.74 404.08 326.33
  C 408.13 322.82 408.42 319.72 414.76 318.72
  Q 415.28 318.63 415.41 319.14
  L 415.70 320.24
  Q 415.79 320.59 415.90 320.24
  L 417.34 315.96
  Q 417.54 315.36 417.55 314.74
  L 417.66 290.99"
/>
<path stroke="#42509a" vector-effect="non-scaling-stroke" d="
  M 430.6614 315.3569
  A 2.62 2.62 0.0 0 0 427.9961 312.7830
  L 424.7966 312.8388
  A 2.62 2.62 0.0 0 0 422.2227 315.5042
  L 422.3386 322.1431
  A 2.62 2.62 0.0 0 0 425.0039 324.7170
  L 428.2034 324.6612
  A 2.62 2.62 0.0 0 0 430.7773 321.9958
  L 430.6614 315.3569"
/>
<path stroke="#9a9a9a" vector-effect="non-scaling-stroke" d="
  M 429.2113 315.5452
  A 1.34 1.34 0.0 0 0 427.8596 314.2169
  L 424.8197 314.2434
  A 1.34 1.34 0.0 0 0 423.4915 315.5951
  L 423.5487 322.1548
  A 1.34 1.34 0.0 0 0 424.9004 323.4831
  L 427.9403 323.4566
  A 1.34 1.34 0.0 0 0 429.2685 322.1049
  L 429.2113 315.5452"
/>
<path stroke="#477c2b" vector-effect="non-scaling-stroke" d="
  M 197.20 364.00
  C 199.46 350.80 186.37 344.67 175.16 344.57
  A 0.93 0.92 75.8 0 1 174.37 344.09
  C 170.38 336.61 168.29 331.54 159.23 329.25
  C 156.16 328.47 152.50 328.76 149.10 328.75
  Q 148.61 328.74 148.27 328.39
  Q 136.98 316.66 121.31 320.58
  C 116.38 321.81 112.85 324.98 107.60 325.37
  C 92.98 326.45 82.50 333.98 78.67 348.39
  Q 78.39 349.44 77.35 349.14
  C 70.15 347.08 58.52 346.99 53.80 353.81
  Q 51.58 357.02 49.77 364.00"
/>
<path stroke="#595759" vector-effect="non-scaling-stroke" d="
  M 222.98 362.24
  Q 222.13 362.40 221.91 361.94"
/>
</g>
<path fill="#16171b" d="
  M 199.29 12.30
  Q 208.00 18.14 209.46 28.01
  A 0.41 0.41 0.0 0 1 208.72 28.30
  C 207.55 26.57 207.25 23.82 206.45 22.36
  Q 199.43 9.48 184.99 10.06
  Q 172.52 9.94 165.81 19.60
  A 1.11 1.10 -56.2 0 1 164.31 19.90
  Q 163.65 19.48 164.22 18.72
  Q 172.94 6.94 188.24 8.30
  Q 194.97 8.89 199.29 12.30
  Z"
/>
<path fill="#ffb237" d="
  M 199.29 12.30
  C 212.87 16.54 219.63 35.74 211.03 47.23
  Q 204.61 55.80 202.92 64.97
  Q 202.29 68.42 200.28 69.90
  Q 199.34 68.54 197.46 68.29
  Q 196.85 68.20 197.08 67.63
  C 197.54 66.47 198.12 65.65 198.38 64.47
  Q 200.51 54.72 206.11 46.55
  C 209.01 42.31 210.04 39.35 210.22 34.60
  A 0.76 0.75 -10.5 0 0 209.17 33.88
  C 208.97 33.96 208.76 34.48 208.76 34.76
  Q 208.81 40.40 205.77 44.82
  C 202.62 49.39 200.30 53.62 198.43 58.88
  C 197.45 61.65 197.63 64.99 194.94 68.03
  A 1.07 1.07 0.0 0 1 194.14 68.39
  L 177.58 68.44
  C 177.39 60.12 173.59 53.10 168.88 46.38
  Q 167.24 44.04 166.79 41.76
  Q 162.25 18.81 184.99 10.06
  Q 199.43 9.48 206.45 22.36
  C 207.25 23.82 207.55 26.57 208.72 28.30
  A 0.41 0.41 0.0 0 0 209.46 28.01
  Q 208.00 18.14 199.29 12.30
  Z"
/>
<path fill="#353535" d="
  M 200.28 69.90
  L 199.51 81.18
  Q 199.48 81.66 199.00 81.68
  L 194.53 81.84
  A 0.57 0.57 0.0 0 0 193.98 82.42
  Q 194.01 84.30 192.65 85.49
  A 0.53 0.53 0.0 0 1 191.77 85.10
  Q 191.75 83.91 192.38 82.80
  A 0.74 0.73 14.6 0 0 191.73 81.70
  L 178.72 81.90
  Q 177.48 81.92 178.06 83.02
  Q 179.62 85.96 182.22 87.11
  C 182.95 87.44 183.26 87.77 182.90 88.54
  A 0.64 0.64 0.0 0 1 182.13 88.87
  Q 177.35 87.31 176.15 82.35
  Q 176.04 81.90 175.57 81.88
  L 171.91 81.69
  A 1.03 1.02 -88.5 0 1 170.94 80.66
  L 171.03 69.24
  Q 171.03 68.79 171.39 68.51
  L 172.35 67.75
  Q 172.76 67.42 172.54 66.95
  C 171.37 64.50 171.40 61.68 170.72 59.68
  C 170.52 59.10 168.26 53.93 169.03 53.41
  Q 169.45 53.12 169.73 53.55
  Q 172.67 58.15 173.45 63.54
  C 173.86 66.34 174.99 67.72 177.58 68.44
  L 194.14 68.39
  A 1.07 1.07 0.0 0 0 194.94 68.03
  C 197.63 64.99 197.45 61.65 198.43 58.88
  C 200.30 53.62 202.62 49.39 205.77 44.82
  Q 208.81 40.40 208.76 34.76
  C 208.76 34.48 208.97 33.96 209.17 33.88
  A 0.76 0.75 -10.5 0 1 210.22 34.60
  C 210.04 39.35 209.01 42.31 206.11 46.55
  Q 200.51 54.72 198.38 64.47
  C 198.12 65.65 197.54 66.47 197.08 67.63
  Q 196.85 68.20 197.46 68.29
  Q 199.34 68.54 200.28 69.90
  Z
  M 174.78 71.94
  L 197.08 72.16
  A 0.74 0.74 0.0 0 0 197.41 70.75
  C 193.78 69.01 180.63 70.31 176.08 70.39
  Q 174.05 69.30 172.45 70.47
  A 1.24 1.23 -57.1 0 0 172.92 72.68
  Q 175.03 73.12 174.78 71.94
  Z
  M 197.7003 74.9115
  A 0.69 0.69 0.0 0 0 197.0116 74.2203
  L 173.7316 74.1797
  A 0.69 0.69 0.0 0 0 173.0404 74.8685
  L 173.0397 75.2885
  A 0.69 0.69 0.0 0 0 173.7284 75.9797
  L 197.0084 76.0203
  A 0.69 0.69 0.0 0 0 197.6996 75.3315
  L 197.7003 74.9115
  Z
  M 197.9501 79.0334
  A 1.02 1.02 0.0 0 0 196.9337 78.0098
  L 174.1138 77.9302
  A 1.02 1.02 0.0 0 0 173.0903 78.9466
  L 173.0899 79.0466
  A 1.02 1.02 0.0 0 0 174.1063 80.0702
  L 196.9262 80.1498
  A 1.02 1.02 0.0 0 0 197.9497 79.1334
  L 197.9501 79.0334
  Z"
/>
<path fill="#353535" d="
  M 329.62 53.51
  A 0.71 0.69 -13.1 0 1 329.29 54.02
  L 316.49 62.19
  A 1.86 1.86 0.0 0 1 313.92 61.60
  L 298.84 37.39
  A 1.15 0.58 90.0 0 1 298.75 37.21
  Q 297.63 34.25 300.01 34.41
  Q 315.26 35.41 329.93 36.70
  A 1.66 1.65 6.0 0 1 331.43 38.55
  L 329.62 53.51
  Z
  M 314.09 44.50
  A 1.32 1.32 0.0 0 1 316.05 43.76
  L 326.35 50.17
  A 0.30 0.30 0.0 0 0 326.81 49.95
  L 328.05 40.12
  A 0.40 0.40 0.0 0 0 327.68 39.67
  L 303.51 37.68
  A 0.52 0.51 -13.2 0 0 303.02 38.46
  L 315.10 57.79
  A 1.45 1.45 0.0 0 0 317.12 58.24
  L 324.32 53.58
  A 0.62 0.61 44.1 0 0 324.30 52.54
  C 322.69 51.56 313.50 46.38 314.09 44.50
  Z"
/>
<path fill="#e036f3" d="
  M 314.09 44.50
  C 313.50 46.38 322.69 51.56 324.30 52.54
  A 0.62 0.61 44.1 0 1 324.32 53.58
  L 317.12 58.24
  A 1.45 1.45 0.0 0 1 315.10 57.79
  L 303.02 38.46
  A 0.52 0.51 -13.2 0 1 303.51 37.68
  L 327.68 39.67
  A 0.40 0.40 0.0 0 1 328.05 40.12
  L 326.81 49.95
  A 0.30 0.30 0.0 0 1 326.35 50.17
  L 316.05 43.76
  A 1.32 1.32 0.0 0 0 314.09 44.50
  Z"
/>
<path fill="#16171b" d="
  M 264.90 61.77
  Q 254.90 58.59 247.78 60.06
  C 244.58 60.72 237.28 66.53 241.24 70.39
  Q 241.52 70.66 241.53 70.27
  C 241.96 54.56 264.17 61.96 271.99 67.00
  Q 277.12 71.68 278.27 79.69
  C 279.40 87.58 276.68 92.29 281.57 99.82
  C 283.47 102.74 283.45 105.03 282.19 108.02
  Q 282.00 108.49 282.34 108.86
  Q 288.74 115.89 290.97 126.76
  Q 294.64 144.69 295.04 164.75
  Q 295.09 167.27 294.24 169.03
  Q 294.04 169.45 294.05 169.91
  Q 294.60 185.43 293.61 200.93
  Q 293.57 201.49 293.85 201.98
  Q 296.63 206.96 296.20 212.74
  Q 296.16 213.26 295.78 213.63
  C 292.99 216.33 284.97 219.25 282.55 214.26
  Q 282.83 213.98 282.74 213.45
  Q 282.67 212.96 282.17 212.99
  L 281.67 213.03
  A 0.42 0.42 0.0 0 0 281.32 213.62
  L 281.62 214.31
  C 281.52 219.40 282.06 224.77 281.98 229.58
  Q 281.56 254.64 285.57 279.45
  A 0.70 0.69 75.0 0 1 285.14 280.21
  L 282.26 281.31
  A 0.85 0.84 -15.6 0 0 281.73 282.24
  Q 285.56 304.43 287.54 326.19
  C 288.10 332.46 288.80 343.83 290.01 344.90
  Q 290.42 345.25 290.58 345.77
  L 295.13 360.86
  Q 295.26 361.28 295.13 361.69
  Q 294.60 363.39 293.20 364.00
  L 268.71 364.00
  L 267.55 363.70
  Q 267.06 363.58 267.23 363.10
  C 269.26 357.43 274.72 356.15 273.35 349.37
  A 1.33 1.32 55.4 0 1 273.52 348.42
  Q 274.50 346.86 274.24 345.75
  Q 267.20 315.92 260.02 286.10
  Q 259.90 285.60 259.40 285.64
  L 251.32 286.28
  A 0.65 0.65 0.0 0 0 250.73 286.88
  Q 248.75 317.71 244.54 348.30
  Q 244.47 348.81 244.76 349.23
  C 246.20 351.25 245.72 354.04 246.05 355.76
  Q 246.85 359.93 246.79 364.00
  L 220.43 364.00
  Q 221.82 363.49 222.98 362.24
  C 226.37 359.81 230.20 358.15 230.18 353.23
  A 1.55 1.55 0.0 0 1 231.77 351.67
  L 243.79 352.01
  A 0.76 0.76 0.0 0 0 244.26 350.63
  L 242.82 349.58
  C 246.37 330.20 247.72 310.38 249.25 290.75
  Q 249.42 288.70 249.17 286.98
  Q 249.08 286.38 248.48 286.40
  Q 239.68 286.70 231.01 285.31
  A 0.82 0.82 0.0 0 0 230.06 286.18
  C 231.50 306.58 230.80 327.64 230.96 348.14
  C 230.96 348.64 231.25 349.01 231.54 349.40
  L 229.32 350.97
  Q 228.89 351.27 228.96 351.78
  C 229.57 356.93 225.17 359.24 221.91 361.94
  Q 221.08 362.48 220.40 362.09
  C 223.88 357.91 228.45 357.30 228.20 350.75
  A 0.91 0.91 0.0 0 1 228.62 349.95
  C 230.43 348.77 229.77 347.83 229.74 346.10
  Q 229.27 316.01 228.99 286.30
  A 1.44 1.44 0.0 0 0 227.80 284.89
  L 224.91 284.36
  Q 224.31 284.25 224.21 283.65
  Q 223.44 279.17 224.71 275.92
  L 226.75 248.00
  C 227.22 230.30 228.39 213.29 231.34 195.37
  Q 233.93 179.67 235.91 163.88
  C 235.95 163.60 236.01 163.42 235.61 163.46
  Q 235.34 163.49 235.27 163.75
  C 231.89 176.73 230.69 187.05 228.36 203.36
  Q 225.32 224.67 226.10 246.22
  Q 225.25 246.86 224.75 246.74
  C 224.84 233.24 224.80 219.22 226.76 205.84
  C 228.78 192.13 230.18 179.16 233.35 165.95
  C 234.77 160.02 232.32 150.17 231.43 143.70
  Q 231.07 141.10 229.22 142.97
  C 225.52 146.72 220.02 144.98 215.41 142.97
  C 212.05 141.51 205.10 137.49 203.69 133.94
  C 202.46 130.81 192.17 122.74 188.90 121.43
  C 184.58 119.70 182.42 116.46 178.82 114.12
  C 176.85 112.84 172.63 110.29 173.86 107.80
  C 174.46 106.60 176.08 106.05 177.24 105.24
  Q 177.65 104.95 178.14 105.06
  Q 179.61 105.37 180.80 104.27
  A 0.66 0.65 45.3 0 1 181.70 104.28
  Q 183.05 105.61 184.63 104.55
  A 0.74 0.74 0.0 0 1 185.49 104.58
  Q 187.66 106.20 188.89 108.60
  A 0.92 0.92 0.0 0 0 190.62 108.08
  L 190.26 104.85
  A 1.95 1.95 0.0 0 1 192.25 102.69
  C 195.38 102.78 197.33 111.55 198.06 114.14
  Q 198.15 114.46 198.43 114.65
  L 208.04 120.92
  A 0.78 0.77 44.5 0 0 208.89 120.92
  L 209.66 120.41
  Q 210.13 120.09 210.62 120.37
  L 216.02 123.47
  A 1.14 1.12 -59.3 0 0 217.55 123.07
  Q 221.03 117.38 225.23 111.76
  C 229.47 106.08 235.38 105.78 241.81 105.09
  A 0.50 0.50 0.0 0 0 242.22 104.41
  Q 240.56 100.24 241.35 95.77
  A 1.36 1.33 34.8 0 0 241.17 94.83
  C 239.62 92.25 239.32 87.40 237.63 86.22
  Q 237.22 85.93 237.22 85.42
  Q 237.25 83.38 238.44 81.71
  A 1.68 1.66 63.6 0 0 238.75 80.77
  Q 238.82 76.34 240.26 72.16
  Q 240.43 71.66 240.15 71.21
  C 236.98 66.03 241.88 60.37 246.50 59.05
  Q 256.12 56.30 264.90 61.77
  Z
  M 243.11 76.81
  L 241.44 76.17
  A 0.94 0.94 0.0 0 0 240.16 77.09
  Q 240.34 81.10 238.47 84.62
  Q 238.22 85.09 238.59 85.47
  L 239.22 86.10
  Q 239.57 86.44 239.69 86.91
  L 241.35 93.01
  A 0.47 0.47 0.0 0 0 242.26 93.03
  L 243.94 87.70
  Q 244.09 87.23 244.56 87.06
  Q 249.60 85.20 248.12 79.89
  C 247.75 78.54 246.91 77.88 245.50 77.99
  A 0.63 0.63 0.0 0 1 244.84 77.52
  Q 244.16 74.78 242.15 72.83
  Q 241.47 72.17 241.24 73.09
  L 240.97 74.17
  Q 240.81 74.80 241.45 74.84
  Q 243.00 74.94 243.63 76.24
  A 0.42 0.41 87.5 0 1 243.11 76.81
  Z
  M 190.62 110.39
  C 185.30 112.59 180.92 110.97 176.51 107.79
  A 0.95 0.95 0.0 0 0 175.05 108.27
  Q 174.62 109.61 176.14 110.59
  Q 180.80 113.60 184.76 117.45
  C 187.35 119.97 190.65 120.11 193.33 122.44
  Q 198.06 126.55 202.77 130.61
  A 0.60 0.60 0.0 0 0 203.75 130.25
  Q 204.36 126.19 207.03 123.07
  A 1.03 1.03 0.0 0 0 206.81 121.54
  L 197.02 115.15
  Q 196.59 114.87 196.50 114.36
  Q 195.55 109.04 193.10 104.20
  A 0.72 0.72 0.0 0 0 191.74 104.53
  L 191.76 108.68
  A 1.85 1.84 78.9 0 1 190.62 110.39
  Z
  M 184.6564 109.8415
  A 2.52 0.62 48.3 0 0 183.4429 107.5476
  A 2.52 0.62 48.3 0 0 181.3036 106.0785
  A 2.52 0.62 48.3 0 0 182.5171 108.3724
  A 2.52 0.62 48.3 0 0 184.6564 109.8415
  Z
  M 185.7507 106.1334
  A 0.62 0.62 0.0 0 0 184.8888 105.9721
  L 184.7898 106.0399
  A 0.62 0.62 0.0 0 0 184.6285 106.9017
  L 186.8093 110.0866
  A 0.62 0.62 0.0 0 0 187.6712 110.2479
  L 187.7702 110.1801
  A 0.62 0.62 0.0 0 0 187.9315 109.3183
  L 185.7507 106.1334
  Z
  M 179.02 107.72
  Q 179.61 108.58 180.43 108.92
  Q 181.13 109.22 180.85 108.51
  Q 180.42 107.46 179.28 106.75
  Q 178.77 106.20 178.04 106.24
  Q 177.51 106.27 177.72 106.75
  Q 178.05 107.54 179.02 107.72
  Z
  M 276.24 135.53
  C 277.34 140.61 277.19 146.75 277.59 150.73
  Q 278.39 158.54 279.31 166.34
  C 279.86 170.96 290.26 169.05 293.04 168.17
  Q 293.59 168.00 293.62 167.44
  Q 293.79 164.94 293.50 159.75
  C 292.55 142.70 291.93 124.45 282.81 110.93
  A 1.80 1.80 0.0 0 0 280.26 110.48
  C 270.01 117.92 250.94 119.34 243.09 106.72
  A 0.81 0.80 71.7 0 0 242.34 106.34
  C 234.27 106.85 230.02 107.26 225.52 113.53
  Q 220.01 121.20 218.44 123.73
  C 216.85 126.29 212.65 122.94 210.98 122.00
  A 1.57 1.57 0.0 0 0 209.10 122.27
  Q 204.68 126.81 204.44 133.20
  A 1.21 1.21 0.0 0 0 204.77 134.08
  C 210.02 139.73 223.16 148.80 230.14 140.54
  A 1.76 1.71 69.1 0 0 230.54 139.61
  C 230.63 138.85 230.98 134.43 231.92 134.57
  Q 232.45 134.64 232.37 135.17
  Q 231.96 137.98 232.77 142.99
  Q 234.22 152.00 234.94 160.95
  A 0.59 0.59 0.0 0 0 235.53 161.50
  L 271.98 161.50
  Q 272.42 161.50 272.53 161.07
  C 275.01 151.41 276.50 144.81 275.18 135.91
  Q 275.14 135.60 275.41 135.44
  L 275.66 135.29
  A 0.39 0.39 0.0 0 1 276.24 135.53
  Z
  M 280.67 203.75
  Q 280.51 203.73 280.36 203.80
  Q 280.02 203.96 280.09 204.33
  Q 280.53 206.87 282.54 205.56
  L 281.42 209.65
  A 1.21 0.87 73.9 0 0 283.07 210.95
  Q 283.45 210.09 283.15 209.62
  A 0.21 0.20 -0.3 0 1 283.43 209.34
  Q 283.60 209.43 283.72 209.57
  Q 284.06 209.95 283.92 210.44
  Q 283.16 213.11 284.44 215.22
  A 0.79 0.79 0.0 0 0 285.48 215.52
  Q 286.93 214.77 288.17 215.72
  Q 288.59 216.04 288.96 215.66
  L 289.33 215.29
  Q 289.77 214.86 290.34 215.07
  Q 291.50 215.49 292.23 214.34
  Q 292.51 213.91 293.02 213.88
  Q 294.19 213.81 294.77 212.71
  Q 295.00 212.27 294.99 211.76
  Q 294.95 208.91 294.34 206.15
  C 293.88 204.09 291.96 202.40 292.19 200.00
  Q 293.64 185.24 292.62 170.67
  A 0.77 0.76 -8.6 0 0 291.69 169.99
  Q 286.83 171.06 281.90 170.11
  A 1.01 1.01 0.0 0 0 280.71 171.24
  L 284.87 201.32
  Q 284.94 201.84 284.54 202.19
  Q 283.12 203.45 282.60 205.25
  Q 282.53 204.76 281.72 204.57
  Q 282.12 203.11 283.29 202.07
  A 0.98 0.97 -24.6 0 0 283.61 201.23
  Q 281.78 185.94 279.22 170.75
  C 278.89 168.83 278.02 167.24 277.85 165.37
  Q 277.31 158.99 276.87 152.86
  A 0.50 0.49 50.9 0 0 275.90 152.76
  C 274.82 156.60 272.60 162.68 273.74 166.58
  C 277.32 178.84 279.08 191.13 280.67 203.75
  Z
  M 276.42 346.90
  L 287.44 345.02
  A 0.60 0.59 83.1 0 0 287.93 344.39
  Q 285.83 313.34 280.37 282.71
  A 0.55 0.55 0.0 0 0 279.73 282.26
  L 261.39 285.41
  A 0.20 0.19 77.3 0 0 261.24 285.65
  L 275.73 346.45
  A 0.60 0.60 0.0 0 0 276.42 346.90
  Z
  M 270.23 359.61
  L 268.83 361.74
  A 0.34 0.33 -57.5 0 0 268.93 362.21
  C 269.70 362.70 270.99 360.25 271.28 359.68
  Q 276.29 356.87 275.69 350.68
  A 1.41 1.41 0.0 0 1 276.84 349.16
  L 289.34 346.87
  A 0.55 0.54 41.5 0 0 289.27 345.79
  C 286.16 345.59 283.00 347.12 280.15 347.50
  Q 277.78 347.82 275.38 348.46
  Q 274.87 348.59 274.85 349.12
  C 274.66 354.21 274.16 356.60 270.23 359.61
  Z"
/>
<rect fill="#16171b" x="-6.44" y="-0.91" transform="translate(342.17,61.92) rotate(26.8)" width="12.88" height="1.82" rx="0.88"/>
<path fill="#ffffff" d="
  M 264.90 61.77
  Q 268.59 62.94 271.99 67.00
  C 264.17 61.96 241.96 54.56 241.53 70.27
  Q 241.52 70.66 241.24 70.39
  C 237.28 66.53 244.58 60.72 247.78 60.06
  Q 254.90 58.59 264.90 61.77
  Z"
/>
<rect fill="#16171b" x="-6.20" y="-0.88" transform="translate(361.41,73.58) rotate(35.4)" width="12.40" height="1.76" rx="0.85"/>
<path fill="#7d787c" d="
  M 176.08 70.39
  L 175.17 70.75
  Q 174.70 70.94 174.62 71.44
  Q 174.57 71.81 174.78 71.94
  Q 175.03 73.12 172.92 72.68
  A 1.24 1.23 -57.1 0 1 172.45 70.47
  Q 174.05 69.30 176.08 70.39
  Z"
/>
<path fill="#ffffff" d="
  M 243.63 76.24
  Q 243.00 74.94 241.45 74.84
  Q 240.81 74.80 240.97 74.17
  L 241.24 73.09
  Q 241.47 72.17 242.15 72.83
  Q 244.16 74.78 244.84 77.52
  A 0.63 0.63 0.0 0 0 245.50 77.99
  C 246.91 77.88 247.75 78.54 248.12 79.89
  Q 249.60 85.20 244.56 87.06
  Q 244.09 87.23 243.94 87.70
  L 242.26 93.03
  A 0.47 0.47 0.0 0 1 241.35 93.01
  L 239.69 86.91
  Q 239.57 86.44 239.22 86.10
  L 238.59 85.47
  Q 238.22 85.09 238.47 84.62
  Q 240.34 81.10 240.16 77.09
  A 0.94 0.94 0.0 0 1 241.44 76.17
  L 243.11 76.81
  A 0.42 0.41 87.5 0 0 243.63 76.24
  Z
  M 240.94 78.81
  Q 240.88 79.92 241.90 79.69
  A 0.79 0.79 0.0 0 0 242.40 78.51
  L 242.02 77.88
  A 0.60 0.59 -35.8 0 0 241.12 77.74
  Q 240.43 78.34 240.94 78.81
  Z
  M 245.83 79.28
  A 0.34 0.34 0.0 0 0 245.26 79.57
  Q 245.40 80.76 246.32 81.41
  A 0.69 0.69 0.0 0 1 246.50 82.34
  L 245.30 84.17
  Q 245.20 84.34 245.26 84.53
  Q 245.30 84.65 245.35 84.78
  A 0.35 0.35 0.0 0 0 245.92 84.91
  Q 248.84 81.98 245.83 79.28
  Z"
/>
<path fill="#16171b" d="
  M 240.94 78.81
  Q 240.43 78.34 241.12 77.74
  A 0.60 0.59 -35.8 0 1 242.02 77.88
  L 242.40 78.51
  A 0.79 0.79 0.0 0 1 241.90 79.69
  Q 240.88 79.92 240.94 78.81
  Z"
/>
<path fill="#16171b" d="
  M 245.83 79.28
  Q 248.84 81.98 245.92 84.91
  A 0.35 0.35 0.0 0 1 245.35 84.78
  Q 245.30 84.65 245.26 84.53
  Q 245.20 84.34 245.30 84.17
  L 246.50 82.34
  A 0.69 0.69 0.0 0 0 246.32 81.41
  Q 245.40 80.76 245.26 79.57
  A 0.34 0.34 0.0 0 1 245.83 79.28
  Z"
/>
<rect fill="#16171b" x="-6.32" y="-0.89" transform="translate(378.68,87.74) rotate(43.3)" width="12.64" height="1.78" rx="0.83"/>
<path fill="#353535" d="
  M 391.87 103.77
  L 389.28 100.48
  A 0.75 0.75 0.0 0 1 389.72 99.28
  C 390.93 99.03 393.75 103.54 394.64 104.53
  Q 394.98 104.92 395.50 104.96
  Q 399.48 105.29 402.92 107.30
  A 0.79 0.79 0.0 0 1 402.24 108.72
  L 397.61 107.00
  A 0.48 0.48 0.0 0 0 396.99 107.60
  L 397.46 109.02
  A 0.54 0.53 -11.4 0 1 396.99 109.72
  L 396.52 109.76
  A 0.83 0.83 0.0 0 1 395.68 109.23
  Q 394.61 106.42 391.69 106.07
  Q 390.92 105.97 391.35 105.33
  L 391.90 104.51
  A 0.64 0.64 0.0 0 0 391.87 103.77
  Z"
/>
<path fill="#353535" d="
  M 179.28 106.75
  Q 178.90 107.18 179.02 107.72
  Q 178.05 107.54 177.72 106.75
  Q 177.51 106.27 178.04 106.24
  Q 178.77 106.20 179.28 106.75
  Z"
/>
<path fill="#4f6aff" d="
  M 275.66 135.29
  L 275.41 135.44
  Q 275.14 135.60 275.18 135.91
  C 276.50 144.81 275.01 151.41 272.53 161.07
  Q 272.42 161.50 271.98 161.50
  L 235.53 161.50
  A 0.59 0.59 0.0 0 1 234.94 160.95
  Q 234.22 152.00 232.77 142.99
  Q 231.96 137.98 232.37 135.17
  Q 232.45 134.64 231.92 134.57
  C 230.98 134.43 230.63 138.85 230.54 139.61
  A 1.76 1.71 69.1 0 1 230.14 140.54
  C 223.16 148.80 210.02 139.73 204.77 134.08
  A 1.21 1.21 0.0 0 1 204.44 133.20
  Q 204.68 126.81 209.10 122.27
  A 1.57 1.57 0.0 0 1 210.98 122.00
  C 212.65 122.94 216.85 126.29 218.44 123.73
  Q 220.01 121.20 225.52 113.53
  C 230.02 107.26 234.27 106.85 242.34 106.34
  A 0.81 0.80 71.7 0 1 243.09 106.72
  C 250.94 119.34 270.01 117.92 280.26 110.48
  A 1.80 1.80 0.0 0 1 282.81 110.93
  C 291.93 124.45 292.55 142.70 293.50 159.75
  Q 293.79 164.94 293.62 167.44
  Q 293.59 168.00 293.04 168.17
  C 290.26 169.05 279.86 170.96 279.31 166.34
  Q 278.39 158.54 277.59 150.73
  C 277.19 146.75 277.34 140.61 276.24 135.53
  A 0.39 0.39 0.0 0 0 275.66 135.29
  Z"
/>
<rect fill="#16171b" x="-6.27" y="-0.89" transform="translate(376.17,110.32) rotate(-32.6)" width="12.54" height="1.78" rx="0.75"/>
<rect fill="#16171b" x="-0.93" y="-6.23" transform="translate(413.70,120.33) rotate(-28.1)" width="1.86" height="12.46" rx="0.82"/>
<rect fill="#16171b" x="-0.93" y="-6.02" transform="translate(403.46,124.17) rotate(-14.3)" width="1.86" height="12.04" rx="0.27"/>
<path fill="#16171b" d="
  M 108.17 127.94
  C 109.44 127.62 115.68 124.57 116.26 126.40
  A 0.58 0.58 0.0 0 1 115.90 127.13
  L 109.06 129.50
  A 0.88 0.87 -20.4 0 0 108.53 130.65
  L 110.90 136.71
  A 1.14 1.13 -37.8 0 1 110.76 137.78
  L 110.49 138.15
  A 0.58 0.58 0.0 0 1 109.49 138.02
  L 106.74 131.20
  A 0.84 0.83 69.2 0 0 105.69 130.72
  L 99.03 133.12
  A 0.83 0.83 0.0 0 1 98.45 131.57
  L 105.22 128.88
  Q 105.88 128.61 105.65 127.94
  L 103.39 121.35
  Q 103.26 120.98 103.43 120.62
  L 103.70 120.06
  A 0.62 0.62 0.0 0 1 104.84 120.12
  L 107.49 127.57
  Q 107.67 128.06 108.17 127.94
  Z"
/>
<path fill="#16171b" d="
  M 364.47 122.00
  A 0.59 0.58 30.6 0 1 365.34 121.78
  L 365.60 121.98
  Q 366.10 122.34 365.88 122.93
  Q 363.90 128.01 365.27 133.35
  Q 365.41 133.92 364.83 133.97
  L 364.27 134.01
  Q 363.69 134.06 363.52 133.50
  Q 361.77 127.56 364.47 122.00
  Z"
/>
<ellipse fill="#353535" cx="0.00" cy="0.00" transform="translate(422.58,140.75) rotate(69.2)" rx="6.52" ry="1.00"/>
<path fill="#16171b" d="
  M 399.82 141.09
  C 400.43 140.45 400.58 139.27 401.98 139.87
  A 0.52 0.52 0.0 0 1 402.19 140.65
  Q 398.76 145.37 393.22 147.12
  Q 392.91 147.22 392.60 147.12
  L 391.96 146.91
  A 0.59 0.59 0.0 0 1 391.99 145.78
  Q 396.63 144.44 399.82 141.09
  Z"
/>
<path fill="#16171b" d="
  M 370.95 141.31
  A 0.15 0.15 0.0 0 1 371.15 141.24
  L 381.87 146.23
  A 0.76 0.31 -65.0 0 1 381.83 147.05
  L 381.66 147.40
  A 0.76 0.31 -65.0 0 1 381.06 147.95
  L 370.35 142.96
  A 0.15 0.15 0.0 0 1 370.28 142.76
  L 370.95 141.31
  Z"
/>
<path fill="#353535" d="
  M 162.42 192.63
  L 161.83 186.98
  Q 161.76 186.38 161.16 186.38
  Q 115.85 186.12 70.53 186.40
  Q 70.50 186.40 70.49 186.43
  Q 70.44 186.56 70.41 186.67
  Q 70.31 186.94 70.60 186.95
  Q 71.08 186.97 71.30 187.27
  L 67.29 186.80
  Q 66.84 186.75 66.83 187.20
  L 66.55 202.18
  A 0.59 0.58 -88.1 0 1 65.94 202.76
  Q 65.78 202.75 65.63 202.76
  Q 65.29 202.80 65.29 202.46
  L 65.23 179.78
  A 2.92 2.92 0.0 0 1 68.16 176.85
  L 111.27 176.92
  L 67.61 177.65
  Q 67.00 177.66 66.82 178.24
  Q 65.85 181.42 66.64 184.69
  A 0.73 0.73 0.0 0 0 67.29 185.24
  Q 70.97 185.55 73.50 185.53
  Q 100.76 185.35 128.01 185.70
  C 138.88 185.83 149.83 184.79 160.72 185.49
  A 0.97 0.96 -88.1 0 0 161.75 184.52
  L 161.75 179.76
  A 1.99 1.99 0.0 0 0 159.80 177.77
  L 120.47 176.99
  L 140.53 176.79
  Q 141.11 176.79 141.43 176.31
  L 150.93 162.10
  A 1.61 1.61 0.0 0 0 150.58 159.93
  L 146.58 156.82
  Q 146.00 156.37 146.62 155.97
  Q 150.03 153.79 154.12 153.09
  Q 151.95 155.33 148.34 155.94
  A 0.42 0.42 0.0 0 0 148.15 156.69
  L 152.43 159.97
  A 0.94 0.93 36.2 0 1 152.63 161.23
  L 142.61 176.15
  A 0.43 0.43 0.0 0 0 142.97 176.82
  L 150.75 176.72
  A 1.14 1.14 0.0 0 0 151.68 176.21
  L 158.91 165.39
  Q 159.28 164.84 159.82 165.22
  L 163.33 167.67
  A 0.60 0.60 0.0 0 0 164.28 167.25
  L 166.52 148.70
  Q 166.60 148.04 166.02 148.36
  Q 163.62 149.70 161.51 149.77
  Q 163.87 147.24 166.97 146.83
  Q 167.71 146.73 167.63 147.47
  L 165.41 168.66
  A 0.93 0.93 0.0 0 1 163.97 169.34
  L 160.24 166.90
  A 1.20 1.20 0.0 0 0 158.57 167.26
  L 153.21 175.86
  A 0.51 0.51 0.0 0 0 153.61 176.64
  L 160.48 177.00
  A 2.22 2.21 88.8 0 1 162.57 179.01
  Q 163.24 186.20 162.42 192.63
  Z"
/>
<path fill="#ffd764" d="
  M 154.12 153.09
  L 161.51 149.77
  Q 163.62 149.70 166.02 148.36
  Q 166.60 148.04 166.52 148.70
  L 164.28 167.25
  A 0.60 0.60 0.0 0 1 163.33 167.67
  L 159.82 165.22
  Q 159.28 164.84 158.91 165.39
  L 151.68 176.21
  A 1.14 1.14 0.0 0 1 150.75 176.72
  L 142.97 176.82
  A 0.43 0.43 0.0 0 1 142.61 176.15
  L 152.63 161.23
  A 0.94 0.93 36.2 0 0 152.43 159.97
  L 148.15 156.69
  A 0.42 0.42 0.0 0 1 148.34 155.94
  Q 151.95 155.33 154.12 153.09
  Z"
/>
<ellipse fill="#353535" cx="0.00" cy="0.00" transform="translate(429.12,162.19) rotate(77.6)" rx="6.61" ry="1.01"/>
<path fill="#16171b" d="
  M 359.41 171.92
  L 355.59 177.91
  Q 355.26 178.42 354.73 178.13
  C 353.24 177.32 357.65 171.41 358.00 170.78
  A 0.65 0.64 31.9 0 0 357.79 169.92
  C 356.73 169.23 351.38 166.17 351.51 165.23
  A 0.88 0.88 0.0 0 1 352.85 164.61
  L 358.86 168.37
  Q 359.37 168.69 359.72 168.19
  C 360.54 167.00 363.31 161.69 364.68 161.87
  A 0.71 0.70 -70.0 0 1 365.18 162.95
  L 361.39 168.84
  A 1.15 1.15 0.0 0 0 361.76 170.43
  L 367.57 173.99
  A 0.82 0.81 60.7 0 1 367.15 175.50
  L 366.87 175.50
  Q 366.56 175.50 366.31 175.34
  L 360.51 171.67
  A 0.80 0.80 0.0 0 0 359.41 171.92
  Z"
/>
<path fill="#ffffff" d="
  M 226.75 248.00
  Q 225.62 248.36 226.10 246.22
  Q 225.32 224.67 228.36 203.36
  C 230.69 187.05 231.89 176.73 235.27 163.75
  Q 235.34 163.49 235.61 163.46
  C 236.01 163.42 235.95 163.60 235.91 163.88
  Q 233.93 179.67 231.34 195.37
  C 228.39 213.29 227.22 230.30 226.75 248.00
  Z"
/>
<path fill="#e036f3" d="
  M 111.27 176.92
  L 120.47 176.99
  L 159.80 177.77
  A 1.99 1.99 0.0 0 1 161.75 179.76
  L 161.75 184.52
  A 0.97 0.96 -88.1 0 1 160.72 185.49
  C 149.83 184.79 138.88 185.83 128.01 185.70
  Q 100.76 185.35 73.50 185.53
  Q 70.97 185.55 67.29 185.24
  A 0.73 0.73 0.0 0 1 66.64 184.69
  Q 65.85 181.42 66.82 178.24
  Q 67.00 177.66 67.61 177.65
  L 111.27 176.92
  Z
  M 75.46 181.50
  A 2.54 2.54 0.0 0 0 72.92 178.96
  A 2.54 2.54 0.0 0 0 70.38 181.50
  A 2.54 2.54 0.0 0 0 72.92 184.04
  A 2.54 2.54 0.0 0 0 75.46 181.50
  Z
  M 98.09 181.50
  A 2.50 2.50 0.0 0 0 95.59 179.00
  A 2.50 2.50 0.0 0 0 93.09 181.50
  A 2.50 2.50 0.0 0 0 95.59 184.00
  A 2.50 2.50 0.0 0 0 98.09 181.50
  Z
  M 86.64 181.54
  A 2.46 2.46 0.0 0 0 84.18 179.08
  A 2.46 2.46 0.0 0 0 81.72 181.54
  A 2.46 2.46 0.0 0 0 84.18 184.00
  A 2.46 2.46 0.0 0 0 86.64 181.54
  Z"
/>
<rect fill="#16171b" x="-0.87" y="-6.27" transform="translate(431.58,184.37) rotate(-0.5)" width="1.74" height="12.54" rx="0.83"/>
<path fill="#16171b" d="
  M 75.46 181.50
  A 2.54 2.54 0.0 0 1 72.92 184.04
  A 2.54 2.54 0.0 0 1 70.38 181.50
  A 2.54 2.54 0.0 0 1 72.92 178.96
  A 2.54 2.54 0.0 0 1 75.46 181.50
  Z
  M 74.76 181.55
  A 1.85 1.85 0.0 0 0 72.91 179.70
  A 1.85 1.85 0.0 0 0 71.06 181.55
  A 1.85 1.85 0.0 0 0 72.91 183.40
  A 1.85 1.85 0.0 0 0 74.76 181.55
  Z"
/>
<path fill="#16171b" d="
  M 98.09 181.50
  A 2.50 2.50 0.0 0 1 95.59 184.00
  A 2.50 2.50 0.0 0 1 93.09 181.50
  A 2.50 2.50 0.0 0 1 95.59 179.00
  A 2.50 2.50 0.0 0 1 98.09 181.50
  Z
  M 97.45 181.49
  A 1.79 1.79 0.0 0 0 95.66 179.70
  A 1.79 1.79 0.0 0 0 93.87 181.49
  A 1.79 1.79 0.0 0 0 95.66 183.28
  A 1.79 1.79 0.0 0 0 97.45 181.49
  Z"
/>
<path fill="#16171b" d="
  M 86.64 181.54
  A 2.46 2.46 0.0 0 1 84.18 184.00
  A 2.46 2.46 0.0 0 1 81.72 181.54
  A 2.46 2.46 0.0 0 1 84.18 179.08
  A 2.46 2.46 0.0 0 1 86.64 181.54
  Z
  M 85.99 181.58
  A 1.77 1.77 0.0 0 0 84.22 179.81
  A 1.77 1.77 0.0 0 0 82.45 181.58
  A 1.77 1.77 0.0 0 0 84.22 183.35
  A 1.77 1.77 0.0 0 0 85.99 181.58
  Z"
/>
<circle fill="#ffffff" cx="72.91" cy="181.55" r="1.85"/>
<circle fill="#e036f3" cx="84.22" cy="181.58" r="1.77"/>
<circle fill="#e036f3" cx="95.66" cy="181.49" r="1.79"/>
<path fill="#ffffff" d="
  M 162.42 192.63
  Q 154.94 197.47 161.19 206.03
  Q 162.04 206.93 161.71 209.00
  C 161.12 211.37 157.97 211.07 157.88 212.19
  Q 155.91 213.30 155.33 214.45
  L 120.40 214.51
  Q 118.70 213.90 116.21 214.79
  Q 115.61 214.90 115.31 214.24
  C 114.12 210.34 110.57 211.77 109.56 215.24
  C 103.61 214.06 104.88 221.69 104.30 224.96
  Q 103.98 225.03 103.85 225.31
  Q 103.71 225.60 103.40 225.59
  L 83.26 225.29
  A 2.26 2.26 0.0 0 1 82.21 225.01
  L 80.86 224.28
  Q 79.20 222.27 79.36 219.61
  Q 78.95 219.02 79.74 218.95
  C 86.31 221.99 93.21 220.66 98.02 215.37
  C 109.93 202.23 92.58 182.98 77.42 193.45
  Q 77.04 193.72 76.79 192.30
  Q 76.73 192.45 76.66 192.60
  Q 76.51 191.12 75.92 190.46
  Q 75.60 190.10 75.12 190.18
  Q 74.33 190.32 74.39 190.96
  Q 71.92 192.31 71.30 187.27
  Q 71.08 186.97 70.60 186.95
  Q 70.31 186.94 70.41 186.67
  Q 70.44 186.56 70.49 186.43
  Q 70.50 186.40 70.53 186.40
  Q 115.85 186.12 161.16 186.38
  Q 161.76 186.38 161.83 186.98
  L 162.42 192.63
  Z
  M 115.38 196.48
  A 2.67 2.67 0.0 0 0 112.71 193.81
  A 2.67 2.67 0.0 0 0 110.04 196.48
  A 2.67 2.67 0.0 0 0 112.71 199.15
  A 2.67 2.67 0.0 0 0 115.38 196.48
  Z
  M 155.1400 196.2200
  A 0.48 0.48 0.0 0 0 154.6591 195.7409
  L 121.2592 195.7991
  A 0.48 0.48 0.0 0 0 120.7800 196.2800
  L 120.7800 196.3000
  A 0.48 0.48 0.0 0 0 121.2609 196.7791
  L 154.6608 196.7209
  A 0.48 0.48 0.0 0 0 155.1400 196.2400
  L 155.1400 196.2200
  Z
  M 115.35 205.57
  A 2.62 2.62 0.0 0 0 112.73 202.95
  A 2.62 2.62 0.0 0 0 110.11 205.57
  A 2.62 2.62 0.0 0 0 112.73 208.19
  A 2.62 2.62 0.0 0 0 115.35 205.57
  Z
  M 155.1800 205.4900
  A 0.46 0.46 0.0 0 0 154.7208 205.0292
  L 121.2809 204.9708
  A 0.46 0.46 0.0 0 0 120.8201 205.4300
  L 120.8200 205.4700
  A 0.46 0.46 0.0 0 0 121.2792 205.9308
  L 154.7191 205.9892
  A 0.46 0.46 0.0 0 0 155.1799 205.5300
  L 155.1800 205.4900
  Z"
/>
<path fill="#353535" d="
  M 76.66 192.60
  Q 75.06 190.33 74.39 190.96
  Q 74.33 190.32 75.12 190.18
  Q 75.60 190.10 75.92 190.46
  Q 76.51 191.12 76.66 192.60
  Z"
/>
<path fill="#16171b" d="
  M 79.74 218.95
  Q 78.15 217.31 76.68 217.08
  Q 66.20 205.58 76.56 194.06
  Q 76.86 193.74 76.79 192.30
  Q 77.04 193.72 77.42 193.45
  C 92.58 182.98 109.93 202.23 98.02 215.37
  C 93.21 220.66 86.31 221.99 79.74 218.95
  Z
  M 96.97 195.91
  Q 88.46 187.87 78.33 194.07
  A 1.03 1.02 -37.0 0 0 78.11 195.63
  L 86.33 204.61
  Q 86.70 205.02 87.14 204.69
  L 96.88 197.41
  Q 97.82 196.71 96.97 195.91
  Z
  M 75.31 213.75
  C 79.23 218.84 84.31 220.63 90.57 219.24
  A 0.75 0.75 0.0 0 0 91.11 218.23
  Q 89.26 213.44 87.30 208.46
  C 85.43 203.72 80.52 199.52 77.05 195.79
  Q 76.69 195.40 76.36 195.82
  Q 68.92 205.42 75.31 213.75
  Z
  M 92.77 218.28
  C 100.59 215.06 102.61 205.58 98.95 198.55
  A 1.01 1.01 0.0 0 0 97.46 198.20
  L 87.58 205.44
  Q 87.15 205.75 87.34 206.24
  L 91.88 217.90
  A 0.68 0.68 0.0 0 0 92.77 218.28
  Z"
/>
<path fill="#ffd764" d="
  M 96.97 195.91
  Q 97.82 196.71 96.88 197.41
  L 87.14 204.69
  Q 86.70 205.02 86.33 204.61
  L 78.11 195.63
  A 1.03 1.02 -37.0 0 1 78.33 194.07
  Q 88.46 187.87 96.97 195.91
  Z"
/>
<path fill="#16171b" d="
  M 115.38 196.48
  A 2.67 2.67 0.0 0 1 112.71 199.15
  A 2.67 2.67 0.0 0 1 110.04 196.48
  A 2.67 2.67 0.0 0 1 112.71 193.81
  A 2.67 2.67 0.0 0 1 115.38 196.48
  Z
  M 114.52 196.54
  A 1.78 1.78 0.0 0 0 112.74 194.76
  A 1.78 1.78 0.0 0 0 110.96 196.54
  A 1.78 1.78 0.0 0 0 112.74 198.32
  A 1.78 1.78 0.0 0 0 114.52 196.54
  Z"
/>
<circle fill="#ffd764" cx="112.74" cy="196.54" r="1.78"/>
<path fill="#ffffff" d="
  M 75.31 213.75
  Q 68.92 205.42 76.36 195.82
  Q 76.69 195.40 77.05 195.79
  C 80.52 199.52 85.43 203.72 87.30 208.46
  Q 89.26 213.44 91.11 218.23
  A 0.75 0.75 0.0 0 1 90.57 219.24
  C 84.31 220.63 79.23 218.84 75.31 213.75
  Z"
/>
<rect fill="#16171b" x="-17.18" y="-0.49" transform="translate(137.96,196.26) rotate(-0.1)" width="34.36" height="0.98" rx="0.48"/>
<circle fill="#353535" cx="314.33" cy="201.24" r="3.98"/>
<circle fill="#353535" cx="339.88" cy="201.24" r="4.06"/>
<circle fill="#353535" cx="365.52" cy="201.26" r="4.01"/>
<path fill="#ffd764" d="
  M 98.95 198.55
  C 102.61 205.58 100.59 215.06 92.77 218.28
  A 0.68 0.68 0.0 0 1 91.88 217.90
  L 87.34 206.24
  Q 87.15 205.75 87.58 205.44
  L 97.46 198.20
  A 1.01 1.01 0.0 0 1 98.95 198.55
  Z"
/>
<ellipse fill="#16171b" cx="0.00" cy="0.00" transform="translate(429.91,206.68) rotate(98.5)" rx="6.60" ry="1.02"/>
<path fill="#16171b" d="
  M 115.35 205.57
  A 2.62 2.62 0.0 0 1 112.73 208.19
  A 2.62 2.62 0.0 0 1 110.11 205.57
  A 2.62 2.62 0.0 0 1 112.73 202.95
  A 2.62 2.62 0.0 0 1 115.35 205.57
  Z
  M 114.56 205.62
  A 1.80 1.80 0.0 0 0 112.76 203.82
  A 1.80 1.80 0.0 0 0 110.96 205.62
  A 1.80 1.80 0.0 0 0 112.76 207.42
  A 1.80 1.80 0.0 0 0 114.56 205.62
  Z"
/>
<circle fill="#ffd764" cx="112.76" cy="205.62" r="1.80"/>
<path fill="#353535" d="
  M 280.67 203.75
  Q 281.08 204.39 281.72 204.57
  Q 282.53 204.76 282.60 205.25
  Q 282.57 205.41 282.54 205.56
  Q 280.53 206.87 280.09 204.33
  Q 280.02 203.96 280.36 203.80
  Q 280.51 203.73 280.67 203.75
  Z"
/>
<rect fill="#353535" x="-17.18" y="-0.48" transform="translate(138.00,205.48) rotate(0.1)" width="34.36" height="0.96" rx="0.46"/>
<path fill="#353535" d="
  M 162.70 208.22
  L 162.33 211.71
  Q 162.20 213.01 162.04 211.71
  L 161.71 209.00
  Q 162.04 206.93 161.19 206.03
  C 163.27 204.43 162.81 207.29 162.70 208.22
  Z"
/>
<path fill="#7d787c" d="
  M 162.70 208.22
  L 162.73 223.51
  A 2.64 2.64 0.0 0 1 160.18 226.15
  Q 139.93 226.87 119.65 226.14
  A 0.35 0.34 32.2 0 1 119.50 225.49
  C 121.43 224.51 123.82 225.25 125.38 225.25
  Q 141.16 225.25 156.94 225.25
  C 158.28 225.25 159.26 224.85 160.56 224.62
  A 0.83 0.82 -87.7 0 0 161.22 224.00
  Q 162.83 217.50 157.88 212.19
  C 157.97 211.07 161.12 211.37 161.71 209.00
  L 162.04 211.71
  Q 162.20 213.01 162.33 211.71
  L 162.70 208.22
  Z"
/>
<path fill="#16171b" d="
  M 115.31 214.24
  Q 115.20 214.58 114.75 214.50
  Q 114.23 213.17 113.02 212.66
  Q 112.53 212.45 112.12 212.77
  Q 110.98 213.66 110.77 215.20
  Q 110.15 215.09 110.20 216.11
  Q 109.57 214.46 109.56 215.24
  C 110.57 211.77 114.12 210.34 115.31 214.24
  Z"
/>
<path fill="#ffffff" d="
  M 114.75 214.50
  C 113.99 216.56 112.22 216.74 110.77 215.20
  Q 110.98 213.66 112.12 212.77
  Q 112.53 212.45 113.02 212.66
  Q 114.23 213.17 114.75 214.50
  Z"
/>
<path fill="#353535" d="
  M 282.55 214.26
  Q 282.52 213.77 281.62 214.31
  L 281.32 213.62
  A 0.42 0.42 0.0 0 1 281.67 213.03
  L 282.17 212.99
  Q 282.67 212.96 282.74 213.45
  Q 282.83 213.98 282.55 214.26
  Z"
/>
<path fill="#7d787c" d="
  M 80.86 224.28
  L 82.21 225.01
  A 2.26 2.26 0.0 0 0 83.26 225.29
  L 103.40 225.59
  Q 103.71 225.60 103.85 225.31
  Q 103.98 225.03 104.30 224.96
  Q 104.61 225.14 104.72 225.42
  A 0.61 0.61 0.0 0 1 104.15 226.25
  L 68.05 226.24
  Q 67.51 224.27 65.60 223.70
  L 65.44 214.37
  A 0.40 0.39 -82.5 0 1 65.94 213.98
  Q 66.08 214.03 66.21 214.07
  Q 66.41 214.14 66.42 214.35
  L 66.76 221.91
  Q 66.78 222.45 67.19 222.80
  Q 67.94 223.44 68.67 224.10
  C 70.29 225.54 78.94 226.00 80.86 224.28
  Z"
/>
<path fill="#16171b" d="
  M 155.33 214.45
  Q 137.89 216.35 120.40 214.51
  L 155.33 214.45
  Z"
/>
<path fill="#353535" d="
  M 115.31 214.24
  Q 115.61 214.90 116.21 214.79
  Q 113.51 218.83 110.20 216.11
  Q 110.15 215.09 110.77 215.20
  C 112.22 216.74 113.99 216.56 114.75 214.50
  Q 115.20 214.58 115.31 214.24
  Z"
/>
<path fill="#353535" d="
  M 76.68 217.08
  Q 78.15 217.31 79.74 218.95
  Q 78.95 219.02 79.36 219.61
  L 76.68 217.08
  Z"
/>
<circle fill="#353535" cx="314.32" cy="224.95" r="4.00"/>
<circle fill="#353535" cx="339.92" cy="224.94" r="4.04"/>
<circle fill="#353535" cx="365.51" cy="224.93" r="4.01"/>
<path fill="#353535" d="
  M 65.60 223.70
  Q 67.51 224.27 68.05 226.24
  Q 66.03 225.83 65.60 223.70
  Z"
/>
<circle fill="#353535" cx="314.36" cy="248.64" r="3.98"/>
<circle fill="#353535" cx="339.95" cy="248.70" r="4.05"/>
<circle fill="#353535" cx="365.49" cy="248.68" r="4.02"/>
<path fill="#7d787c" d="
  M 226.10 246.22
  Q 225.62 248.36 226.75 248.00
  L 224.71 275.92
  Q 223.64 261.19 224.75 246.74
  Q 225.25 246.86 226.10 246.22
  Z"
/>
<path fill="#353535" d="
  M 486.20 364.00
  L 484.93 364.00
  L 485.61 363.61
  Q 486.01 363.38 486.02 362.91
  Q 486.47 328.42 485.71 293.92
  C 485.58 288.08 483.58 284.64 477.43 284.69
  Q 456.56 284.87 435.71 285.09
  Q 435.21 285.10 435.21 285.60
  Q 435.29 305.40 435.24 325.19
  C 435.22 333.12 430.81 333.18 424.25 332.98
  C 419.04 332.82 417.77 329.73 417.77 324.89
  Q 417.79 307.96 417.66 290.99
  L 417.66 285.59
  A 0.58 0.58 0.0 0 0 417.08 285.01
  Q 395.60 284.98 374.12 285.01
  C 369.02 285.02 367.07 288.42 367.04 293.26
  Q 366.85 322.02 367.04 350.74
  L 367.38 364.00
  L 366.44 364.00
  Q 365.52 363.30 365.52 361.94
  Q 365.49 326.72 365.50 291.50
  C 365.50 285.82 369.90 283.27 375.28 283.26
  Q 385.27 283.24 395.33 283.25
  A 1.13 1.13 0.0 0 0 396.47 282.14
  Q 396.65 271.73 396.78 261.05
  C 396.84 255.27 400.21 252.54 405.71 252.52
  Q 426.61 252.47 447.51 252.52
  C 454.11 252.54 457.76 255.03 457.90 261.93
  Q 458.11 271.69 457.90 282.61
  A 0.62 0.62 0.0 0 0 458.51 283.24
  Q 468.08 283.27 477.63 283.24
  C 484.09 283.23 487.22 285.92 487.23 292.29
  Q 487.28 327.01 487.26 361.75
  Q 487.26 363.38 486.20 364.00
  Z
  M 428.91 259.89
  C 436.64 260.05 450.40 256.91 450.84 268.80
  Q 451.10 275.75 450.98 282.71
  Q 450.97 283.25 451.51 283.25
  L 455.46 283.25
  A 0.52 0.52 0.0 0 0 455.98 282.73
  Q 456.03 271.91 456.03 261.08
  C 456.03 255.88 452.56 253.94 447.63 253.90
  Q 427.30 253.76 406.96 254.07
  C 402.11 254.14 397.93 255.58 398.05 261.01
  Q 398.30 271.86 398.26 282.73
  Q 398.26 283.36 398.89 283.32
  L 403.03 283.08
  A 0.50 0.50 0.0 0 0 403.50 282.59
  Q 403.67 275.62 403.86 268.61
  C 404.02 262.83 407.08 259.73 412.98 259.99
  C 418.02 260.22 424.00 259.79 428.91 259.89
  Z
  M 406.68 283.29
  L 447.64 283.21
  A 1.41 1.41 0.0 0 0 449.05 281.80
  L 449.02 267.71
  A 6.74 6.38 -0.1 0 0 442.27 261.34
  L 411.97 261.40
  A 6.74 6.38 -0.1 0 0 405.24 267.79
  L 405.27 281.88
  A 1.41 1.41 0.0 0 0 406.68 283.29
  Z
  M 433.12 284.95
  L 419.74 284.93
  A 0.79 0.79 0.0 0 0 418.95 285.72
  L 418.88 326.25
  A 5.50 5.29 -89.9 0 0 424.16 331.76
  L 428.54 331.76
  A 5.50 5.29 -89.9 0 0 433.84 326.27
  L 433.91 285.74
  A 0.79 0.79 0.0 0 0 433.12 284.95
  Z"
/>
<path fill="#4f6aff" d="
  M 428.91 259.89
  C 424.00 259.79 418.02 260.22 412.98 259.99
  C 407.08 259.73 404.02 262.83 403.86 268.61
  Q 403.67 275.62 403.50 282.59
  A 0.50 0.50 0.0 0 1 403.03 283.08
  L 398.89 283.32
  Q 398.26 283.36 398.26 282.73
  Q 398.30 271.86 398.05 261.01
  C 397.93 255.58 402.11 254.14 406.96 254.07
  Q 427.30 253.76 447.63 253.90
  C 452.56 253.94 456.03 255.88 456.03 261.08
  Q 456.03 271.91 455.98 282.73
  A 0.52 0.52 0.0 0 1 455.46 283.25
  L 451.51 283.25
  Q 450.97 283.25 450.98 282.71
  Q 451.10 275.75 450.84 268.80
  C 450.40 256.91 436.64 260.05 428.91 259.89
  Z"
/>
<path fill="#353535" d="
  M 197.68 277.22
  L 207.74 283.17
  A 0.63 0.63 0.0 0 1 207.19 284.30
  L 196.33 279.95
  A 0.63 0.63 0.0 0 0 195.56 280.22
  L 189.61 290.28
  A 0.63 0.63 0.0 0 1 188.48 289.73
  L 192.83 278.87
  A 0.63 0.63 0.0 0 0 192.56 278.10
  L 182.50 272.15
  A 0.63 0.63 0.0 0 1 183.05 271.02
  L 193.91 275.37
  A 0.63 0.63 0.0 0 0 194.68 275.10
  L 200.63 265.04
  A 0.63 0.63 0.0 0 1 201.76 265.59
  L 197.41 276.45
  A 0.63 0.63 0.0 0 0 197.68 277.22
  Z"
/>
<path fill="#485aff" d="
  M 484.93 364.00
  L 367.38 364.00
  L 367.04 350.74
  L 367.51 352.32
  Q 367.58 352.56 367.82 352.48
  Q 367.95 352.43 368.06 352.38
  Q 368.26 352.28 368.26 352.51
  Q 368.25 352.65 368.24 352.80
  Q 368.22 353.11 368.52 353.00
  Q 368.99 352.83 369.01 352.43
  Q 369.03 352.01 369.45 352.09
  C 373.64 352.88 375.25 348.36 377.86 346.02
  Q 378.22 345.70 378.70 345.62
  C 381.27 345.22 382.40 343.05 383.83 342.05
  Q 394.37 334.74 404.08 326.33
  C 408.13 322.82 408.42 319.72 414.76 318.72
  Q 415.28 318.63 415.41 319.14
  L 415.70 320.24
  Q 415.79 320.59 415.90 320.24
  L 417.34 315.96
  Q 417.54 315.36 417.55 314.74
  L 417.66 290.99
  Q 417.79 307.96 417.77 324.89
  C 417.77 329.73 419.04 332.82 424.25 332.98
  C 430.81 333.18 435.22 333.12 435.24 325.19
  Q 435.29 305.40 435.21 285.60
  Q 435.21 285.10 435.71 285.09
  Q 456.56 284.87 477.43 284.69
  C 483.58 284.64 485.58 288.08 485.71 293.92
  Q 486.47 328.42 486.02 362.91
  Q 486.01 363.38 485.61 363.61
  L 484.93 364.00
  Z"
/>
<path fill="#4f6aff" d="
  M 417.66 290.99
  L 417.55 314.74
  Q 417.54 315.36 417.34 315.96
  L 415.90 320.24
  Q 415.79 320.59 415.70 320.24
  L 415.41 319.14
  Q 415.28 318.63 414.76 318.72
  C 408.42 319.72 408.13 322.82 404.08 326.33
  Q 394.37 334.74 383.83 342.05
  C 382.40 343.05 381.27 345.22 378.70 345.62
  Q 378.22 345.70 377.86 346.02
  C 375.25 348.36 373.64 352.88 369.45 352.09
  Q 369.03 352.01 369.01 352.43
  Q 368.99 352.83 368.52 353.00
  Q 368.22 353.11 368.24 352.80
  Q 368.25 352.65 368.26 352.51
  Q 368.26 352.28 368.06 352.38
  Q 367.95 352.43 367.82 352.48
  Q 367.58 352.56 367.51 352.32
  L 367.04 350.74
  Q 366.85 322.02 367.04 293.26
  C 367.07 288.42 369.02 285.02 374.12 285.01
  Q 395.60 284.98 417.08 285.01
  A 0.58 0.58 0.0 0 1 417.66 285.59
  L 417.66 290.99
  Z"
/>
<path fill="#4f6aff" d="
  M 433.12 284.95
  A 0.79 0.79 0.0 0 1 433.91 285.74
  L 433.84 326.27
  A 5.50 5.29 -89.9 0 1 428.54 331.76
  L 424.16 331.76
  A 5.50 5.29 -89.9 0 1 418.88 326.25
  L 418.95 285.72
  A 0.79 0.79 0.0 0 1 419.74 284.93
  L 433.12 284.95
  Z
  M 430.6614 315.3569
  A 2.62 2.62 0.0 0 0 427.9961 312.7830
  L 424.7966 312.8388
  A 2.62 2.62 0.0 0 0 422.2227 315.5042
  L 422.3386 322.1431
  A 2.62 2.62 0.0 0 0 425.0039 324.7170
  L 428.2034 324.6612
  A 2.62 2.62 0.0 0 0 430.7773 321.9958
  L 430.6614 315.3569
  Z"
/>
<path fill="#353535" d="
  M 430.7773 321.9958
  A 2.62 2.62 0.0 0 1 428.2034 324.6612
  L 425.0039 324.7170
  A 2.62 2.62 0.0 0 1 422.3386 322.1431
  L 422.2227 315.5042
  A 2.62 2.62 0.0 0 1 424.7966 312.8388
  L 427.9961 312.7830
  A 2.62 2.62 0.0 0 1 430.6614 315.3569
  L 430.7773 321.9958
  Z
  M 429.2113 315.5452
  A 1.34 1.34 0.0 0 0 427.8596 314.2169
  L 424.8197 314.2434
  A 1.34 1.34 0.0 0 0 423.4915 315.5951
  L 423.5487 322.1548
  A 1.34 1.34 0.0 0 0 424.9004 323.4831
  L 427.9403 323.4566
  A 1.34 1.34 0.0 0 0 429.2685 322.1049
  L 429.2113 315.5452
  Z"
/>
<rect fill="#ffffff" x="-2.86" y="-4.62" transform="translate(426.38,318.85) rotate(-0.5)" width="5.72" height="9.24" rx="1.34"/>
<path fill="#353535" d="
  M 198.41 364.00
  L 197.20 364.00
  C 199.46 350.80 186.37 344.67 175.16 344.57
  A 0.93 0.92 75.8 0 1 174.37 344.09
  C 170.38 336.61 168.29 331.54 159.23 329.25
  C 156.16 328.47 152.50 328.76 149.10 328.75
  Q 148.61 328.74 148.27 328.39
  Q 136.98 316.66 121.31 320.58
  C 116.38 321.81 112.85 324.98 107.60 325.37
  C 92.98 326.45 82.50 333.98 78.67 348.39
  Q 78.39 349.44 77.35 349.14
  C 70.15 347.08 58.52 346.99 53.80 353.81
  Q 51.58 357.02 49.77 364.00
  Q 50.16 363.99 49.00 364.00
  C 50.37 349.06 62.70 344.51 75.80 347.48
  Q 77.43 347.85 77.92 346.25
  C 82.24 332.06 93.74 324.97 108.07 324.06
  C 112.77 323.76 116.44 320.64 121.00 319.47
  Q 137.20 315.31 148.66 327.28
  A 1.44 1.44 0.0 0 0 149.87 327.70
  C 162.40 326.06 170.16 331.74 174.99 342.60
  A 0.95 0.92 80.8 0 0 175.73 343.15
  C 186.67 344.47 201.16 349.72 198.41 364.00
  Z"
/>
<path fill="#59c321" d="
  M 197.20 364.00
  L 49.77 364.00
  Q 51.58 357.02 53.80 353.81
  C 58.52 346.99 70.15 347.08 77.35 349.14
  Q 78.39 349.44 78.67 348.39
  C 82.50 333.98 92.98 326.45 107.60 325.37
  C 112.85 324.98 116.38 321.81 121.31 320.58
  Q 136.98 316.66 148.27 328.39
  Q 148.61 328.74 149.10 328.75
  C 152.50 328.76 156.16 328.47 159.23 329.25
  C 168.29 331.54 170.38 336.61 174.37 344.09
  A 0.93 0.92 75.8 0 0 175.16 344.57
  C 186.37 344.67 199.46 350.80 197.20 364.00
  Z"
/>
<path fill="#ffffff" d="
  M 271.28 359.68
  Q 270.65 359.93 270.23 359.61
  C 274.16 356.60 274.66 354.21 274.85 349.12
  Q 274.87 348.59 275.38 348.46
  Q 277.78 347.82 280.15 347.50
  C 283.00 347.12 286.16 345.59 289.27 345.79
  A 0.55 0.54 41.5 0 1 289.34 346.87
  L 276.84 349.16
  A 1.41 1.41 0.0 0 0 275.69 350.68
  Q 276.29 356.87 271.28 359.68
  Z"
/>
<path fill="#7d787c" d="
  M 231.54 349.40
  L 242.82 349.58
  L 244.26 350.63
  A 0.76 0.76 0.0 0 1 243.79 352.01
  L 231.77 351.67
  A 1.55 1.55 0.0 0 0 230.18 353.23
  C 230.20 358.15 226.37 359.81 222.98 362.24
  Q 222.13 362.40 221.91 361.94
  C 225.17 359.24 229.57 356.93 228.96 351.78
  Q 228.89 351.27 229.32 350.97
  L 231.54 349.40
  Z"
/>
<path fill="#353535" d="
  M 221.91 361.94
  Q 222.13 362.40 222.98 362.24
  Q 221.82 363.49 220.43 364.00
  L 219.66 364.00
  Q 219.40 363.32 220.40 362.09
  Q 221.08 362.48 221.91 361.94
  Z"
/>
</svg>
