<svg xmlns="http://www.w3.org/2000/svg" version="1.1" viewBox="0 23.2 500 408.58">
<g stroke-width="2.00" fill="none" stroke-linecap="butt">
<path stroke="#74e5e0" vector-effect="non-scaling-stroke" d="   M 287.10 108.53   Q 286.14 108.22 286.14 108.48"/>
<path stroke="#74e5e0" vector-effect="non-scaling-stroke" d="   M 130.43 115.15   Q 129.70 114.69 129.55 115.21"/>
<path stroke="#74e5e0" vector-effect="non-scaling-stroke" d="   M 432.61 309.10   Q 433.14 309.30 432.74 309.78"/>
<path stroke="#74e5e0" vector-effect="non-scaling-stroke" d="   M 403.81 353.01   L 402.86 353.01"/>
<path stroke="#74e5e0" vector-effect="non-scaling-stroke" d="   M 325.39 352.45   L 324.48 352.79"/>
<path stroke="#64aed3" vector-effect="non-scaling-stroke" d="   M 323.79 352.44   L 321.21 352.25   Q 320.81 352.23 320.73 351.83   L 319.64 346.69   Q 319.55 346.26 319.98 346.23   L 359.96 342.56"/>
<path stroke="#aae4e4" vector-effect="non-scaling-stroke" d="   M 359.96 342.56   Q 388.66 343.45 416.74 342.76   C 420.13 342.68 422.17 341.57 422.18 338.00   Q 422.21 320.49 422.33 303.02"/>
<path stroke="#b4f3f2" vector-effect="non-scaling-stroke" d="   M 422.33 303.02   L 422.27 285.21"/>
<path stroke="#aae4e4" vector-effect="non-scaling-stroke" d="   M 422.27 285.21   Q 422.25 207.74 422.24 130.26   C 422.24 124.99 419.20 124.99 415.00 124.98   Q 249.28 124.74 83.56 124.76   C 78.02 124.76 78.47 129.04 78.46 133.00   Q 78.27 209.18 78.24 285.36   Q 78.24 285.95 78.05 289.01   Q 77.93 291.11 78.27 292.67"/>
<path stroke="#b4f3f2" vector-effect="non-scaling-stroke" d="   M 78.27 292.67   L 78.28 338.34   A 4.41 4.41 0.0 0 0 82.68 342.75   L 121.47 342.81"/>
<path stroke="#aae4e4" vector-effect="non-scaling-stroke" d="   M 121.47 342.81   L 257.23 343.03"/>
<path stroke="#59a2c2" vector-effect="non-scaling-stroke" d="   M 257.23 343.03   L 256.97 352.42"/>
<path stroke="#74e5e0" vector-effect="non-scaling-stroke" d="   M 256.97 352.42   L 217.65 352.36"/>
<path stroke="#74e5e0" vector-effect="non-scaling-stroke" d="   M 137.54 352.80   Q 136.69 352.84 136.68 352.32"/>
<path stroke="#d2e1e4" vector-effect="non-scaling-stroke" d="   M 422.27 285.21   L 413.09 285.14   A 0.49 0.49 0.0 0 1 412.75 284.30   L 419.01 278.16   A 0.72 0.72 0.0 0 0 419.01 277.14   L 407.18 265.31   Q 406.73 264.86 406.30 265.31   L 400.11 271.67   Q 399.00 272.81 399.00 271.21   L 399.00 262.70   Q 399.00 262.05 398.35 262.06   L 392.05 262.16"/>
<path stroke="#d6b2b3" vector-effect="non-scaling-stroke" d="   M 392.05 262.16   L 390.24 254.10"/>
<path stroke="#e3e9eb" vector-effect="non-scaling-stroke" d="   M 390.24 254.10   L 391.43 252.92   Q 391.80 252.55 391.63 252.06   C 387.86 241.18 383.68 227.40 373.83 220.44"/>
<path stroke="#90b9e3" vector-effect="non-scaling-stroke" d="   M 373.83 220.44   Q 383.26 220.10 392.39 220.27   C 397.82 220.37 399.99 217.90 399.99 212.40   Q 400.02 184.55 399.98 156.71   C 399.98 153.61 398.61 150.55 395.58 149.88   Q 392.08 149.10 383.18 149.43   Q 374.85 149.75 370.80 149.73   Q 301.12 149.42 278.00 149.80   C 273.69 149.87 272.50 153.63 272.50 157.53   Q 272.49 185.68 272.51 213.83   C 272.51 218.40 275.50 220.22 279.88 220.23   Q 288.43 220.25 296.51 220.28"/>
<path stroke="#d2e1e4" vector-effect="non-scaling-stroke" d="   M 296.51 220.28   Q 295.85 222.69 299.31 225.03   A 0.53 0.53 0.0 0 1 299.02 226.00   L 294.87 226.00   A 0.63 0.62 90.0 0 0 294.25 226.63   L 294.25 235.11   Q 294.25 235.72 294.86 235.70   L 299.22 235.57   A 0.37 0.36 -68.7 0 1 299.49 236.19   L 296.41 239.32   A 0.48 0.48 0.0 0 0 296.41 240.00   L 302.46 246.15   Q 302.86 246.56 303.26 246.15   L 306.27 243.02   Q 306.69 242.58 306.80 243.18   Q 307.18 245.18 306.95 247.26   Q 306.89 247.84 307.46 247.97   Q 308.16 248.13 309.40 247.64"/>
<path stroke="#e3e9eb" vector-effect="non-scaling-stroke" d="   M 309.40 247.64   Q 307.66 252.56 308.24 255.05"/>
<path stroke="#d6b2b3" vector-effect="non-scaling-stroke" d="   M 308.24 255.05   Q 307.83 260.49 305.96 265.67"/>
<path stroke="#aae4e4" vector-effect="non-scaling-stroke" d="   M 305.96 265.67   L 302.53 265.58"/>
<path stroke="#819cc5" vector-effect="non-scaling-stroke" d="   M 302.53 265.58   C 302.45 259.69 304.75 249.24 295.25 249.24   Q 247.78 249.22 200.31 249.27   C 195.07 249.28 193.50 252.81 193.50 257.66   Q 193.49 284.60 193.51 311.54   C 193.52 316.22 196.24 318.25 200.87 318.25   Q 234.90 318.25 268.94 318.25   A 0.27 0.26 84.8 0 1 269.20 318.47   Q 269.24 318.71 269.39 318.69"/>
<path stroke="#7790b4" vector-effect="non-scaling-stroke" d="   M 269.39 318.69   C 256.53 322.59 257.46 331.79 257.23 343.03"/>
<path stroke="#d2e1e4" vector-effect="non-scaling-stroke" d="   M 121.47 342.81   L 125.26 338.98   A 0.78 0.78 0.0 0 0 125.26 337.88   L 118.47 331.09   Q 117.87 330.50 118.71 330.50   L 127.74 330.50   A 1.10 1.10 0.0 0 0 128.84 329.42   L 129.01 317.90"/>
<path stroke="#90b9e3" vector-effect="non-scaling-stroke" d="   M 129.01 317.90   Q 129.43 297.47 129.25 276.75   Q 129.24 276.01 128.88 274.05   Q 128.77 273.44 128.15 273.47   L 125.97 273.57   Q 125.61 273.58 125.61 273.94   L 125.67 312.46"/>
<path stroke="#d2e1e4" vector-effect="non-scaling-stroke" d="   M 125.67 312.46   L 122.03 312.97"/>
<path stroke="#90b9e3" vector-effect="non-scaling-stroke" d="   M 122.03 312.97   L 122.00 307.84"/>
<path stroke="#d2e1e4" vector-effect="non-scaling-stroke" d="   M 122.00 307.84   Q 124.28 306.91 124.89 305.17   Q 125.06 304.67 124.68 304.29   L 113.00 292.63   Q 112.62 292.25 112.25 292.63   L 105.55 299.32   A 0.47 0.47 0.0 0 1 104.75 298.99   L 104.75 290.38   Q 104.75 289.26 103.63 289.28   L 87.60 289.54   Q 87.00 289.55 87.00 290.15   L 87.00 299.05   A 0.60 0.60 0.0 0 1 85.93 299.42   Q 82.83 295.57 78.27 292.67"/>
<path stroke="#e3e9eb" vector-effect="non-scaling-stroke" d="   M 181.47 168.88   Q 170.39 168.91 162.57 176.64"/>
<path stroke="#d2e1e4" vector-effect="non-scaling-stroke" d="   M 162.57 176.64   L 162.26 170.27   A 0.55 0.55 0.0 0 0 161.71 169.75   L 152.94 169.75   Q 151.38 169.75 152.48 168.64   L 158.56 162.56   A 0.62 0.61 45.3 0 0 158.56 161.69   L 146.63 149.75   Q 146.26 149.38 145.88 149.75   L 139.60 156.02   Q 138.50 157.12 138.50 155.56   L 138.50 147.00   Q 138.50 146.50 138.00 146.50   L 121.22 146.50   A 0.76 0.75 89.3 0 0 120.47 147.28   L 120.69 156.41   A 0.58 0.58 0.0 0 1 119.70 156.83   L 113.60 150.57   A 0.95 0.95 0.0 0 0 112.24 150.57   L 100.64 162.26   Q 100.29 162.62 100.64 162.98   L 107.31 169.62   Q 107.95 170.25 107.05 170.25   L 97.75 170.25   A 0.50 0.50 0.0 0 0 97.25 170.75   L 97.25 187.62   Q 97.25 188.25 97.88 188.25   L 107.24 188.25   A 0.47 0.47 0.0 0 1 107.57 189.06   L 101.10 195.43   A 0.57 0.57 0.0 0 0 101.10 196.23   L 113.00 208.13   Q 113.38 208.50 113.75 208.13   L 120.61 201.27   A 0.40 0.40 0.0 0 1 121.29 201.56   L 120.96 210.97   A 0.51 0.51 0.0 0 0 121.47 211.50   L 138.50 211.50   A 0.50 0.50 0.0 0 0 139.00 211.00   L 139.00 201.20   Q 139.00 200.27 139.64 200.94   L 146.28 207.92   Q 146.62 208.28 146.98 207.93   L 156.55 198.57"/>
<path stroke="#e3e9eb" vector-effect="non-scaling-stroke" d="   M 156.55 198.57   L 202.48 198.47   Q 202.98 198.47 202.98 197.97   L 203.04 187.33   Q 203.04 186.86 202.57 186.84   L 196.28 186.50   A 0.98 0.98 0.0 0 1 195.54 184.94   L 206.37 170.13   A 1.72 1.72 0.0 0 1 209.15 170.13   L 219.97 184.92   A 1.05 1.04 71.2 0 1 219.16 186.58   L 213.11 186.76   Q 212.50 186.77 212.50 187.39   L 212.50 197.98   Q 212.50 198.71 213.23 198.70   L 258.21 198.52   A 0.48 0.47 -83.0 0 0 258.67 198.16   C 261.77 184.93 252.94 172.94 239.02 172.60   Q 238.50 172.59 238.38 172.08   C 234.68 156.02 219.86 146.62 203.73 149.40"/>
<path stroke="#d2e1e4" vector-effect="non-scaling-stroke" d="   M 203.73 149.40   Q 201.42 148.05 198.02 148.38   A 0.36 0.36 0.0 0 1 197.73 147.76   L 200.81 144.87   A 0.62 0.62 0.0 0 0 200.82 143.99   L 194.83 137.93   A 0.64 0.63 -44.7 0 0 193.94 137.93   L 190.84 141.03   Q 190.25 141.62 190.25 140.79   L 190.25 136.63   Q 190.25 136.00 189.62 136.00   L 181.14 136.00   Q 180.60 136.00 180.62 136.54   L 180.80 140.96   A 0.49 0.49 0.0 0 1 179.96 141.33   L 176.93 138.30   Q 176.48 137.86 176.04 138.31   L 170.19 144.20   A 0.62 0.62 0.0 0 0 170.19 145.07   L 173.28 148.16   Q 173.87 148.75 173.04 148.75   L 168.75 148.75   Q 168.25 148.75 168.25 149.25   L 168.25 157.75   Q 168.25 158.25 168.75 158.25   L 173.20 158.25   A 0.38 0.38 0.0 0 1 173.47 158.90   L 170.38 162.00   Q 170.01 162.37 170.37 162.74   L 176.37 168.83   A 0.47 0.47 0.0 0 0 177.04 168.83   L 180.19 165.68   A 0.42 0.42 0.0 0 1 180.90 165.90   L 181.47 168.88"/>
<path stroke="#eef8f8" vector-effect="non-scaling-stroke" d="   M 203.73 149.40   Q 198.37 150.75 193.72 153.40"/>
<path stroke="#d2e1e4" vector-effect="non-scaling-stroke" d="   M 193.72 153.40   C 193.18 143.46 179.97 141.92 177.76 151.76   Q 176.14 159.01 185.33 161.63"/>
<path stroke="#eef8f8" vector-effect="non-scaling-stroke" d="   M 185.33 161.63   L 181.47 168.88"/>
<path stroke="#e3e9eb" vector-effect="non-scaling-stroke" d="   M 193.72 153.40   Q 188.96 156.68 185.33 161.63"/>
<path stroke="#e3e9eb" vector-effect="non-scaling-stroke" d="   M 156.05 192.07   L 156.70 187.80"/>
<path stroke="#eef8f8" vector-effect="non-scaling-stroke" d="   M 162.57 176.64   Q 158.33 181.44 156.70 187.80"/>
<path stroke="#d2e1e4" vector-effect="non-scaling-stroke" d="   M 156.70 187.80   Q 154.48 187.23 152.46 187.84   Q 151.92 188.00 152.32 188.39   L 156.05 192.07"/>
<path stroke="#eef8f8" vector-effect="non-scaling-stroke" d="   M 156.05 192.07   L 156.55 198.57"/>
<path stroke="#90b9e3" vector-effect="non-scaling-stroke" d="   M 185.69 222.24   A 7.46 7.46 0.0 0 0 178.23 214.78   L 101.79 214.78   A 7.46 7.46 0.0 0 0 94.33 222.24   L 94.33 222.52   A 7.46 7.46 0.0 0 0 101.79 229.98   L 178.23 229.98   A 7.46 7.46 0.0 0 0 185.69 222.52   L 185.69 222.24"/>
<path stroke="#e3e9eb" vector-effect="non-scaling-stroke" d="   M 122.7304 237.4318   A 1.09 1.09 0.0 0 0 121.6442 236.3380   L 105.5843 236.2820   A 1.09 1.09 0.0 0 0 104.4905 237.3682   L 104.4896 237.6282   A 1.09 1.09 0.0 0 0 105.5758 238.7220   L 121.6357 238.7780   A 1.09 1.09 0.0 0 0 122.7295 237.6918   L 122.7304 237.4318"/>
<path stroke="#e3e9eb" vector-effect="non-scaling-stroke" d="   M 138.9801 237.5487   A 1.17 1.17 0.0 0 0 137.8183 236.3705   L 126.2186 236.2895   A 1.17 1.17 0.0 0 0 125.0404 237.4513   L 125.0399 237.5313   A 1.17 1.17 0.0 0 0 126.2017 238.7095   L 137.8014 238.7905   A 1.17 1.17 0.0 0 0 138.9796 237.6287   L 138.9801 237.5487"/>
<path stroke="#e3e9eb" vector-effect="non-scaling-stroke" d="   M 165.4301 237.5382   A 1.18 1.18 0.0 0 0 164.2563 236.3520   L 148.2165 236.2680   A 1.18 1.18 0.0 0 0 147.0303 237.4418   L 147.0299 237.5218   A 1.18 1.18 0.0 0 0 148.2037 238.7080   L 164.2435 238.7920   A 1.18 1.18 0.0 0 0 165.4297 237.6182   L 165.4301 237.5382"/>
<path stroke="#e3e9eb" vector-effect="non-scaling-stroke" d="   M 181.4994 237.3935   A 1.13 1.13 0.0 0 0 180.3635 236.2694   L 168.6636 236.3306   A 1.13 1.13 0.0 0 0 167.5396 237.4665   L 167.5406 237.6665   A 1.13 1.13 0.0 0 0 168.6765 238.7906   L 180.3764 238.7294   A 1.13 1.13 0.0 0 0 181.5004 237.5935   L 181.4994 237.3935"/>
<path stroke="#e3e9eb" vector-effect="non-scaling-stroke" d="   M 138.9507 242.6709   A 0.95 0.95 0.0 0 0 138.0040 241.7176   L 116.4841 241.6424   A 0.95 0.95 0.0 0 0 115.5308 242.5891   L 115.5293 243.0091   A 0.95 0.95 0.0 0 0 116.4760 243.9624   L 137.9959 244.0376   A 0.95 0.95 0.0 0 0 138.9492 243.0909   L 138.9507 242.6709"/>
<path stroke="#e3e9eb" vector-effect="non-scaling-stroke" d="   M 181.4504 242.6504   A 0.93 0.93 0.0 0 0 180.5220 241.7188   L 158.9620 241.6812   A 0.93 0.93 0.0 0 0 158.0304 242.6096   L 158.0296 243.0496   A 0.93 0.93 0.0 0 0 158.9580 243.9812   L 180.5180 244.0188   A 0.93 0.93 0.0 0 0 181.4496 243.0904   L 181.4504 242.6504"/>
<path stroke="#e3e9eb" vector-effect="non-scaling-stroke" d="   M 113.5207 242.5079   A 0.74 0.74 0.0 0 0 112.7819 241.7666   L 105.2620 241.7534   A 0.74 0.74 0.0 0 0 104.5207 242.4921   L 104.5193 243.2521   A 0.74 0.74 0.0 0 0 105.2581 243.9934   L 112.7780 244.0066   A 0.74 0.74 0.0 0 0 113.5193 243.2679   L 113.5207 242.5079"/>
<path stroke="#e3e9eb" vector-effect="non-scaling-stroke" d="   M 156.0207 242.5079   A 0.74 0.74 0.0 0 0 155.2819 241.7666   L 147.7620 241.7534   A 0.74 0.74 0.0 0 0 147.0207 242.4921   L 147.0193 243.2521   A 0.74 0.74 0.0 0 0 147.7581 243.9934   L 155.2780 244.0066   A 0.74 0.74 0.0 0 0 156.0193 243.2679   L 156.0207 242.5079"/>
<path stroke="#e3e9eb" vector-effect="non-scaling-stroke" d="   M 127.9997 248.0795   A 1.10 1.10 0.0 0 0 126.8978 246.9814   L 105.5979 247.0186   A 1.10 1.10 0.0 0 0 104.4998 248.1205   L 104.5003 248.4005   A 1.10 1.10 0.0 0 0 105.6022 249.4986   L 126.9021 249.4614   A 1.10 1.10 0.0 0 0 128.0002 248.3595   L 127.9997 248.0795"/>
<path stroke="#e3e9eb" vector-effect="non-scaling-stroke" d="   M 138.9501 248.2080   A 1.18 1.18 0.0 0 0 137.7721 247.0259   L 131.0121 247.0141   A 1.18 1.18 0.0 0 0 129.8301 248.1920   L 129.8299 248.2720   A 1.18 1.18 0.0 0 0 131.0079 249.4541   L 137.7679 249.4659   A 1.18 1.18 0.0 0 0 138.9499 248.2880   L 138.9501 248.2080"/>
<path stroke="#e3e9eb" vector-effect="non-scaling-stroke" d="   M 170.52 248.17   A 1.17 1.17 0.0 0 0 169.35 247.00   L 148.15 247.00   A 1.17 1.17 0.0 0 0 146.98 248.17   L 146.98 248.33   A 1.17 1.17 0.0 0 0 148.15 249.50   L 169.35 249.50   A 1.17 1.17 0.0 0 0 170.52 248.33   L 170.52 248.17"/>
<path stroke="#e3e9eb" vector-effect="non-scaling-stroke" d="   M 181.5097 248.1760   A 1.19 1.19 0.0 0 0 180.3135 246.9922   L 173.5136 247.0278   A 1.19 1.19 0.0 0 0 172.3298 248.2240   L 172.3303 248.3240   A 1.19 1.19 0.0 0 0 173.5265 249.5078   L 180.3264 249.4722   A 1.19 1.19 0.0 0 0 181.5102 248.2760   L 181.5097 248.1760"/>
<path stroke="#90b9e3" vector-effect="non-scaling-stroke" d="   M 143.25 264.10   A 0.81 0.81 0.0 0 0 142.44 263.29   L 140.56 263.29   A 0.81 0.81 0.0 0 0 139.75 264.10   L 139.75 316.98   A 0.81 0.81 0.0 0 0 140.56 317.79   L 142.44 317.79   A 0.81 0.81 0.0 0 0 143.25 316.98   L 143.25 264.10"/>
<path stroke="#90b9e3" vector-effect="non-scaling-stroke" d="   M 157.24 281.46   A 0.54 0.54 0.0 0 0 156.70 280.92   L 154.28 280.92   A 0.54 0.54 0.0 0 0 153.74 281.46   L 153.74 317.22   A 0.54 0.54 0.0 0 0 154.28 317.76   L 156.70 317.76   A 0.54 0.54 0.0 0 0 157.24 317.22   L 157.24 281.46"/>
<path stroke="#90b9e3" vector-effect="non-scaling-stroke" d="   M 150.25 291.60   A 0.57 0.57 0.0 0 0 149.68 291.03   L 147.32 291.03   A 0.57 0.57 0.0 0 0 146.75 291.60   L 146.75 317.32   A 0.57 0.57 0.0 0 0 147.32 317.89   L 149.68 317.89   A 0.57 0.57 0.0 0 0 150.25 317.32   L 150.25 291.60"/>
<path stroke="#90b9e3" vector-effect="non-scaling-stroke" d="   M 136.01 298.32   A 0.54 0.54 0.0 0 0 135.47 297.78   L 133.29 297.78   A 0.54 0.54 0.0 0 0 132.75 298.32   L 132.75 317.34   A 0.54 0.54 0.0 0 0 133.29 317.88   L 135.47 317.88   A 0.54 0.54 0.0 0 0 136.01 317.34   L 136.01 298.32"/>
<path stroke="#90b9e3" vector-effect="non-scaling-stroke" d="   M 164.2558 310.9331   A 0.44 0.44 0.0 0 0 163.8165 310.4923   L 161.1965 310.4877   A 0.44 0.44 0.0 0 0 160.7558 310.9270   L 160.7442 317.5469   A 0.44 0.44 0.0 0 0 161.1835 317.9877   L 163.8035 317.9923   A 0.44 0.44 0.0 0 0 164.2442 317.5530   L 164.2558 310.9331"/>
<path stroke="#d2e1e4" vector-effect="non-scaling-stroke" d="   M 144.80 178.76   A 15.22 15.22 0.0 0 0 129.58 163.54   A 15.22 15.22 0.0 0 0 114.36 178.76   A 15.22 15.22 0.0 0 0 129.58 193.98   A 15.22 15.22 0.0 0 0 144.80 178.76"/>
<path stroke="#acd0f8" vector-effect="non-scaling-stroke" d="   M 373.83 220.44   Q 365.72 216.40 356.00 215.57"/>
<path stroke="#9f99c0" vector-effect="non-scaling-stroke" d="   M 356.00 215.57   Q 354.26 215.22 354.03 213.94"/>
<path stroke="#74b1f8" vector-effect="non-scaling-stroke" d="   M 354.03 213.94   L 393.15 213.80   A 1.09 1.07 17.4 0 0 394.03 213.35   Q 395.04 211.93 394.07 210.43   A 0.91 0.91 0.0 0 0 393.31 210.02   L 353.46 209.87"/>
<path stroke="#9f99c0" vector-effect="non-scaling-stroke" d="   M 353.46 209.87   L 353.33 205.00"/>
<path stroke="#4a83d2" vector-effect="non-scaling-stroke" d="   M 353.33 205.00   Q 353.95 204.97 354.49 204.25"/>
<path stroke="#74b1f8" vector-effect="non-scaling-stroke" d="   M 354.49 204.25   C 354.74 205.09 389.77 204.75 393.46 204.75   Q 394.16 204.75 394.27 204.06   L 394.54 202.35   A 1.21 1.20 4.9 0 0 393.35 200.95   L 355.71 200.92"/>
<path stroke="#4a83d2" vector-effect="non-scaling-stroke" d="   M 355.71 200.92   L 357.45 195.74"/>
<path stroke="#74b1f8" vector-effect="non-scaling-stroke" d="   M 357.45 195.74   L 393.51 195.74   Q 394.26 195.74 394.31 194.99   L 394.46 192.94   Q 394.52 192.07 393.64 192.06   L 358.56 191.75"/>
<path stroke="#4a83d2" vector-effect="non-scaling-stroke" d="   M 358.56 191.75   L 359.63 186.68"/>
<path stroke="#74b1f8" vector-effect="non-scaling-stroke" d="   M 359.63 186.68   L 393.54 186.70   Q 394.16 186.70 394.26 186.09   L 394.55 184.30   A 1.22 1.22 0.0 0 0 393.35 182.88   L 360.05 182.78"/>
<path stroke="#4a83d2" vector-effect="non-scaling-stroke" d="   M 360.05 182.78   L 359.31 177.71"/>
<path stroke="#74b1f8" vector-effect="non-scaling-stroke" d="   M 359.31 177.71   Q 375.79 177.77 392.32 177.76   C 394.03 177.75 395.00 176.70 394.35 175.01   A 1.92 1.91 -10.4 0 0 392.56 173.78   L 354.48 173.89"/>
<path stroke="#4a83d2" vector-effect="non-scaling-stroke" d="   M 354.48 173.89   Q 354.53 171.14 351.20 168.76"/>
<path stroke="#74b1f8" vector-effect="non-scaling-stroke" d="   M 351.20 168.76   Q 371.75 168.74 392.19 168.75   C 393.89 168.75 395.13 167.60 394.33 165.88   A 1.94 1.94 0.0 0 0 392.57 164.75   Q 350.38 164.74 308.07 164.76   C 306.37 164.76 304.84 165.57 305.68 167.53   A 2.13 2.12 -11.5 0 0 307.61 168.80   L 319.51 168.93"/>
<path stroke="#4a83d2" vector-effect="non-scaling-stroke" d="   M 319.51 168.93   Q 317.88 171.30 318.74 173.89"/>
<path stroke="#74b1f8" vector-effect="non-scaling-stroke" d="   M 318.74 173.89   L 306.46 173.96   Q 305.73 173.97 305.67 174.70   L 305.52 176.49   A 1.09 1.09 0.0 0 0 306.63 177.68   L 319.44 177.38"/>
<path stroke="#4a83d2" vector-effect="non-scaling-stroke" d="   M 319.44 177.38   Q 320.43 180.16 323.33 182.82"/>
<path stroke="#74b1f8" vector-effect="non-scaling-stroke" d="   M 323.33 182.82   L 307.56 182.74   A 2.06 2.05 -77.1 0 0 305.69 183.92   C 304.73 185.98 306.22 186.74 308.00 186.74   Q 316.25 186.76 324.52 186.74"/>
<path stroke="#4a83d2" vector-effect="non-scaling-stroke" d="   M 324.52 186.74   C 324.85 187.50 325.40 191.64 326.70 190.49"/>
<path stroke="#acd0f8" vector-effect="non-scaling-stroke" d="   M 326.70 190.49   Q 326.80 190.77 326.69 190.96"/>
<path stroke="#74b1f8" vector-effect="non-scaling-stroke" d="   M 326.69 190.96   L 326.59 191.22   Q 326.41 191.70 325.91 191.70   L 306.83 191.82   A 0.93 0.91 -70.2 0 0 306.11 192.17   Q 304.83 193.77 305.90 195.28   Q 306.23 195.75 306.80 195.75   L 327.02 195.74"/>
<path stroke="#9f99c0" vector-effect="non-scaling-stroke" d="   M 327.02 195.74   L 328.57 200.99"/>
<path stroke="#74b1f8" vector-effect="non-scaling-stroke" d="   M 328.57 200.99   L 306.76 201.00   Q 306.20 201.00 305.91 201.47   Q 305.04 202.84 305.84 204.18   A 1.06 1.05 74.2 0 0 306.74 204.69   L 329.81 204.65"/>
<path stroke="#9f99c0" vector-effect="non-scaling-stroke" d="   M 329.81 204.65   L 332.93 209.86"/>
<path stroke="#74b1f8" vector-effect="non-scaling-stroke" d="   M 332.93 209.86   L 306.57 209.98   Q 305.96 209.98 305.82 210.58   L 305.46 212.10   A 1.43 1.42 6.8 0 0 306.84 213.85   L 340.01 214.13"/>
<path stroke="#9f99c0" vector-effect="non-scaling-stroke" d="   M 340.01 214.13   Q 338.57 215.12 338.20 215.05"/>
<path stroke="#acd0f8" vector-effect="non-scaling-stroke" d="   M 338.20 215.05   Q 331.39 217.17 325.92 220.32"/>
<path stroke="#9bc8f1" vector-effect="non-scaling-stroke" d="   M 325.92 220.32   L 296.51 220.28"/>
<path stroke="#acd0f8" vector-effect="non-scaling-stroke" d="   M 378.19 154.34   A 1.39 1.39 0.0 0 0 376.80 152.95   A 1.39 1.39 0.0 0 0 375.41 154.34   A 1.39 1.39 0.0 0 0 376.80 155.73   A 1.39 1.39 0.0 0 0 378.19 154.34"/>
<path stroke="#acd0f8" vector-effect="non-scaling-stroke" d="   M 385.52 154.35   A 1.38 1.38 0.0 0 0 384.14 152.97   A 1.38 1.38 0.0 0 0 382.76 154.35   A 1.38 1.38 0.0 0 0 384.14 155.73   A 1.38 1.38 0.0 0 0 385.52 154.35"/>
<path stroke="#acd0f8" vector-effect="non-scaling-stroke" d="   M 392.96 154.34   A 1.41 1.41 0.0 0 0 391.55 152.93   A 1.41 1.41 0.0 0 0 390.14 154.34   A 1.41 1.41 0.0 0 0 391.55 155.75   A 1.41 1.41 0.0 0 0 392.96 154.34"/>
<path stroke="#90b9e3" vector-effect="non-scaling-stroke" d="   M 394.91 159.25   A 0.63 0.63 0.0 0 0 394.28 158.62   L 278.22 158.62   A 0.63 0.63 0.0 0 0 277.59 159.25   L 277.59 159.29   A 0.63 0.63 0.0 0 0 278.22 159.92   L 394.28 159.92   A 0.63 0.63 0.0 0 0 394.91 159.29   L 394.91 159.25"/>
<path stroke="#acd0f8" vector-effect="non-scaling-stroke" d="   M 301.50 166.69   A 1.94 1.94 0.0 0 0 299.56 164.75   L 279.92 164.75   A 1.94 1.94 0.0 0 0 277.98 166.69   L 277.98 166.81   A 1.94 1.94 0.0 0 0 279.92 168.75   L 299.56 168.75   A 1.94 1.94 0.0 0 0 301.50 166.81   L 301.50 166.69"/>
<path stroke="#acd0f8" vector-effect="non-scaling-stroke" d="   M 301.50 175.69   A 1.92 1.92 0.0 0 0 299.58 173.77   L 279.90 173.77   A 1.92 1.92 0.0 0 0 277.98 175.69   L 277.98 175.83   A 1.92 1.92 0.0 0 0 279.90 177.75   L 299.58 177.75   A 1.92 1.92 0.0 0 0 301.50 175.83   L 301.50 175.69"/>
<path stroke="#acd0f8" vector-effect="non-scaling-stroke" d="   M 301.50 184.71   A 1.94 1.94 0.0 0 0 299.56 182.77   L 279.82 182.77   A 1.94 1.94 0.0 0 0 277.88 184.71   L 277.88 184.81   A 1.94 1.94 0.0 0 0 279.82 186.75   L 299.56 186.75   A 1.94 1.94 0.0 0 0 301.50 184.81   L 301.50 184.71"/>
<path stroke="#acd0f8" vector-effect="non-scaling-stroke" d="   M 301.50 193.65   A 1.89 1.89 0.0 0 0 299.61 191.76   L 279.87 191.76   A 1.89 1.89 0.0 0 0 277.98 193.65   L 277.98 193.87   A 1.89 1.89 0.0 0 0 279.87 195.76   L 299.61 195.76   A 1.89 1.89 0.0 0 0 301.50 193.87   L 301.50 193.65"/>
<path stroke="#acd0f8" vector-effect="non-scaling-stroke" d="   M 301.51 202.68   A 1.68 1.68 0.0 0 0 299.83 201.00   L 279.55 201.00   A 1.68 1.68 0.0 0 0 277.87 202.68   L 277.87 203.06   A 1.68 1.68 0.0 0 0 279.55 204.74   L 299.83 204.74   A 1.68 1.68 0.0 0 0 301.51 203.06   L 301.51 202.68"/>
<path stroke="#acd0f8" vector-effect="non-scaling-stroke" d="   M 301.49 211.58   A 1.59 1.59 0.0 0 0 299.90 209.99   L 279.58 209.99   A 1.59 1.59 0.0 0 0 277.99 211.58   L 277.99 212.16   A 1.59 1.59 0.0 0 0 279.58 213.75   L 299.90 213.75   A 1.59 1.59 0.0 0 0 301.49 212.16   L 301.49 211.58"/>
<path stroke="#6594da" vector-effect="non-scaling-stroke" d="   M 351.20 168.76   C 344.40 165.77 336.18 167.14 328.77 168.55   C 325.58 169.16 322.65 169.04 319.51 168.93"/>
<path stroke="#6594da" vector-effect="non-scaling-stroke" d="   M 354.48 173.89   Q 358.77 175.51 359.31 177.71"/>
<path stroke="#6594da" vector-effect="non-scaling-stroke" d="   M 360.05 182.78   L 359.63 186.68"/>
<path stroke="#6594da" vector-effect="non-scaling-stroke" d="   M 358.56 191.75   L 357.45 195.74"/>
<path stroke="#6594da" vector-effect="non-scaling-stroke" d="   M 355.71 200.92   L 354.49 204.25"/>
<path stroke="#907ca2" vector-effect="non-scaling-stroke" d="   M 353.33 205.00   Q 352.90 197.91 352.65 190.82   C 352.55 187.78 349.26 187.43 347.21 188.97"/>
<path stroke="#9db3da" vector-effect="non-scaling-stroke" d="   M 347.21 188.97   L 342.50 190.52"/>
<path stroke="#907ca2" vector-effect="non-scaling-stroke" d="   M 342.50 190.52   L 341.22 183.81   A 0.54 0.54 0.0 0 0 340.51 183.40   Q 333.59 185.87 326.47 184.26   A 0.46 0.46 0.0 0 0 325.91 184.76   L 326.55 190.06"/>
<path stroke="#9db3da" vector-effect="non-scaling-stroke" d="   M 326.55 190.06   Q 326.87 189.82 326.70 190.49"/>
<path stroke="#6594da" vector-effect="non-scaling-stroke" d="   M 324.52 186.74   Q 324.45 183.69 323.33 182.82"/>
<path stroke="#6594da" vector-effect="non-scaling-stroke" d="   M 319.44 177.38   L 318.74 173.89"/>
<path stroke="#f2c8c7" vector-effect="non-scaling-stroke" d="   M 342.50 190.52   Q 340.42 187.66 338.40 186.52   A 1.24 1.21 48.1 0 0 337.36 186.45   Q 334.64 187.54 334.54 190.49   A 0.78 0.78 0.0 0 1 333.25 191.06   C 331.12 189.24 329.63 185.65 326.55 190.06"/>
<path stroke="#f2c8c7" vector-effect="non-scaling-stroke" d="   M 347.21 188.97   Q 347.16 189.92 346.76 190.22"/>
<path stroke="#9db3da" vector-effect="non-scaling-stroke" d="   M 346.76 190.22   L 343.53 191.08"/>
<path stroke="#f2c8c7" vector-effect="non-scaling-stroke" d="   M 343.53 191.08   C 339.35 190.23 342.21 194.67 338.41 194.82   C 336.64 194.88 335.57 193.32 334.70 191.96   Q 334.39 191.47 333.89 191.76   Q 332.54 192.56 332.70 194.19   Q 332.76 194.68 332.42 195.04   Q 329.87 197.71 327.35 194.66"/>
<path stroke="#c7e0ff" vector-effect="non-scaling-stroke" d="   M 327.35 194.66   Q 326.74 193.81 327.10 192.11"/>
<path stroke="#f2c8c7" vector-effect="non-scaling-stroke" d="   M 327.10 192.11   Q 327.79 195.98 330.88 195.45   A 0.97 0.95 -81.2 0 0 331.58 194.93   C 332.75 192.59 332.19 187.67 328.55 189.06   Q 328.11 189.23 327.92 189.66   L 326.98 191.76"/>
<path stroke="#c7e0ff" vector-effect="non-scaling-stroke" d="   M 326.98 191.76   Q 326.71 191.74 326.69 190.96"/>
<path stroke="#f2c8c7" vector-effect="non-scaling-stroke" d="   M 338.3467 194.1235   A 3.40 2.49 81.6 0 0 340.3133 190.3963   A 3.40 2.49 81.6 0 0 337.3533 187.3965   A 3.40 2.49 81.6 0 0 335.3867 191.1237   A 3.40 2.49 81.6 0 0 338.3467 194.1235"/>
<path stroke="#baa9c7" vector-effect="non-scaling-stroke" d="   M 353.46 209.87   Q 353.37 212.24 354.03 213.94"/>
<path stroke="#f2c8c7" vector-effect="non-scaling-stroke" d="   M 356.00 215.57   C 361.86 224.09 330.26 232.86 338.20 215.05"/>
<path stroke="#baa9c7" vector-effect="non-scaling-stroke" d="   M 340.01 214.13   Q 341.63 212.94 341.13 209.73   Q 341.04 209.18 340.53 209.39   Q 336.26 211.10 332.93 209.86"/>
<path stroke="#baa9c7" vector-effect="non-scaling-stroke" d="   M 329.81 204.65   L 328.57 200.99"/>
<path stroke="#baa9c7" vector-effect="non-scaling-stroke" d="   M 327.02 195.74   L 327.35 194.66"/>
<path stroke="#907ca2" vector-effect="non-scaling-stroke" d="   M 343.53 191.08   Q 344.25 192.68 345.72 192.97   Q 346.29 193.09 346.39 192.51   L 346.76 190.22"/>
<path stroke="#baa9c7" vector-effect="non-scaling-stroke" d="   M 327.10 192.11   Q 327.02 192.52 326.98 191.76"/>
<path stroke="#acd0f8" vector-effect="non-scaling-stroke" d="   M 177.22 224.25   C 180.07 218.04 171.56 213.84 168.60 219.79   C 167.18 222.63 169.00 226.53 172.63 226.75   C 174.26 226.85 175.95 225.20 177.25 227.49   Q 177.59 228.08 178.19 227.74   L 178.68 227.45   Q 179.41 227.03 178.82 226.44   L 177.35 224.98   A 0.67 0.66 -55.3 0 1 177.22 224.25"/>
<path stroke="#f2c8c7" vector-effect="non-scaling-stroke" d="   M 390.24 254.10   Q 382.47 260.19 372.19 259.73"/>
<path stroke="#e3e9eb" vector-effect="non-scaling-stroke" d="   M 372.19 259.73   Q 370.37 260.22 369.76 258.26   Q 368.73 254.99 364.86 245.01   Q 364.51 244.10 364.67 245.06   C 366.64 256.55 369.64 265.62 369.23 278.51"/>
<path stroke="#f2c8c7" vector-effect="non-scaling-stroke" d="   M 369.23 278.51   C 358.35 286.40 349.78 293.29 339.20 298.14"/>
<path stroke="#adeae6" vector-effect="non-scaling-stroke" d="   M 339.20 298.14   Q 335.03 283.19 331.00 268.50   Q 330.21 265.63 326.86 265.77"/>
<path stroke="#c6fbf9" vector-effect="non-scaling-stroke" d="   M 326.86 265.77   L 323.95 265.67"/>
<path stroke="#f2c8c7" vector-effect="non-scaling-stroke" d="   M 323.95 265.67   L 323.87 261.80"/>
<path stroke="#e3e9eb" vector-effect="non-scaling-stroke" d="   M 323.87 261.80   L 323.45 247.05   Q 323.41 245.68 323.19 247.04   L 320.98 261.01"/>
<path stroke="#f2c8c7" vector-effect="non-scaling-stroke" d="   M 320.98 261.01   L 308.24 255.05"/>
<path stroke="#eef8f8" vector-effect="non-scaling-stroke" d="   M 309.40 247.64   L 312.33 238.80"/>
<path stroke="#e3e9eb" vector-effect="non-scaling-stroke" d="   M 312.33 238.80   Q 314.62 232.23 318.60 226.42"/>
<path stroke="#eef8f8" vector-effect="non-scaling-stroke" d="   M 318.60 226.42   L 325.92 220.32"/>
<path stroke="#acd0f8" vector-effect="non-scaling-stroke" d="   M 176.03 221.87   A 3.11 3.11 0.0 0 0 172.92 218.76   A 3.11 3.11 0.0 0 0 169.81 221.87   A 3.11 3.11 0.0 0 0 172.92 224.98   A 3.11 3.11 0.0 0 0 176.03 221.87"/>
<path stroke="#d2e1e4" vector-effect="non-scaling-stroke" d="   M 318.60 226.42   C 311.65 214.95 295.48 230.22 308.01 237.76   Q 309.17 238.46 312.33 238.80"/>
<path stroke="#d6b2b3" vector-effect="non-scaling-stroke" d="   M 372.19 259.73   L 376.38 273.24   Q 376.53 273.71 376.12 273.98   L 369.23 278.51"/>
<path stroke="#d6b2b3" vector-effect="non-scaling-stroke" d="   M 323.87 261.80   L 320.98 261.01"/>
<path stroke="#64aed3" vector-effect="non-scaling-stroke" d="   M 302.53 265.58   L 295.31 265.66   Q 294.77 265.67 294.59 265.15   Q 292.12 257.77 284.74 255.99   Q 283.23 255.63 282.93 256.65"/>
<path stroke="#4a83d2" vector-effect="non-scaling-stroke" d="   M 282.93 256.65   Q 283.15 256.41 282.01 256.48"/>
<path stroke="#9db3da" vector-effect="non-scaling-stroke" d="   M 282.01 256.48   Q 281.62 255.76 280.27 256.07   Q 272.70 257.78 270.27 265.66"/>
<path stroke="#64aed3" vector-effect="non-scaling-stroke" d="   M 270.27 265.66   L 259.56 265.73   A 2.02 2.02 0.0 0 0 257.62 268.29   L 260.62 279.12"/>
<path stroke="#4a83d2" vector-effect="non-scaling-stroke" d="   M 260.62 279.12   L 239.64 279.19   A 0.65 0.64 -0.5 0 0 239.00 279.83   L 239.00 280.95   Q 239.00 281.52 239.57 281.52   L 261.39 281.75"/>
<path stroke="#64aed3" vector-effect="non-scaling-stroke" d="   M 261.39 281.75   L 262.01 284.39"/>
<path stroke="#4a83d2" vector-effect="non-scaling-stroke" d="   M 262.01 284.39   L 239.61 284.42   A 0.94 0.93 -7.0 0 0 238.70 285.58   Q 239.06 287.03 241.01 286.92   Q 251.68 286.34 262.52 286.69"/>
<path stroke="#64aed3" vector-effect="non-scaling-stroke" d="   M 262.52 286.69   Q 263.30 287.89 263.44 289.54"/>
<path stroke="#4a83d2" vector-effect="non-scaling-stroke" d="   M 263.44 289.54   L 239.82 289.52   A 0.78 0.78 0.0 0 0 239.05 290.16   L 238.89 291.06   Q 238.77 291.71 239.44 291.71   L 264.05 291.72"/>
<path stroke="#64aed3" vector-effect="non-scaling-stroke" d="   M 264.05 291.72   L 266.50 300.34"/>
<path stroke="#4a83d2" vector-effect="non-scaling-stroke" d="   M 266.50 300.34   Q 252.33 300.60 238.23 300.50   C 237.15 300.50 236.23 300.19 235.50 301.16   A 0.93 0.93 0.0 0 0 236.24 302.65   L 267.18 302.76"/>
<path stroke="#64aed3" vector-effect="non-scaling-stroke" d="   M 267.18 302.76   L 267.75 304.92"/>
<path stroke="#4a83d2" vector-effect="non-scaling-stroke" d="   M 267.75 304.92   Q 252.32 304.67 237.01 304.95   Q 235.36 304.98 235.48 306.33   A 0.95 0.94 87.3 0 0 236.42 307.19   L 268.33 307.13"/>
<path stroke="#64aed3" vector-effect="non-scaling-stroke" d="   M 268.33 307.13   Q 268.85 308.07 268.96 309.34"/>
<path stroke="#4a83d2" vector-effect="non-scaling-stroke" d="   M 268.96 309.34   L 236.43 309.30   Q 235.82 309.30 235.66 309.90   L 235.48 310.60   A 0.92 0.92 0.0 0 0 236.37 311.75   L 267.70 311.75   A 1.41 1.40 28.2 0 0 268.47 311.52   Q 268.95 311.21 269.54 311.23"/>
<path stroke="#64aed3" vector-effect="non-scaling-stroke" d="   M 269.54 311.23   L 271.50 318.01"/>
<path stroke="#315aa3" vector-effect="non-scaling-stroke" d="   M 271.50 318.01   L 269.39 318.69"/>
<path stroke="#4a83d2" vector-effect="non-scaling-stroke" d="   M 229.16 256.65   C 228.71 255.84 203.53 255.78 200.45 255.95   A 0.59 0.59 0.0 0 0 200.12 257.01   C 201.51 258.06 225.36 257.06 228.96 257.00   A 0.24 0.24 0.0 0 0 229.16 256.65"/>
<path stroke="#9db3da" vector-effect="non-scaling-stroke" d="   M 246.4588 256.3428   A 0.65 0.65 0.0 0 0 245.8043 255.6973   L 230.7047 255.8027   A 0.65 0.65 0.0 0 0 230.0592 256.4572   L 230.0612 256.7372   A 0.65 0.65 0.0 0 0 230.7157 257.3827   L 245.8153 257.2773   A 0.65 0.65 0.0 0 0 246.4608 256.6228   L 246.4588 256.3428"/>
<path stroke="#4a83d2" vector-effect="non-scaling-stroke" d="   M 200.65 261.49   C 204.24 261.46 238.27 261.44 238.54 261.10   Q 238.82 260.74 238.37 260.73   Q 230.98 260.53 223.59 260.48   C 218.26 260.44 208.29 259.79 200.51 260.39   Q 199.40 260.48 200.30 261.35   A 0.52 0.50 65.7 0 0 200.65 261.49"/>
<path stroke="#9db3da" vector-effect="non-scaling-stroke" d="   M 246.6098 260.8102   A 0.80 0.80 0.0 0 0 245.8056 260.0144   L 239.8457 260.0456   A 0.80 0.80 0.0 0 0 239.0499 260.8498   L 239.0502 260.9098   A 0.80 0.80 0.0 0 0 239.8544 261.7056   L 245.8143 261.6744   A 0.80 0.80 0.0 0 0 246.6101 260.8702   L 246.6098 260.8102"/>
<path stroke="#4a83d2" vector-effect="non-scaling-stroke" d="   M 214.77 264.38   C 212.83 264.47 200.10 264.24 199.72 265.11   A 0.38 0.38 0.0 0 0 200.07 265.64   L 214.45 265.40"/>
<path stroke="#9db3da" vector-effect="non-scaling-stroke" d="   M 214.45 265.40   L 214.97 265.74   Q 215.37 265.99 215.83 265.99   Q 230.92 266.02 245.99 265.98   A 0.70 0.70 0.0 0 0 246.67 265.15   C 246.47 264.07 245.26 264.34 244.52 264.33   Q 229.62 264.09 214.77 264.38"/>
<path stroke="#acd0f8" vector-effect="non-scaling-stroke" d="   M 214.45 265.40   L 214.77 264.38"/>
<path stroke="#9db3da" vector-effect="non-scaling-stroke" d="   M 228.7639 273.7953   A 2.02 2.02 0.0 0 0 226.7474 271.7718   L 201.7875 271.7282   A 2.02 2.02 0.0 0 0 199.7639 273.7447   L 199.7361 289.7047   A 2.02 2.02 0.0 0 0 201.7526 291.7282   L 226.7125 291.7718   A 2.02 2.02 0.0 0 0 228.7361 289.7553   L 228.7639 273.7953"/>
<path stroke="#9db3da" vector-effect="non-scaling-stroke" d="   M 228.7606 297.4253   A 2.16 2.16 0.0 0 0 226.6044 295.2615   L 201.9244 295.2185   A 2.16 2.16 0.0 0 0 199.7607 297.3747   L 199.7394 309.5547   A 2.16 2.16 0.0 0 0 201.8956 311.7185   L 226.5756 311.7615   A 2.16 2.16 0.0 0 0 228.7393 309.6053   L 228.7606 297.4253"/>
<path stroke="#e1c1c0" vector-effect="non-scaling-stroke" d="   M 392.05 262.16   Q 394.29 271.08 394.56 279.62"/>
<path stroke="#d6b2b3" vector-effect="non-scaling-stroke" d="   M 394.56 279.62   C 394.46 281.30 394.32 282.31 392.78 283.24   Q 384.03 288.49 374.89 292.02"/>
<path stroke="#e1c1c0" vector-effect="non-scaling-stroke" d="   M 374.89 292.02   L 373.46 292.73"/>
<path stroke="#d6b2b3" vector-effect="non-scaling-stroke" d="   M 373.46 292.73   L 368.69 294.63"/>
<path stroke="#f2c8c7" vector-effect="non-scaling-stroke" d="   M 368.69 294.63   Q 354.63 299.00 341.08 304.74"/>
<path stroke="#a0b3ae" vector-effect="non-scaling-stroke" d="   M 341.08 304.74   L 339.20 298.14"/>
<path stroke="#b9c4c1" vector-effect="non-scaling-stroke" d="   M 323.95 265.67   L 305.96 265.67"/>
<path stroke="#acd0f8" vector-effect="non-scaling-stroke" d="   M 282.01 256.48   C 281.33 257.36 280.03 256.88 279.01 257.23   Q 273.02 259.25 271.39 265.48"/>
<path stroke="#c6fbf9" vector-effect="non-scaling-stroke" d="   M 271.39 265.48   Q 270.43 265.92 270.27 265.66"/>
<path stroke="#74e5e0" vector-effect="non-scaling-stroke" d="   M 326.86 265.77   C 327.37 266.75 328.19 267.53 328.49 268.57   Q 335.68 293.79 342.52 319.50"/>
<path stroke="#64aed3" vector-effect="non-scaling-stroke" d="   M 342.52 319.50   L 301.98 319.52"/>
<path stroke="#59a2c2" vector-effect="non-scaling-stroke" d="   M 301.98 319.52   L 272.99 319.48   Q 272.45 319.48 272.16 319.03   L 271.50 318.01"/>
<path stroke="#73cbf1" vector-effect="non-scaling-stroke" d="   M 269.54 311.23   L 268.96 309.34"/>
<path stroke="#73cbf1" vector-effect="non-scaling-stroke" d="   M 268.33 307.13   L 267.75 304.92"/>
<path stroke="#73cbf1" vector-effect="non-scaling-stroke" d="   M 267.18 302.76   L 266.50 300.34"/>
<path stroke="#73cbf1" vector-effect="non-scaling-stroke" d="   M 264.05 291.72   L 263.44 289.54"/>
<path stroke="#73cbf1" vector-effect="non-scaling-stroke" d="   M 262.52 286.69   Q 262.43 285.03 262.01 284.39"/>
<path stroke="#73cbf1" vector-effect="non-scaling-stroke" d="   M 261.39 281.75   L 260.62 279.12"/>
<path stroke="#73cbf1" vector-effect="non-scaling-stroke" d="   M 271.39 265.48   L 272.95 265.40"/>
<path stroke="#c6fbf9" vector-effect="non-scaling-stroke" d="   M 272.95 265.40   Q 272.96 265.43 272.97 265.45   Q 273.00 265.50 273.04 265.53   Q 274.85 266.62 275.11 265.00"/>
<path stroke="#64aed3" vector-effect="non-scaling-stroke" d="   M 275.11 265.00   Q 275.32 266.24 277.61 265.64"/>
<path stroke="#c6fbf9" vector-effect="non-scaling-stroke" d="   M 277.61 265.64   L 287.32 265.53"/>
<path stroke="#64aed3" vector-effect="non-scaling-stroke" d="   M 287.32 265.53   Q 288.58 266.13 291.21 265.45"/>
<path stroke="#73cbf1" vector-effect="non-scaling-stroke" d="   M 291.21 265.45   L 293.23 265.65   Q 293.75 265.70 293.60 265.21   Q 291.19 257.48 282.93 256.65"/>
<path stroke="#4a83d2" vector-effect="non-scaling-stroke" d="   M 291.21 265.45   Q 288.85 260.08 283.46 259.04"/>
<path stroke="#acd0f8" vector-effect="non-scaling-stroke" d="   M 283.46 259.04   Q 276.49 257.66 272.95 265.40"/>
<path stroke="#9db3da" vector-effect="non-scaling-stroke" d="   M 283.46 259.04   Q 276.72 261.44 275.11 265.00"/>
<path stroke="#9db3da" vector-effect="non-scaling-stroke" d="   M 287.32 265.53   Q 282.51 259.69 277.61 265.64"/>
<path stroke="#d2e1e4" vector-effect="non-scaling-stroke" d="   M 422.33 303.02   L 412.89 303.02   A 0.33 0.33 0.0 0 0 412.65 303.58   L 419.49 310.35   Q 419.99 310.84 419.50 311.34   L 407.70 323.19   Q 407.26 323.63 406.82 323.19   L 400.20 316.57   Q 399.67 316.05 399.67 316.79   L 399.59 326.32   A 0.66 0.66 0.0 0 1 398.93 326.97   L 382.25 326.99   A 0.50 0.49 0.0 0 1 381.75 326.50   L 381.75 317.25   A 0.52 0.51 -27.0 0 0 380.82 316.95   Q 379.30 319.04 377.56 319.75"/>
<path stroke="#8cabd3" vector-effect="non-scaling-stroke" d="   M 377.56 319.75   L 375.59 307.24"/>
<path stroke="#d2e1e4" vector-effect="non-scaling-stroke" d="   M 375.59 307.24   C 375.36 302.24 373.55 298.45 373.46 292.73"/>
<path stroke="#d2e1e4" vector-effect="non-scaling-stroke" d="   M 374.89 292.02   C 374.43 305.97 389.03 315.41 400.19 305.69   C 409.13 297.90 406.04 283.57 394.56 279.62"/>
<path stroke="#adeae6" vector-effect="non-scaling-stroke" d="   M 341.08 304.74   L 342.77 310.92"/>
<path stroke="#4b9dc1" vector-effect="non-scaling-stroke" d="   M 342.77 310.92   L 344.15 316.20   Q 344.29 316.72 344.82 316.72   Q 351.27 316.81 357.74 316.74   C 359.12 316.73 360.37 317.11 359.61 318.84   A 1.08 1.08 0.0 0 1 358.62 319.49   L 342.52 319.50"/>
<path stroke="#9bc8f1" vector-effect="non-scaling-stroke" d="   M 129.01 317.90   Q 127.05 318.10 126.06 317.76   Q 125.59 317.59 125.60 317.09   L 125.67 312.46"/>
<path stroke="#9bc8f1" vector-effect="non-scaling-stroke" d="   M 122.00 307.84   L 122.03 304.57   A 0.57 0.57 0.0 0 0 121.46 304.00   L 119.23 304.00   Q 118.72 304.00 118.72 304.52   L 118.61 317.15   Q 118.61 317.69 119.15 317.74   L 121.63 317.96   A 0.52 0.51 1.5 0 0 122.19 317.43   L 122.03 312.97"/>
<path stroke="#d2e1e4" vector-effect="non-scaling-stroke" d="   M 111.20 321.63   A 15.20 15.20 0.0 0 0 96.00 306.43   A 15.20 15.20 0.0 0 0 80.80 321.63   A 15.20 15.20 0.0 0 0 96.00 336.83   A 15.20 15.20 0.0 0 0 111.20 321.63"/>
<path stroke="#819cc5" vector-effect="non-scaling-stroke" d="   M 375.59 307.24   Q 371.90 309.50 367.02 309.83"/>
<path stroke="#e3e9eb" vector-effect="non-scaling-stroke" d="   M 367.02 309.83   Q 369.95 307.23 369.68 304.76   Q 369.13 299.59 368.69 294.63"/>
<path stroke="#9db3da" vector-effect="non-scaling-stroke" d="   M 367.02 309.83   Q 355.33 311.42 342.77 310.92"/>
<path stroke="#819cc5" vector-effect="non-scaling-stroke" d="   M 359.96 342.56   Q 365.35 340.96 369.93 339.53   C 377.80 337.07 378.67 327.29 377.56 319.75"/>
<path stroke="#9db3da" vector-effect="non-scaling-stroke" d="   M 322.73 420.39   L 310.44 421.06"/>
<path stroke="#4b9dc1" vector-effect="non-scaling-stroke" d="   M 310.32 420.10   L 307.07 401.90"/>
<path stroke="#64aed3" vector-effect="non-scaling-stroke" d="   M 296.85 352.49   L 295.09 344.43"/>
<path stroke="#315aa3" vector-effect="non-scaling-stroke" d="   M 295.09 344.43   C 292.94 333.78 290.69 325.82 301.98 319.52"/>
<path stroke="#59a2c2" vector-effect="non-scaling-stroke" d="   M 295.09 344.43   L 280.29 345.77   Q 279.81 345.82 279.77 346.30   L 279.27 352.47"/>
<path stroke="#4191b0" vector-effect="non-scaling-stroke" d="   M 279.27 352.47   L 276.73 369.25"/>
<path stroke="#59a2c2" vector-effect="non-scaling-stroke" d="   M 276.73 369.25   L 270.89 399.91"/>
<path stroke="#4191b0" vector-effect="non-scaling-stroke" d="   M 270.89 399.91   L 267.95 420.09"/>
<path stroke="#93a6c9" vector-effect="non-scaling-stroke" d="   M 267.01 421.00   L 256.69 420.24   A 1.54 1.48 29.3 0 0 255.73 420.49   L 254.27 421.48"/>
<path stroke="#4191b0" vector-effect="non-scaling-stroke" d="   M 253.46 420.10   Q 254.36 420.48 254.97 420.13   Q 255.42 419.89 255.43 419.38   L 255.78 399.82"/>
<path stroke="#59a2c2" vector-effect="non-scaling-stroke" d="   M 255.78 399.82   L 256.51 369.53"/>
<path stroke="#4191b0" vector-effect="non-scaling-stroke" d="   M 256.51 369.53   L 256.97 352.42"/>
<path stroke="#74e5e0" vector-effect="non-scaling-stroke" d="   M 283.01 352.31   L 279.27 352.47"/>
<path stroke="#74e5e0" vector-effect="non-scaling-stroke" d="   M 256.51 369.53   L 217.70 369.56"/>
<path stroke="#74e5e0" vector-effect="non-scaling-stroke" d="   M 283.00 369.47   L 276.73 369.25"/>
<path stroke="#74e5e0" vector-effect="non-scaling-stroke" d="   M 283.00 399.91   L 270.89 399.91"/>
<path stroke="#74e5e0" vector-effect="non-scaling-stroke" d="   M 255.78 399.82   L 217.44 399.87"/>
<path stroke="#21336f" stroke-opacity="0.820" vector-effect="non-scaling-stroke" d="   M 294.49 389.56   C 299.20 390.76 301.40 386.28 298.18 383.18   A 1.03 1.02 -30.3 0 0 297.22 382.93   C 294.25 383.72 290.29 384.99 293.56 388.97   Q 293.92 389.41 294.49 389.56"/>
</g>
<circle fill="#5bd4cd" cx="282.85" cy="25.00" r="1.80"/>
<path fill="#5bd4cd" d="   M 287.10 108.53   Q 286.14 108.22 286.14 108.48   Q 286.37 99.62 285.98 96.50   Q 281.70 62.28 255.69 42.55   C 225.21 19.41 182.41 21.54 154.86 47.50   C 136.13 65.15 127.76 89.10 130.43 115.15   Q 129.70 114.69 129.55 115.21   C 120.80 41.80 205.80 -3.17 261.43 46.07   C 278.69 61.35 288.39 84.65 287.10 108.53   Z"/>
<circle fill="#8cf6f2" cx="114.29" cy="50.86" r="1.76"/>
<circle fill="#8cf6f2" cx="297.91" cy="76.52" r="3.55"/>
<path fill="#8cf6f2" d="   M 194.00 76.72   L 205.49 73.56   A 0.67 0.67 0.0 0 1 206.31 74.38   L 203.19 85.88   A 0.67 0.67 0.0 0 1 202.07 86.18   L 193.71 77.84   A 0.67 0.67 0.0 0 1 194.00 76.72   Z"/>
<path fill="#8cf6f2" d="   M 55.86 95.76   L 48.06 87.90   A 0.85 0.85 0.0 0 1 48.44 86.48   L 59.13 83.57   A 0.85 0.85 0.0 0 1 60.17 84.61   L 57.29 95.38   A 0.85 0.85 0.0 0 1 55.86 95.76   Z"/>
<path fill="#8cf6f2" d="   M 287.10 108.53   L 286.90 113.95   Q 286.85 115.41 288.30 115.41   Q 352.63 115.58 416.48 115.48   C 428.17 115.46 432.01 120.04 432.01 131.54   Q 432.00 220.03 432.00 308.51   C 432.00 309.04 432.14 309.01 432.61 309.10   Q 433.14 309.30 432.74 309.78   L 432.43 309.89   Q 431.98 310.07 431.98 310.55   Q 432.06 323.73 431.96 336.90   C 431.83 355.16 418.55 352.57 405.50 352.19   Q 404.26 352.16 403.81 353.01   L 402.86 353.01   Q 402.81 352.86 402.76 352.74   Q 402.62 352.44 402.29 352.44   L 325.39 352.45   L 324.48 352.79   Q 324.15 352.51 323.79 352.44   L 321.21 352.25   Q 320.81 352.23 320.73 351.83   L 319.64 346.69   Q 319.55 346.26 319.98 346.23   L 359.96 342.56   Q 388.66 343.45 416.74 342.76   C 420.13 342.68 422.17 341.57 422.18 338.00   Q 422.21 320.49 422.33 303.02   L 422.27 285.21   Q 422.25 207.74 422.24 130.26   C 422.24 124.99 419.20 124.99 415.00 124.98   Q 249.28 124.74 83.56 124.76   C 78.02 124.76 78.47 129.04 78.46 133.00   Q 78.27 209.18 78.24 285.36   Q 78.24 285.95 78.05 289.01   Q 77.93 291.11 78.27 292.67   L 78.28 338.34   A 4.41 4.41 0.0 0 0 82.68 342.75   L 121.47 342.81   L 257.23 343.03   L 256.97 352.42   L 217.65 352.36   Q 178.07 352.17 138.75 352.25   Q 138.39 352.25 137.54 352.80   Q 136.69 352.84 136.68 352.32   Q 110.08 352.22 83.88 352.24   C 74.80 352.25 69.02 349.54 68.94 339.44   Q 68.60 294.19 68.79 248.12   A 1.09 1.09 0.0 0 0 67.72 247.02   C 62.67 246.94 57.43 246.83 52.57 247.57   Q 20.55 252.44 0.00 278.90   L 0.00 277.21   C 18.26 256.06 39.74 244.70 68.17 246.03   A 0.59 0.59 0.0 0 0 68.79 245.44   Q 68.64 186.39 68.86 127.27   C 68.90 117.90 75.73 115.36 83.86 115.45   Q 106.72 115.70 129.55 115.21   Q 129.70 114.69 130.43 115.15   L 284.85 115.43   A 1.17 1.17 0.0 0 0 286.03 114.28   L 286.14 108.48   Q 286.14 108.22 287.10 108.53   Z"/>
<path fill="#c7d2d6" d="   M 422.27 285.21   L 413.09 285.14   A 0.49 0.49 0.0 0 1 412.75 284.30   L 419.01 278.16   A 0.72 0.72 0.0 0 0 419.01 277.14   L 407.18 265.31   Q 406.73 264.86 406.30 265.31   L 400.11 271.67   Q 399.00 272.81 399.00 271.21   L 399.00 262.70   Q 399.00 262.05 398.35 262.06   L 392.05 262.16   L 390.24 254.10   L 391.43 252.92   Q 391.80 252.55 391.63 252.06   C 387.86 241.18 383.68 227.40 373.83 220.44   Q 383.26 220.10 392.39 220.27   C 397.82 220.37 399.99 217.90 399.99 212.40   Q 400.02 184.55 399.98 156.71   C 399.98 153.61 398.61 150.55 395.58 149.88   Q 392.08 149.10 383.18 149.43   Q 374.85 149.75 370.80 149.73   Q 301.12 149.42 278.00 149.80   C 273.69 149.87 272.50 153.63 272.50 157.53   Q 272.49 185.68 272.51 213.83   C 272.51 218.40 275.50 220.22 279.88 220.23   Q 288.43 220.25 296.51 220.28   Q 295.85 222.69 299.31 225.03   A 0.53 0.53 0.0 0 1 299.02 226.00   L 294.87 226.00   A 0.63 0.62 90.0 0 0 294.25 226.63   L 294.25 235.11   Q 294.25 235.72 294.86 235.70   L 299.22 235.57   A 0.37 0.36 -68.7 0 1 299.49 236.19   L 296.41 239.32   A 0.48 0.48 0.0 0 0 296.41 240.00   L 302.46 246.15   Q 302.86 246.56 303.26 246.15   L 306.27 243.02   Q 306.69 242.58 306.80 243.18   Q 307.18 245.18 306.95 247.26   Q 306.89 247.84 307.46 247.97   Q 308.16 248.13 309.40 247.64   Q 307.66 252.56 308.24 255.05   Q 307.83 260.49 305.96 265.67   L 302.53 265.58   C 302.45 259.69 304.75 249.24 295.25 249.24   Q 247.78 249.22 200.31 249.27   C 195.07 249.28 193.50 252.81 193.50 257.66   Q 193.49 284.60 193.51 311.54   C 193.52 316.22 196.24 318.25 200.87 318.25   Q 234.90 318.25 268.94 318.25   A 0.27 0.26 84.8 0 1 269.20 318.47   Q 269.24 318.71 269.39 318.69   C 256.53 322.59 257.46 331.79 257.23 343.03   L 121.47 342.81   L 125.26 338.98   A 0.78 0.78 0.0 0 0 125.26 337.88   L 118.47 331.09   Q 117.87 330.50 118.71 330.50   L 127.74 330.50   A 1.10 1.10 0.0 0 0 128.84 329.42   L 129.01 317.90   Q 129.43 297.47 129.25 276.75   Q 129.24 276.01 128.88 274.05   Q 128.77 273.44 128.15 273.47   L 125.97 273.57   Q 125.61 273.58 125.61 273.94   L 125.67 312.46   L 122.03 312.97   L 122.00 307.84   Q 124.28 306.91 124.89 305.17   Q 125.06 304.67 124.68 304.29   L 113.00 292.63   Q 112.62 292.25 112.25 292.63   L 105.55 299.32   A 0.47 0.47 0.0 0 1 104.75 298.99   L 104.75 290.38   Q 104.75 289.26 103.63 289.28   L 87.60 289.54   Q 87.00 289.55 87.00 290.15   L 87.00 299.05   A 0.60 0.60 0.0 0 1 85.93 299.42   Q 82.83 295.57 78.27 292.67   Q 77.93 291.11 78.05 289.01   Q 78.24 285.95 78.24 285.36   Q 78.27 209.18 78.46 133.00   C 78.47 129.04 78.02 124.76 83.56 124.76   Q 249.28 124.74 415.00 124.98   C 419.20 124.99 422.24 124.99 422.24 130.26   Q 422.25 207.74 422.27 285.21   Z   M 181.47 168.88   Q 170.39 168.91 162.57 176.64   L 162.26 170.27   A 0.55 0.55 0.0 0 0 161.71 169.75   L 152.94 169.75   Q 151.38 169.75 152.48 168.64   L 158.56 162.56   A 0.62 0.61 45.3 0 0 158.56 161.69   L 146.63 149.75   Q 146.26 149.38 145.88 149.75   L 139.60 156.02   Q 138.50 157.12 138.50 155.56   L 138.50 147.00   Q 138.50 146.50 138.00 146.50   L 121.22 146.50   A 0.76 0.75 89.3 0 0 120.47 147.28   L 120.69 156.41   A 0.58 0.58 0.0 0 1 119.70 156.83   L 113.60 150.57   A 0.95 0.95 0.0 0 0 112.24 150.57   L 100.64 162.26   Q 100.29 162.62 100.64 162.98   L 107.31 169.62   Q 107.95 170.25 107.05 170.25   L 97.75 170.25   A 0.50 0.50 0.0 0 0 97.25 170.75   L 97.25 187.62   Q 97.25 188.25 97.88 188.25   L 107.24 188.25   A 0.47 0.47 0.0 0 1 107.57 189.06   L 101.10 195.43   A 0.57 0.57 0.0 0 0 101.10 196.23   L 113.00 208.13   Q 113.38 208.50 113.75 208.13   L 120.61 201.27   A 0.40 0.40 0.0 0 1 121.29 201.56   L 120.96 210.97   A 0.51 0.51 0.0 0 0 121.47 211.50   L 138.50 211.50   A 0.50 0.50 0.0 0 0 139.00 211.00   L 139.00 201.20   Q 139.00 200.27 139.64 200.94   L 146.28 207.92   Q 146.62 208.28 146.98 207.93   L 156.55 198.57   L 202.48 198.47   Q 202.98 198.47 202.98 197.97   L 203.04 187.33   Q 203.04 186.86 202.57 186.84   L 196.28 186.50   A 0.98 0.98 0.0 0 1 195.54 184.94   L 206.37 170.13   A 1.72 1.72 0.0 0 1 209.15 170.13   L 219.97 184.92   A 1.05 1.04 71.2 0 1 219.16 186.58   L 213.11 186.76   Q 212.50 186.77 212.50 187.39   L 212.50 197.98   Q 212.50 198.71 213.23 198.70   L 258.21 198.52   A 0.48 0.47 -83.0 0 0 258.67 198.16   C 261.77 184.93 252.94 172.94 239.02 172.60   Q 238.50 172.59 238.38 172.08   C 234.68 156.02 219.86 146.62 203.73 149.40   Q 201.42 148.05 198.02 148.38   A 0.36 0.36 0.0 0 1 197.73 147.76   L 200.81 144.87   A 0.62 0.62 0.0 0 0 200.82 143.99   L 194.83 137.93   A 0.64 0.63 -44.7 0 0 193.94 137.93   L 190.84 141.03   Q 190.25 141.62 190.25 140.79   L 190.25 136.63   Q 190.25 136.00 189.62 136.00   L 181.14 136.00   Q 180.60 136.00 180.62 136.54   L 180.80 140.96   A 0.49 0.49 0.0 0 1 179.96 141.33   L 176.93 138.30   Q 176.48 137.86 176.04 138.31   L 170.19 144.20   A 0.62 0.62 0.0 0 0 170.19 145.07   L 173.28 148.16   Q 173.87 148.75 173.04 148.75   L 168.75 148.75   Q 168.25 148.75 168.25 149.25   L 168.25 157.75   Q 168.25 158.25 168.75 158.25   L 173.20 158.25   A 0.38 0.38 0.0 0 1 173.47 158.90   L 170.38 162.00   Q 170.01 162.37 170.37 162.74   L 176.37 168.83   A 0.47 0.47 0.0 0 0 177.04 168.83   L 180.19 165.68   A 0.42 0.42 0.0 0 1 180.90 165.90   L 181.47 168.88   Z   M 185.69 222.24   A 7.46 7.46 0.0 0 0 178.23 214.78   L 101.79 214.78   A 7.46 7.46 0.0 0 0 94.33 222.24   L 94.33 222.52   A 7.46 7.46 0.0 0 0 101.79 229.98   L 178.23 229.98   A 7.46 7.46 0.0 0 0 185.69 222.52   L 185.69 222.24   Z   M 122.7304 237.4318   A 1.09 1.09 0.0 0 0 121.6442 236.3380   L 105.5843 236.2820   A 1.09 1.09 0.0 0 0 104.4905 237.3682   L 104.4896 237.6282   A 1.09 1.09 0.0 0 0 105.5758 238.7220   L 121.6357 238.7780   A 1.09 1.09 0.0 0 0 122.7295 237.6918   L 122.7304 237.4318   Z   M 138.9801 237.5487   A 1.17 1.17 0.0 0 0 137.8183 236.3705   L 126.2186 236.2895   A 1.17 1.17 0.0 0 0 125.0404 237.4513   L 125.0399 237.5313   A 1.17 1.17 0.0 0 0 126.2017 238.7095   L 137.8014 238.7905   A 1.17 1.17 0.0 0 0 138.9796 237.6287   L 138.9801 237.5487   Z   M 165.4301 237.5382   A 1.18 1.18 0.0 0 0 164.2563 236.3520   L 148.2165 236.2680   A 1.18 1.18 0.0 0 0 147.0303 237.4418   L 147.0299 237.5218   A 1.18 1.18 0.0 0 0 148.2037 238.7080   L 164.2435 238.7920   A 1.18 1.18 0.0 0 0 165.4297 237.6182   L 165.4301 237.5382   Z   M 181.4994 237.3935   A 1.13 1.13 0.0 0 0 180.3635 236.2694   L 168.6636 236.3306   A 1.13 1.13 0.0 0 0 167.5396 237.4665   L 167.5406 237.6665   A 1.13 1.13 0.0 0 0 168.6765 238.7906   L 180.3764 238.7294   A 1.13 1.13 0.0 0 0 181.5004 237.5935   L 181.4994 237.3935   Z   M 138.9507 242.6709   A 0.95 0.95 0.0 0 0 138.0040 241.7176   L 116.4841 241.6424   A 0.95 0.95 0.0 0 0 115.5308 242.5891   L 115.5293 243.0091   A 0.95 0.95 0.0 0 0 116.4760 243.9624   L 137.9959 244.0376   A 0.95 0.95 0.0 0 0 138.9492 243.0909   L 138.9507 242.6709   Z   M 181.4504 242.6504   A 0.93 0.93 0.0 0 0 180.5220 241.7188   L 158.9620 241.6812   A 0.93 0.93 0.0 0 0 158.0304 242.6096   L 158.0296 243.0496   A 0.93 0.93 0.0 0 0 158.9580 243.9812   L 180.5180 244.0188   A 0.93 0.93 0.0 0 0 181.4496 243.0904   L 181.4504 242.6504   Z   M 113.5207 242.5079   A 0.74 0.74 0.0 0 0 112.7819 241.7666   L 105.2620 241.7534   A 0.74 0.74 0.0 0 0 104.5207 242.4921   L 104.5193 243.2521   A 0.74 0.74 0.0 0 0 105.2581 243.9934   L 112.7780 244.0066   A 0.74 0.74 0.0 0 0 113.5193 243.2679   L 113.5207 242.5079   Z   M 156.0207 242.5079   A 0.74 0.74 0.0 0 0 155.2819 241.7666   L 147.7620 241.7534   A 0.74 0.74 0.0 0 0 147.0207 242.4921   L 147.0193 243.2521   A 0.74 0.74 0.0 0 0 147.7581 243.9934   L 155.2780 244.0066   A 0.74 0.74 0.0 0 0 156.0193 243.2679   L 156.0207 242.5079   Z   M 127.9997 248.0795   A 1.10 1.10 0.0 0 0 126.8978 246.9814   L 105.5979 247.0186   A 1.10 1.10 0.0 0 0 104.4998 248.1205   L 104.5003 248.4005   A 1.10 1.10 0.0 0 0 105.6022 249.4986   L 126.9021 249.4614   A 1.10 1.10 0.0 0 0 128.0002 248.3595   L 127.9997 248.0795   Z   M 138.9501 248.2080   A 1.18 1.18 0.0 0 0 137.7721 247.0259   L 131.0121 247.0141   A 1.18 1.18 0.0 0 0 129.8301 248.1920   L 129.8299 248.2720   A 1.18 1.18 0.0 0 0 131.0079 249.4541   L 137.7679 249.4659   A 1.18 1.18 0.0 0 0 138.9499 248.2880   L 138.9501 248.2080   Z   M 170.52 248.17   A 1.17 1.17 0.0 0 0 169.35 247.00   L 148.15 247.00   A 1.17 1.17 0.0 0 0 146.98 248.17   L 146.98 248.33   A 1.17 1.17 0.0 0 0 148.15 249.50   L 169.35 249.50   A 1.17 1.17 0.0 0 0 170.52 248.33   L 170.52 248.17   Z   M 181.5097 248.1760   A 1.19 1.19 0.0 0 0 180.3135 246.9922   L 173.5136 247.0278   A 1.19 1.19 0.0 0 0 172.3298 248.2240   L 172.3303 248.3240   A 1.19 1.19 0.0 0 0 173.5265 249.5078   L 180.3264 249.4722   A 1.19 1.19 0.0 0 0 181.5102 248.2760   L 181.5097 248.1760   Z   M 143.25 264.10   A 0.81 0.81 0.0 0 0 142.44 263.29   L 140.56 263.29   A 0.81 0.81 0.0 0 0 139.75 264.10   L 139.75 316.98   A 0.81 0.81 0.0 0 0 140.56 317.79   L 142.44 317.79   A 0.81 0.81 0.0 0 0 143.25 316.98   L 143.25 264.10   Z   M 157.24 281.46   A 0.54 0.54 0.0 0 0 156.70 280.92   L 154.28 280.92   A 0.54 0.54 0.0 0 0 153.74 281.46   L 153.74 317.22   A 0.54 0.54 0.0 0 0 154.28 317.76   L 156.70 317.76   A 0.54 0.54 0.0 0 0 157.24 317.22   L 157.24 281.46   Z   M 150.25 291.60   A 0.57 0.57 0.0 0 0 149.68 291.03   L 147.32 291.03   A 0.57 0.57 0.0 0 0 146.75 291.60   L 146.75 317.32   A 0.57 0.57 0.0 0 0 147.32 317.89   L 149.68 317.89   A 0.57 0.57 0.0 0 0 150.25 317.32   L 150.25 291.60   Z   M 136.01 298.32   A 0.54 0.54 0.0 0 0 135.47 297.78   L 133.29 297.78   A 0.54 0.54 0.0 0 0 132.75 298.32   L 132.75 317.34   A 0.54 0.54 0.0 0 0 133.29 317.88   L 135.47 317.88   A 0.54 0.54 0.0 0 0 136.01 317.34   L 136.01 298.32   Z   M 164.2558 310.9331   A 0.44 0.44 0.0 0 0 163.8165 310.4923   L 161.1965 310.4877   A 0.44 0.44 0.0 0 0 160.7558 310.9270   L 160.7442 317.5469   A 0.44 0.44 0.0 0 0 161.1835 317.9877   L 163.8035 317.9923   A 0.44 0.44 0.0 0 0 164.2442 317.5530   L 164.2558 310.9331   Z"/>
<path fill="#dcf0f1" d="   M 203.73 149.40   Q 198.37 150.75 193.72 153.40   C 193.18 143.46 179.97 141.92 177.76 151.76   Q 176.14 159.01 185.33 161.63   L 181.47 168.88   L 180.90 165.90   A 0.42 0.42 0.0 0 0 180.19 165.68   L 177.04 168.83   A 0.47 0.47 0.0 0 1 176.37 168.83   L 170.37 162.74   Q 170.01 162.37 170.38 162.00   L 173.47 158.90   A 0.38 0.38 0.0 0 0 173.20 158.25   L 168.75 158.25   Q 168.25 158.25 168.25 157.75   L 168.25 149.25   Q 168.25 148.75 168.75 148.75   L 173.04 148.75   Q 173.87 148.75 173.28 148.16   L 170.19 145.07   A 0.62 0.62 0.0 0 1 170.19 144.20   L 176.04 138.31   Q 176.48 137.86 176.93 138.30   L 179.96 141.33   A 0.49 0.49 0.0 0 0 180.80 140.96   L 180.62 136.54   Q 180.60 136.00 181.14 136.00   L 189.62 136.00   Q 190.25 136.00 190.25 136.63   L 190.25 140.79   Q 190.25 141.62 190.84 141.03   L 193.94 137.93   A 0.64 0.63 -44.7 0 1 194.83 137.93   L 200.82 143.99   A 0.62 0.62 0.0 0 1 200.81 144.87   L 197.73 147.76   A 0.36 0.36 0.0 0 0 198.02 148.38   Q 201.42 148.05 203.73 149.40   Z"/>
<path fill="#c7d2d6" d="   M 193.72 153.40   Q 188.96 156.68 185.33 161.63   Q 176.14 159.01 177.76 151.76   C 179.97 141.92 193.18 143.46 193.72 153.40   Z"/>
<path fill="#dcf0f1" d="   M 162.57 176.64   Q 158.33 181.44 156.70 187.80   Q 154.48 187.23 152.46 187.84   Q 151.92 188.00 152.32 188.39   L 156.05 192.07   L 156.55 198.57   L 146.98 207.93   Q 146.62 208.28 146.28 207.92   L 139.64 200.94   Q 139.00 200.27 139.00 201.20   L 139.00 211.00   A 0.50 0.50 0.0 0 1 138.50 211.50   L 121.47 211.50   A 0.51 0.51 0.0 0 1 120.96 210.97   L 121.29 201.56   A 0.40 0.40 0.0 0 0 120.61 201.27   L 113.75 208.13   Q 113.38 208.50 113.00 208.13   L 101.10 196.23   A 0.57 0.57 0.0 0 1 101.10 195.43   L 107.57 189.06   A 0.47 0.47 0.0 0 0 107.24 188.25   L 97.88 188.25   Q 97.25 188.25 97.25 187.62   L 97.25 170.75   A 0.50 0.50 0.0 0 1 97.75 170.25   L 107.05 170.25   Q 107.95 170.25 107.31 169.62   L 100.64 162.98   Q 100.29 162.62 100.64 162.26   L 112.24 150.57   A 0.95 0.95 0.0 0 1 113.60 150.57   L 119.70 156.83   A 0.58 0.58 0.0 0 0 120.69 156.41   L 120.47 147.28   A 0.76 0.75 89.3 0 1 121.22 146.50   L 138.00 146.50   Q 138.50 146.50 138.50 147.00   L 138.50 155.56   Q 138.50 157.12 139.60 156.02   L 145.88 149.75   Q 146.26 149.38 146.63 149.75   L 158.56 161.69   A 0.62 0.61 45.3 0 1 158.56 162.56   L 152.48 168.64   Q 151.38 169.75 152.94 169.75   L 161.71 169.75   A 0.55 0.55 0.0 0 1 162.26 170.27   L 162.57 176.64   Z   M 144.80 178.76   A 15.22 15.22 0.0 0 0 129.58 163.54   A 15.22 15.22 0.0 0 0 114.36 178.76   A 15.22 15.22 0.0 0 0 129.58 193.98   A 15.22 15.22 0.0 0 0 144.80 178.76   Z"/>
<path fill="#ffffff" d="   M 156.55 198.57   L 156.05 192.07   L 156.70 187.80   Q 158.33 181.44 162.57 176.64   Q 170.39 168.91 181.47 168.88   L 185.33 161.63   Q 188.96 156.68 193.72 153.40   Q 198.37 150.75 203.73 149.40   C 219.86 146.62 234.68 156.02 238.38 172.08   Q 238.50 172.59 239.02 172.60   C 252.94 172.94 261.77 184.93 258.67 198.16   A 0.48 0.47 -83.0 0 1 258.21 198.52   L 213.23 198.70   Q 212.50 198.71 212.50 197.98   L 212.50 187.39   Q 212.50 186.77 213.11 186.76   L 219.16 186.58   A 1.05 1.04 71.2 0 0 219.97 184.92   L 209.15 170.13   A 1.72 1.72 0.0 0 0 206.37 170.13   L 195.54 184.94   A 0.98 0.98 0.0 0 0 196.28 186.50   L 202.57 186.84   Q 203.04 186.86 203.04 187.33   L 202.98 197.97   Q 202.98 198.47 202.48 198.47   L 156.55 198.57   Z"/>
<path fill="#59a0f0" d="   M 373.83 220.44   Q 365.72 216.40 356.00 215.57   Q 354.26 215.22 354.03 213.94   L 393.15 213.80   A 1.09 1.07 17.4 0 0 394.03 213.35   Q 395.04 211.93 394.07 210.43   A 0.91 0.91 0.0 0 0 393.31 210.02   L 353.46 209.87   L 353.33 205.00   Q 353.95 204.97 354.49 204.25   C 354.74 205.09 389.77 204.75 393.46 204.75   Q 394.16 204.75 394.27 204.06   L 394.54 202.35   A 1.21 1.20 4.9 0 0 393.35 200.95   L 355.71 200.92   L 357.45 195.74   L 393.51 195.74   Q 394.26 195.74 394.31 194.99   L 394.46 192.94   Q 394.52 192.07 393.64 192.06   L 358.56 191.75   L 359.63 186.68   L 393.54 186.70   Q 394.16 186.70 394.26 186.09   L 394.55 184.30   A 1.22 1.22 0.0 0 0 393.35 182.88   L 360.05 182.78   L 359.31 177.71   Q 375.79 177.77 392.32 177.76   C 394.03 177.75 395.00 176.70 394.35 175.01   A 1.92 1.91 -10.4 0 0 392.56 173.78   L 354.48 173.89   Q 354.53 171.14 351.20 168.76   Q 371.75 168.74 392.19 168.75   C 393.89 168.75 395.13 167.60 394.33 165.88   A 1.94 1.94 0.0 0 0 392.57 164.75   Q 350.38 164.74 308.07 164.76   C 306.37 164.76 304.84 165.57 305.68 167.53   A 2.13 2.12 -11.5 0 0 307.61 168.80   L 319.51 168.93   Q 317.88 171.30 318.74 173.89   L 306.46 173.96   Q 305.73 173.97 305.67 174.70   L 305.52 176.49   A 1.09 1.09 0.0 0 0 306.63 177.68   L 319.44 177.38   Q 320.43 180.16 323.33 182.82   L 307.56 182.74   A 2.06 2.05 -77.1 0 0 305.69 183.92   C 304.73 185.98 306.22 186.74 308.00 186.74   Q 316.25 186.76 324.52 186.74   C 324.85 187.50 325.40 191.64 326.70 190.49   Q 326.80 190.77 326.69 190.96   L 326.59 191.22   Q 326.41 191.70 325.91 191.70   L 306.83 191.82   A 0.93 0.91 -70.2 0 0 306.11 192.17   Q 304.83 193.77 305.90 195.28   Q 306.23 195.75 306.80 195.75   L 327.02 195.74   L 328.57 200.99   L 306.76 201.00   Q 306.20 201.00 305.91 201.47   Q 305.04 202.84 305.84 204.18   A 1.06 1.05 74.2 0 0 306.74 204.69   L 329.81 204.65   L 332.93 209.86   L 306.57 209.98   Q 305.96 209.98 305.82 210.58   L 305.46 212.10   A 1.43 1.42 6.8 0 0 306.84 213.85   L 340.01 214.13   Q 338.57 215.12 338.20 215.05   Q 331.39 217.17 325.92 220.32   L 296.51 220.28   Q 288.43 220.25 279.88 220.23   C 275.50 220.22 272.51 218.40 272.51 213.83   Q 272.49 185.68 272.50 157.53   C 272.50 153.63 273.69 149.87 278.00 149.80   Q 301.12 149.42 370.80 149.73   Q 374.85 149.75 383.18 149.43   Q 392.08 149.10 395.58 149.88   C 398.61 150.55 399.98 153.61 399.98 156.71   Q 400.02 184.55 399.99 212.40   C 399.99 217.90 397.82 220.37 392.39 220.27   Q 383.26 220.10 373.83 220.44   Z   M 378.19 154.34   A 1.39 1.39 0.0 0 0 376.80 152.95   A 1.39 1.39 0.0 0 0 375.41 154.34   A 1.39 1.39 0.0 0 0 376.80 155.73   A 1.39 1.39 0.0 0 0 378.19 154.34   Z   M 385.52 154.35   A 1.38 1.38 0.0 0 0 384.14 152.97   A 1.38 1.38 0.0 0 0 382.76 154.35   A 1.38 1.38 0.0 0 0 384.14 155.73   A 1.38 1.38 0.0 0 0 385.52 154.35   Z   M 392.96 154.34   A 1.41 1.41 0.0 0 0 391.55 152.93   A 1.41 1.41 0.0 0 0 390.14 154.34   A 1.41 1.41 0.0 0 0 391.55 155.75   A 1.41 1.41 0.0 0 0 392.96 154.34   Z   M 394.91 159.25   A 0.63 0.63 0.0 0 0 394.28 158.62   L 278.22 158.62   A 0.63 0.63 0.0 0 0 277.59 159.25   L 277.59 159.29   A 0.63 0.63 0.0 0 0 278.22 159.92   L 394.28 159.92   A 0.63 0.63 0.0 0 0 394.91 159.29   L 394.91 159.25   Z   M 301.50 166.69   A 1.94 1.94 0.0 0 0 299.56 164.75   L 279.92 164.75   A 1.94 1.94 0.0 0 0 277.98 166.69   L 277.98 166.81   A 1.94 1.94 0.0 0 0 279.92 168.75   L 299.56 168.75   A 1.94 1.94 0.0 0 0 301.50 166.81   L 301.50 166.69   Z   M 301.50 175.69   A 1.92 1.92 0.0 0 0 299.58 173.77   L 279.90 173.77   A 1.92 1.92 0.0 0 0 277.98 175.69   L 277.98 175.83   A 1.92 1.92 0.0 0 0 279.90 177.75   L 299.58 177.75   A 1.92 1.92 0.0 0 0 301.50 175.83   L 301.50 175.69   Z   M 301.50 184.71   A 1.94 1.94 0.0 0 0 299.56 182.77   L 279.82 182.77   A 1.94 1.94 0.0 0 0 277.88 184.71   L 277.88 184.81   A 1.94 1.94 0.0 0 0 279.82 186.75   L 299.56 186.75   A 1.94 1.94 0.0 0 0 301.50 184.81   L 301.50 184.71   Z   M 301.50 193.65   A 1.89 1.89 0.0 0 0 299.61 191.76   L 279.87 191.76   A 1.89 1.89 0.0 0 0 277.98 193.65   L 277.98 193.87   A 1.89 1.89 0.0 0 0 279.87 195.76   L 299.61 195.76   A 1.89 1.89 0.0 0 0 301.50 193.87   L 301.50 193.65   Z   M 301.51 202.68   A 1.68 1.68 0.0 0 0 299.83 201.00   L 279.55 201.00   A 1.68 1.68 0.0 0 0 277.87 202.68   L 277.87 203.06   A 1.68 1.68 0.0 0 0 279.55 204.74   L 299.83 204.74   A 1.68 1.68 0.0 0 0 301.51 203.06   L 301.51 202.68   Z   M 301.49 211.58   A 1.59 1.59 0.0 0 0 299.90 209.99   L 279.58 209.99   A 1.59 1.59 0.0 0 0 277.99 211.58   L 277.99 212.16   A 1.59 1.59 0.0 0 0 279.58 213.75   L 299.90 213.75   A 1.59 1.59 0.0 0 0 301.49 212.16   L 301.49 211.58   Z"/>
<path fill="#5bd4cd" d="   M 500.00 189.99   L 500.00 191.74   Q 481.37 161.30 447.30 153.86   C 443.72 153.08 439.05 152.96 434.93 152.25   A 0.23 0.23 0.0 0 1 434.96 151.80   Q 438.47 151.62 441.91 152.14   Q 479.85 157.86 500.00 189.99   Z"/>
<circle fill="#ffffff" cx="376.80" cy="154.34" r="1.39"/>
<circle fill="#ffffff" cx="384.14" cy="154.35" r="1.38"/>
<circle fill="#ffffff" cx="391.55" cy="154.34" r="1.41"/>
<rect fill="#c7d2d6" x="277.59" y="158.62" width="117.32" height="1.30" rx="0.63"/>
<circle fill="#c7d2d6" cx="129.58" cy="178.76" r="15.22"/>
<rect fill="#ffffff" x="277.98" y="164.75" width="23.52" height="4.00" rx="1.94"/>
<path fill="#8ec1ff" d="   M 351.20 168.76   C 344.40 165.77 336.18 167.14 328.77 168.55   C 325.58 169.16 322.65 169.04 319.51 168.93   L 307.61 168.80   A 2.13 2.12 -11.5 0 1 305.68 167.53   C 304.84 165.57 306.37 164.76 308.07 164.76   Q 350.38 164.74 392.57 164.75   A 1.94 1.94 0.0 0 1 394.33 165.88   C 395.13 167.60 393.89 168.75 392.19 168.75   Q 371.75 168.74 351.20 168.76   Z"/>
<path fill="#3b66b4" d="   M 351.20 168.76   Q 354.53 171.14 354.48 173.89   Q 358.77 175.51 359.31 177.71   L 360.05 182.78   L 359.63 186.68   L 358.56 191.75   L 357.45 195.74   L 355.71 200.92   L 354.49 204.25   Q 353.95 204.97 353.33 205.00   Q 352.90 197.91 352.65 190.82   C 352.55 187.78 349.26 187.43 347.21 188.97   L 342.50 190.52   L 341.22 183.81   A 0.54 0.54 0.0 0 0 340.51 183.40   Q 333.59 185.87 326.47 184.26   A 0.46 0.46 0.0 0 0 325.91 184.76   L 326.55 190.06   Q 326.87 189.82 326.70 190.49   C 325.40 191.64 324.85 187.50 324.52 186.74   Q 324.45 183.69 323.33 182.82   Q 320.43 180.16 319.44 177.38   L 318.74 173.89   Q 317.88 171.30 319.51 168.93   C 322.65 169.04 325.58 169.16 328.77 168.55   C 336.18 167.14 344.40 165.77 351.20 168.76   Z"/>
<rect fill="#ffffff" x="277.98" y="173.77" width="23.52" height="3.98" rx="1.92"/>
<path fill="#8ec1ff" d="   M 318.74 173.89   L 319.44 177.38   L 306.63 177.68   A 1.09 1.09 0.0 0 1 305.52 176.49   L 305.67 174.70   Q 305.73 173.97 306.46 173.96   L 318.74 173.89   Z"/>
<path fill="#8ec1ff" d="   M 359.31 177.71   Q 358.77 175.51 354.48 173.89   L 392.56 173.78   A 1.92 1.91 -10.4 0 1 394.35 175.01   C 395.00 176.70 394.03 177.75 392.32 177.76   Q 375.79 177.77 359.31 177.71   Z"/>
<rect fill="#ffffff" x="277.88" y="182.77" width="23.62" height="3.98" rx="1.94"/>
<path fill="#8ec1ff" d="   M 323.33 182.82   Q 324.45 183.69 324.52 186.74   Q 316.25 186.76 308.00 186.74   C 306.22 186.74 304.73 185.98 305.69 183.92   A 2.06 2.05 -77.1 0 1 307.56 182.74   L 323.33 182.82   Z"/>
<path fill="#8ec1ff" d="   M 360.05 182.78   L 393.35 182.88   A 1.22 1.22 0.0 0 1 394.55 184.30   L 394.26 186.09   Q 394.16 186.70 393.54 186.70   L 359.63 186.68   L 360.05 182.78   Z"/>
<path fill="#e5918f" d="   M 342.50 190.52   Q 340.42 187.66 338.40 186.52   A 1.24 1.21 48.1 0 0 337.36 186.45   Q 334.64 187.54 334.54 190.49   A 0.78 0.78 0.0 0 1 333.25 191.06   C 331.12 189.24 329.63 185.65 326.55 190.06   L 325.91 184.76   A 0.46 0.46 0.0 0 1 326.47 184.26   Q 333.59 185.87 340.51 183.40   A 0.54 0.54 0.0 0 1 341.22 183.81   L 342.50 190.52   Z"/>
<path fill="#ffffff" d="   M 342.50 190.52   L 347.21 188.97   Q 347.16 189.92 346.76 190.22   L 343.53 191.08   C 339.35 190.23 342.21 194.67 338.41 194.82   C 336.64 194.88 335.57 193.32 334.70 191.96   Q 334.39 191.47 333.89 191.76   Q 332.54 192.56 332.70 194.19   Q 332.76 194.68 332.42 195.04   Q 329.87 197.71 327.35 194.66   Q 326.74 193.81 327.10 192.11   Q 327.79 195.98 330.88 195.45   A 0.97 0.95 -81.2 0 0 331.58 194.93   C 332.75 192.59 332.19 187.67 328.55 189.06   Q 328.11 189.23 327.92 189.66   L 326.98 191.76   Q 326.71 191.74 326.69 190.96   Q 326.80 190.77 326.70 190.49   Q 326.87 189.82 326.55 190.06   C 329.63 185.65 331.12 189.24 333.25 191.06   A 0.78 0.78 0.0 0 0 334.54 190.49   Q 334.64 187.54 337.36 186.45   A 1.24 1.21 48.1 0 1 338.40 186.52   Q 340.42 187.66 342.50 190.52   Z   M 338.3467 194.1235   A 3.40 2.49 81.6 0 0 340.3133 190.3963   A 3.40 2.49 81.6 0 0 337.3533 187.3965   A 3.40 2.49 81.6 0 0 335.3867 191.1237   A 3.40 2.49 81.6 0 0 338.3467 194.1235   Z"/>
<ellipse fill="#e5918f" cx="0.00" cy="0.00" transform="translate(337.85,190.76) rotate(81.6)" rx="3.40" ry="2.49"/>
<path fill="#c7d2d6" d="   M 156.70 187.80   L 156.05 192.07   L 152.32 188.39   Q 151.92 188.00 152.46 187.84   Q 154.48 187.23 156.70 187.80   Z"/>
<path fill="#e5918f" d="   M 353.33 205.00   L 353.46 209.87   Q 353.37 212.24 354.03 213.94   Q 354.26 215.22 356.00 215.57   C 361.86 224.09 330.26 232.86 338.20 215.05   Q 338.57 215.12 340.01 214.13   Q 341.63 212.94 341.13 209.73   Q 341.04 209.18 340.53 209.39   Q 336.26 211.10 332.93 209.86   L 329.81 204.65   L 328.57 200.99   L 327.02 195.74   L 327.35 194.66   Q 329.87 197.71 332.42 195.04   Q 332.76 194.68 332.70 194.19   Q 332.54 192.56 333.89 191.76   Q 334.39 191.47 334.70 191.96   C 335.57 193.32 336.64 194.88 338.41 194.82   C 342.21 194.67 339.35 190.23 343.53 191.08   Q 344.25 192.68 345.72 192.97   Q 346.29 193.09 346.39 192.51   L 346.76 190.22   Q 347.16 189.92 347.21 188.97   C 349.26 187.43 352.55 187.78 352.65 190.82   Q 352.90 197.91 353.33 205.00   Z"/>
<path fill="#e5918f" d="   M 327.10 192.11   Q 327.02 192.52 326.98 191.76   L 327.92 189.66   Q 328.11 189.23 328.55 189.06   C 332.19 187.67 332.75 192.59 331.58 194.93   A 0.97 0.95 -81.2 0 1 330.88 195.45   Q 327.79 195.98 327.10 192.11   Z"/>
<path fill="#3b66b4" d="   M 346.76 190.22   L 346.39 192.51   Q 346.29 193.09 345.72 192.97   Q 344.25 192.68 343.53 191.08   L 346.76 190.22   Z"/>
<path fill="#8ec1ff" d="   M 326.69 190.96   Q 326.71 191.74 326.98 191.76   Q 327.02 192.52 327.10 192.11   Q 326.74 193.81 327.35 194.66   L 327.02 195.74   L 306.80 195.75   Q 306.23 195.75 305.90 195.28   Q 304.83 193.77 306.11 192.17   A 0.93 0.91 -70.2 0 1 306.83 191.82   L 325.91 191.70   Q 326.41 191.70 326.59 191.22   L 326.69 190.96   Z"/>
<rect fill="#ffffff" x="277.98" y="191.76" width="23.52" height="4.00" rx="1.89"/>
<path fill="#8ec1ff" d="   M 358.56 191.75   L 393.64 192.06   Q 394.52 192.07 394.46 192.94   L 394.31 194.99   Q 394.26 195.74 393.51 195.74   L 357.45 195.74   L 358.56 191.75   Z"/>
<path fill="#8ec1ff" d="   M 355.71 200.92   L 393.35 200.95   A 1.21 1.20 4.9 0 1 394.54 202.35   L 394.27 204.06   Q 394.16 204.75 393.46 204.75   C 389.77 204.75 354.74 205.09 354.49 204.25   L 355.71 200.92   Z"/>
<rect fill="#ffffff" x="277.87" y="201.00" width="23.64" height="3.74" rx="1.68"/>
<path fill="#8ec1ff" d="   M 328.57 200.99   L 329.81 204.65   L 306.74 204.69   A 1.06 1.05 74.2 0 1 305.84 204.18   Q 305.04 202.84 305.91 201.47   Q 306.20 201.00 306.76 201.00   L 328.57 200.99   Z"/>
<path fill="#8ec1ff" d="   M 340.01 214.13   L 306.84 213.85   A 1.43 1.42 6.8 0 1 305.46 212.10   L 305.82 210.58   Q 305.96 209.98 306.57 209.98   L 332.93 209.86   Q 336.26 211.10 340.53 209.39   Q 341.04 209.18 341.13 209.73   Q 341.63 212.94 340.01 214.13   Z"/>
<path fill="#8ec1ff" d="   M 354.03 213.94   Q 353.37 212.24 353.46 209.87   L 393.31 210.02   A 0.91 0.91 0.0 0 1 394.07 210.43   Q 395.04 211.93 394.03 213.35   A 1.09 1.07 17.4 0 1 393.15 213.80   L 354.03 213.94   Z"/>
<rect fill="#ffffff" x="277.99" y="209.99" width="23.50" height="3.76" rx="1.59"/>
<path fill="#59a0f0" d="   M 185.69 222.52   A 7.46 7.46 0.0 0 1 178.23 229.98   L 101.79 229.98   A 7.46 7.46 0.0 0 1 94.33 222.52   L 94.33 222.24   A 7.46 7.46 0.0 0 1 101.79 214.78   L 178.23 214.78   A 7.46 7.46 0.0 0 1 185.69 222.24   L 185.69 222.52   Z   M 177.22 224.25   C 180.07 218.04 171.56 213.84 168.60 219.79   C 167.18 222.63 169.00 226.53 172.63 226.75   C 174.26 226.85 175.95 225.20 177.25 227.49   Q 177.59 228.08 178.19 227.74   L 178.68 227.45   Q 179.41 227.03 178.82 226.44   L 177.35 224.98   A 0.67 0.66 -55.3 0 1 177.22 224.25   Z"/>
<path fill="#ffffff" d="   M 338.20 215.05   C 330.26 232.86 361.86 224.09 356.00 215.57   Q 365.72 216.40 373.83 220.44   C 383.68 227.40 387.86 241.18 391.63 252.06   Q 391.80 252.55 391.43 252.92   L 390.24 254.10   Q 382.47 260.19 372.19 259.73   Q 370.37 260.22 369.76 258.26   Q 368.73 254.99 364.86 245.01   Q 364.51 244.10 364.67 245.06   C 366.64 256.55 369.64 265.62 369.23 278.51   C 358.35 286.40 349.78 293.29 339.20 298.14   Q 335.03 283.19 331.00 268.50   Q 330.21 265.63 326.86 265.77   L 323.95 265.67   L 323.87 261.80   L 323.45 247.05   Q 323.41 245.68 323.19 247.04   L 320.98 261.01   L 308.24 255.05   Q 307.66 252.56 309.40 247.64   L 312.33 238.80   Q 314.62 232.23 318.60 226.42   L 325.92 220.32   Q 331.39 217.17 338.20 215.05   Z"/>
<path fill="#ffffff" d="   M 168.60 219.79   C 171.56 213.84 180.07 218.04 177.22 224.25   A 0.67 0.66 -55.3 0 0 177.35 224.98   L 178.82 226.44   Q 179.41 227.03 178.68 227.45   L 178.19 227.74   Q 177.59 228.08 177.25 227.49   C 175.95 225.20 174.26 226.85 172.63 226.75   C 169.00 226.53 167.18 222.63 168.60 219.79   Z   M 176.03 221.87   A 3.11 3.11 0.0 0 0 172.92 218.76   A 3.11 3.11 0.0 0 0 169.81 221.87   A 3.11 3.11 0.0 0 0 172.92 224.98   A 3.11 3.11 0.0 0 0 176.03 221.87   Z"/>
<circle fill="#59a0f0" cx="172.92" cy="221.87" r="3.11"/>
<path fill="#dcf0f1" d="   M 296.51 220.28   L 325.92 220.32   L 318.60 226.42   C 311.65 214.95 295.48 230.22 308.01 237.76   Q 309.17 238.46 312.33 238.80   L 309.40 247.64   Q 308.16 248.13 307.46 247.97   Q 306.89 247.84 306.95 247.26   Q 307.18 245.18 306.80 243.18   Q 306.69 242.58 306.27 243.02   L 303.26 246.15   Q 302.86 246.56 302.46 246.15   L 296.41 240.00   A 0.48 0.48 0.0 0 1 296.41 239.32   L 299.49 236.19   A 0.37 0.36 -68.7 0 0 299.22 235.57   L 294.86 235.70   Q 294.25 235.72 294.25 235.11   L 294.25 226.63   A 0.63 0.62 -90.0 0 1 294.87 226.00   L 299.02 226.00   A 0.53 0.53 0.0 0 0 299.31 225.03   Q 295.85 222.69 296.51 220.28   Z"/>
<path fill="#c7d2d6" d="   M 318.60 226.42   Q 314.62 232.23 312.33 238.80   Q 309.17 238.46 308.01 237.76   C 295.48 230.22 311.65 214.95 318.60 226.42   Z"/>
<circle fill="#8cf6f2" cx="63.38" cy="233.12" r="3.48"/>
<rect fill="#ffffff" x="-9.12" y="-1.22" transform="translate(113.61,237.53) rotate(0.2)" width="18.24" height="2.44" rx="1.09"/>
<rect fill="#ffffff" x="-6.97" y="-1.21" transform="translate(132.01,237.54) rotate(0.4)" width="13.94" height="2.42" rx="1.17"/>
<rect fill="#ffffff" x="-9.20" y="-1.22" transform="translate(156.23,237.53) rotate(0.3)" width="18.40" height="2.44" rx="1.18"/>
<rect fill="#ffffff" x="-6.98" y="-1.23" transform="translate(174.52,237.53) rotate(-0.3)" width="13.96" height="2.46" rx="1.13"/>
<rect fill="#ffffff" x="-11.71" y="-1.16" transform="translate(127.24,242.84) rotate(0.2)" width="23.42" height="2.32" rx="0.95"/>
<rect fill="#ffffff" x="-11.71" y="-1.15" transform="translate(169.74,242.85) rotate(0.1)" width="23.42" height="2.30" rx="0.93"/>
<rect fill="#ffffff" x="-4.50" y="-1.12" transform="translate(109.02,242.88) rotate(0.1)" width="9.00" height="2.24" rx="0.74"/>
<rect fill="#ffffff" x="-4.50" y="-1.12" transform="translate(151.52,242.88) rotate(0.1)" width="9.00" height="2.24" rx="0.74"/>
<path fill="#c7d2d6" d="   M 372.19 259.73   L 376.38 273.24   Q 376.53 273.71 376.12 273.98   L 369.23 278.51   C 369.64 265.62 366.64 256.55 364.67 245.06   Q 364.51 244.10 364.86 245.01   Q 368.73 254.99 369.76 258.26   Q 370.37 260.22 372.19 259.73   Z"/>
<path fill="#c7d2d6" d="   M 323.87 261.80   L 320.98 261.01   L 323.19 247.04   Q 323.41 245.68 323.45 247.05   L 323.87 261.80   Z"/>
<rect fill="#ffffff" x="-11.75" y="-1.24" transform="translate(116.25,248.24) rotate(-0.1)" width="23.50" height="2.48" rx="1.10"/>
<rect fill="#ffffff" x="-4.56" y="-1.22" transform="translate(134.39,248.24) rotate(0.1)" width="9.12" height="2.44" rx="1.18"/>
<rect fill="#ffffff" x="146.98" y="247.00" width="23.54" height="2.50" rx="1.17"/>
<rect fill="#ffffff" x="-4.59" y="-1.24" transform="translate(176.92,248.25) rotate(-0.3)" width="9.18" height="2.48" rx="1.19"/>
<path fill="#3b66b4" d="   M 302.53 265.58   L 295.31 265.66   Q 294.77 265.67 294.59 265.15   Q 292.12 257.77 284.74 255.99   Q 283.23 255.63 282.93 256.65   Q 283.15 256.41 282.01 256.48   Q 281.62 255.76 280.27 256.07   Q 272.70 257.78 270.27 265.66   L 259.56 265.73   A 2.02 2.02 0.0 0 0 257.62 268.29   L 260.62 279.12   L 239.64 279.19   A 0.65 0.64 -0.5 0 0 239.00 279.83   L 239.00 280.95   Q 239.00 281.52 239.57 281.52   L 261.39 281.75   L 262.01 284.39   L 239.61 284.42   A 0.94 0.93 -7.0 0 0 238.70 285.58   Q 239.06 287.03 241.01 286.92   Q 251.68 286.34 262.52 286.69   Q 263.30 287.89 263.44 289.54   L 239.82 289.52   A 0.78 0.78 0.0 0 0 239.05 290.16   L 238.89 291.06   Q 238.77 291.71 239.44 291.71   L 264.05 291.72   L 266.50 300.34   Q 252.33 300.60 238.23 300.50   C 237.15 300.50 236.23 300.19 235.50 301.16   A 0.93 0.93 0.0 0 0 236.24 302.65   L 267.18 302.76   L 267.75 304.92   Q 252.32 304.67 237.01 304.95   Q 235.36 304.98 235.48 306.33   A 0.95 0.94 87.3 0 0 236.42 307.19   L 268.33 307.13   Q 268.85 308.07 268.96 309.34   L 236.43 309.30   Q 235.82 309.30 235.66 309.90   L 235.48 310.60   A 0.92 0.92 0.0 0 0 236.37 311.75   L 267.70 311.75   A 1.41 1.40 28.2 0 0 268.47 311.52   Q 268.95 311.21 269.54 311.23   L 271.50 318.01   L 269.39 318.69   Q 269.24 318.71 269.20 318.47   A 0.27 0.26 84.8 0 0 268.94 318.25   Q 234.90 318.25 200.87 318.25   C 196.24 318.25 193.52 316.22 193.51 311.54   Q 193.49 284.60 193.50 257.66   C 193.50 252.81 195.07 249.28 200.31 249.27   Q 247.78 249.22 295.25 249.24   C 304.75 249.24 302.45 259.69 302.53 265.58   Z   M 229.16 256.65   C 228.71 255.84 203.53 255.78 200.45 255.95   A 0.59 0.59 0.0 0 0 200.12 257.01   C 201.51 258.06 225.36 257.06 228.96 257.00   A 0.24 0.24 0.0 0 0 229.16 256.65   Z   M 246.4588 256.3428   A 0.65 0.65 0.0 0 0 245.8043 255.6973   L 230.7047 255.8027   A 0.65 0.65 0.0 0 0 230.0592 256.4572   L 230.0612 256.7372   A 0.65 0.65 0.0 0 0 230.7157 257.3827   L 245.8153 257.2773   A 0.65 0.65 0.0 0 0 246.4608 256.6228   L 246.4588 256.3428   Z   M 200.65 261.49   C 204.24 261.46 238.27 261.44 238.54 261.10   Q 238.82 260.74 238.37 260.73   Q 230.98 260.53 223.59 260.48   C 218.26 260.44 208.29 259.79 200.51 260.39   Q 199.40 260.48 200.30 261.35   A 0.52 0.50 65.7 0 0 200.65 261.49   Z   M 246.6098 260.8102   A 0.80 0.80 0.0 0 0 245.8056 260.0144   L 239.8457 260.0456   A 0.80 0.80 0.0 0 0 239.0499 260.8498   L 239.0502 260.9098   A 0.80 0.80 0.0 0 0 239.8544 261.7056   L 245.8143 261.6744   A 0.80 0.80 0.0 0 0 246.6101 260.8702   L 246.6098 260.8102   Z   M 214.77 264.38   C 212.83 264.47 200.10 264.24 199.72 265.11   A 0.38 0.38 0.0 0 0 200.07 265.64   L 214.45 265.40   L 214.97 265.74   Q 215.37 265.99 215.83 265.99   Q 230.92 266.02 245.99 265.98   A 0.70 0.70 0.0 0 0 246.67 265.15   C 246.47 264.07 245.26 264.34 244.52 264.33   Q 229.62 264.09 214.77 264.38   Z   M 228.7639 273.7953   A 2.02 2.02 0.0 0 0 226.7474 271.7718   L 201.7875 271.7282   A 2.02 2.02 0.0 0 0 199.7639 273.7447   L 199.7361 289.7047   A 2.02 2.02 0.0 0 0 201.7526 291.7282   L 226.7125 291.7718   A 2.02 2.02 0.0 0 0 228.7361 289.7553   L 228.7639 273.7953   Z   M 228.7606 297.4253   A 2.16 2.16 0.0 0 0 226.6044 295.2615   L 201.9244 295.2185   A 2.16 2.16 0.0 0 0 199.7607 297.3747   L 199.7394 309.5547   A 2.16 2.16 0.0 0 0 201.8956 311.7185   L 226.5756 311.7615   A 2.16 2.16 0.0 0 0 228.7393 309.6053   L 228.7606 297.4253   Z"/>
<path fill="#e5918f" d="   M 390.24 254.10   L 392.05 262.16   Q 394.29 271.08 394.56 279.62   C 394.46 281.30 394.32 282.31 392.78 283.24   Q 384.03 288.49 374.89 292.02   L 373.46 292.73   L 368.69 294.63   Q 354.63 299.00 341.08 304.74   L 339.20 298.14   C 349.78 293.29 358.35 286.40 369.23 278.51   L 376.12 273.98   Q 376.53 273.71 376.38 273.24   L 372.19 259.73   Q 382.47 260.19 390.24 254.10   Z"/>
<path fill="#e5918f" d="   M 308.24 255.05   L 320.98 261.01   L 323.87 261.80   L 323.95 265.67   L 305.96 265.67   Q 307.83 260.49 308.24 255.05   Z"/>
<path fill="#59a0f0" d="   M 200.45 255.95   C 203.53 255.78 228.71 255.84 229.16 256.65   A 0.24 0.24 0.0 0 1 228.96 257.00   C 225.36 257.06 201.51 258.06 200.12 257.01   A 0.59 0.59 0.0 0 1 200.45 255.95   Z"/>
<rect fill="#ffffff" x="-8.20" y="-0.79" transform="translate(238.26,256.54) rotate(-0.4)" width="16.40" height="1.58" rx="0.65"/>
<path fill="#ffffff" d="   M 282.01 256.48   C 281.33 257.36 280.03 256.88 279.01 257.23   Q 273.02 259.25 271.39 265.48   Q 270.43 265.92 270.27 265.66   Q 272.70 257.78 280.27 256.07   Q 281.62 255.76 282.01 256.48   Z"/>
<path fill="#8cf6f2" d="   M 302.53 265.58   L 305.96 265.67   L 323.95 265.67   L 326.86 265.77   C 327.37 266.75 328.19 267.53 328.49 268.57   Q 335.68 293.79 342.52 319.50   L 301.98 319.52   L 272.99 319.48   Q 272.45 319.48 272.16 319.03   L 271.50 318.01   L 269.54 311.23   L 268.96 309.34   Q 268.85 308.07 268.33 307.13   L 267.75 304.92   L 267.18 302.76   L 266.50 300.34   L 264.05 291.72   L 263.44 289.54   Q 263.30 287.89 262.52 286.69   Q 262.43 285.03 262.01 284.39   L 261.39 281.75   L 260.62 279.12   L 257.62 268.29   A 2.02 2.02 0.0 0 1 259.56 265.73   L 270.27 265.66   Q 270.43 265.92 271.39 265.48   L 272.95 265.40   Q 272.96 265.43 272.97 265.45   Q 273.00 265.50 273.04 265.53   Q 274.85 266.62 275.11 265.00   Q 275.32 266.24 277.61 265.64   L 287.32 265.53   Q 288.58 266.13 291.21 265.45   L 293.23 265.65   Q 293.75 265.70 293.60 265.21   Q 291.19 257.48 282.93 256.65   Q 283.23 255.63 284.74 255.99   Q 292.12 257.77 294.59 265.15   Q 294.77 265.67 295.31 265.66   L 302.53 265.58   Z"/>
<path fill="#59a0f0" d="   M 282.01 256.48   Q 283.15 256.41 282.93 256.65   Q 291.19 257.48 293.60 265.21   Q 293.75 265.70 293.23 265.65   L 291.21 265.45   Q 288.85 260.08 283.46 259.04   Q 276.49 257.66 272.95 265.40   L 271.39 265.48   Q 273.02 259.25 279.01 257.23   C 280.03 256.88 281.33 257.36 282.01 256.48   Z"/>
<path fill="#ffffff" d="   M 283.46 259.04   Q 276.72 261.44 275.11 265.00   Q 274.85 266.62 273.04 265.53   Q 273.00 265.50 272.97 265.45   Q 272.96 265.43 272.95 265.40   Q 276.49 257.66 283.46 259.04   Z"/>
<path fill="#3b66b4" d="   M 283.46 259.04   Q 288.85 260.08 291.21 265.45   Q 288.58 266.13 287.32 265.53   Q 282.51 259.69 277.61 265.64   Q 275.32 266.24 275.11 265.00   Q 276.72 261.44 283.46 259.04   Z"/>
<path fill="#59a0f0" d="   M 238.54 261.10   C 238.27 261.44 204.24 261.46 200.65 261.49   A 0.52 0.50 65.7 0 1 200.30 261.35   Q 199.40 260.48 200.51 260.39   C 208.29 259.79 218.26 260.44 223.59 260.48   Q 230.98 260.53 238.37 260.73   Q 238.82 260.74 238.54 261.10   Z"/>
<rect fill="#ffffff" x="-3.78" y="-0.83" transform="translate(242.83,260.86) rotate(-0.3)" width="7.56" height="1.66" rx="0.80"/>
<path fill="#dcf0f1" d="   M 422.27 285.21   L 422.33 303.02   L 412.89 303.02   A 0.33 0.33 0.0 0 0 412.65 303.58   L 419.49 310.35   Q 419.99 310.84 419.50 311.34   L 407.70 323.19   Q 407.26 323.63 406.82 323.19   L 400.20 316.57   Q 399.67 316.05 399.67 316.79   L 399.59 326.32   A 0.66 0.66 0.0 0 1 398.93 326.97   L 382.25 326.99   A 0.50 0.49 0.0 0 1 381.75 326.50   L 381.75 317.25   A 0.52 0.51 -27.0 0 0 380.82 316.95   Q 379.30 319.04 377.56 319.75   L 375.59 307.24   C 375.36 302.24 373.55 298.45 373.46 292.73   L 374.89 292.02   C 374.43 305.97 389.03 315.41 400.19 305.69   C 409.13 297.90 406.04 283.57 394.56 279.62   Q 394.29 271.08 392.05 262.16   L 398.35 262.06   Q 399.00 262.05 399.00 262.70   L 399.00 271.21   Q 399.00 272.81 400.11 271.67   L 406.30 265.31   Q 406.73 264.86 407.18 265.31   L 419.01 277.14   A 0.72 0.72 0.0 0 1 419.01 278.16   L 412.75 284.30   A 0.49 0.49 0.0 0 0 413.09 285.14   L 422.27 285.21   Z"/>
<path fill="#ffffff" d="   M 287.32 265.53   L 277.61 265.64   Q 282.51 259.69 287.32 265.53   Z"/>
<rect fill="#59a0f0" x="139.75" y="263.29" width="3.50" height="54.50" rx="0.81"/>
<path fill="#ffffff" d="   M 214.45 265.40   L 214.77 264.38   Q 229.62 264.09 244.52 264.33   C 245.26 264.34 246.47 264.07 246.67 265.15   A 0.70 0.70 0.0 0 1 245.99 265.98   Q 230.92 266.02 215.83 265.99   Q 215.37 265.99 214.97 265.74   L 214.45 265.40   Z"/>
<path fill="#59a0f0" d="   M 214.77 264.38   L 214.45 265.40   L 200.07 265.64   A 0.38 0.38 0.0 0 1 199.72 265.11   C 200.10 264.24 212.83 264.47 214.77 264.38   Z"/>
<path fill="#5bd4cd" d="   M 326.86 265.77   Q 330.21 265.63 331.00 268.50   Q 335.03 283.19 339.20 298.14   L 341.08 304.74   L 342.77 310.92   L 344.15 316.20   Q 344.29 316.72 344.82 316.72   Q 351.27 316.81 357.74 316.74   C 359.12 316.73 360.37 317.11 359.61 318.84   A 1.08 1.08 0.0 0 1 358.62 319.49   L 342.52 319.50   Q 335.68 293.79 328.49 268.57   C 328.19 267.53 327.37 266.75 326.86 265.77   Z"/>
<path fill="#5bd4cd" d="   M 500.00 269.67   L 500.00 271.44   C 485.14 294.93 460.61 309.53 432.74 309.78   Q 433.14 309.30 432.61 309.10   Q 476.49 307.13 500.00 269.67   Z"/>
<rect fill="#ffffff" x="-14.50" y="-10.00" transform="translate(214.25,281.75) rotate(0.1)" width="29.00" height="20.00" rx="2.02"/>
<path fill="#59a0f0" d="   M 129.01 317.90   Q 127.05 318.10 126.06 317.76   Q 125.59 317.59 125.60 317.09   L 125.67 312.46   L 125.61 273.94   Q 125.61 273.58 125.97 273.57   L 128.15 273.47   Q 128.77 273.44 128.88 274.05   Q 129.24 276.01 129.25 276.75   Q 129.43 297.47 129.01 317.90   Z"/>
<path fill="#59a0f0" d="   M 260.62 279.12   L 261.39 281.75   L 239.57 281.52   Q 239.00 281.52 239.00 280.95   L 239.00 279.83   A 0.65 0.64 -0.5 0 1 239.64 279.19   L 260.62 279.12   Z"/>
<path fill="#c7d2d6" d="   M 394.56 279.62   C 406.04 283.57 409.13 297.90 400.19 305.69   C 389.03 315.41 374.43 305.97 374.89 292.02   Q 384.03 288.49 392.78 283.24   C 394.32 282.31 394.46 281.30 394.56 279.62   Z"/>
<rect fill="#59a0f0" x="153.74" y="280.92" width="3.50" height="36.84" rx="0.54"/>
<path fill="#59a0f0" d="   M 262.01 284.39   Q 262.43 285.03 262.52 286.69   Q 251.68 286.34 241.01 286.92   Q 239.06 287.03 238.70 285.58   A 0.94 0.93 -7.0 0 1 239.61 284.42   L 262.01 284.39   Z"/>
<path fill="#dcf0f1" d="   M 122.00 307.84   L 122.03 304.57   A 0.57 0.57 0.0 0 0 121.46 304.00   L 119.23 304.00   Q 118.72 304.00 118.72 304.52   L 118.61 317.15   Q 118.61 317.69 119.15 317.74   L 121.63 317.96   A 0.52 0.51 1.5 0 0 122.19 317.43   L 122.03 312.97   L 125.67 312.46   L 125.60 317.09   Q 125.59 317.59 126.06 317.76   Q 127.05 318.10 129.01 317.90   L 128.84 329.42   A 1.10 1.10 0.0 0 1 127.74 330.50   L 118.71 330.50   Q 117.87 330.50 118.47 331.09   L 125.26 337.88   A 0.78 0.78 0.0 0 1 125.26 338.98   L 121.47 342.81   L 82.68 342.75   A 4.41 4.41 0.0 0 1 78.28 338.34   L 78.27 292.67   Q 82.83 295.57 85.93 299.42   A 0.60 0.60 0.0 0 0 87.00 299.05   L 87.00 290.15   Q 87.00 289.55 87.60 289.54   L 103.63 289.28   Q 104.75 289.26 104.75 290.38   L 104.75 298.99   A 0.47 0.47 0.0 0 0 105.55 299.32   L 112.25 292.63   Q 112.62 292.25 113.00 292.63   L 124.68 304.29   Q 125.06 304.67 124.89 305.17   Q 124.28 306.91 122.00 307.84   Z   M 111.20 321.63   A 15.20 15.20 0.0 0 0 96.00 306.43   A 15.20 15.20 0.0 0 0 80.80 321.63   A 15.20 15.20 0.0 0 0 96.00 336.83   A 15.20 15.20 0.0 0 0 111.20 321.63   Z"/>
<path fill="#59a0f0" d="   M 263.44 289.54   L 264.05 291.72   L 239.44 291.71   Q 238.77 291.71 238.89 291.06   L 239.05 290.16   A 0.78 0.78 0.0 0 1 239.82 289.52   L 263.44 289.54   Z"/>
<rect fill="#59a0f0" x="146.75" y="291.03" width="3.50" height="26.86" rx="0.57"/>
<path fill="#c7d2d6" d="   M 373.46 292.73   C 373.55 298.45 375.36 302.24 375.59 307.24   Q 371.90 309.50 367.02 309.83   Q 369.95 307.23 369.68 304.76   Q 369.13 299.59 368.69 294.63   L 373.46 292.73   Z"/>
<path fill="#ffffff" d="   M 368.69 294.63   Q 369.13 299.59 369.68 304.76   Q 369.95 307.23 367.02 309.83   Q 355.33 311.42 342.77 310.92   L 341.08 304.74   Q 354.63 299.00 368.69 294.63   Z"/>
<rect fill="#ffffff" x="-14.50" y="-8.25" transform="translate(214.25,303.49) rotate(0.1)" width="29.00" height="16.50" rx="2.16"/>
<rect fill="#59a0f0" x="132.75" y="297.78" width="3.26" height="20.10" rx="0.54"/>
<path fill="#59a0f0" d="   M 266.50 300.34   L 267.18 302.76   L 236.24 302.65   A 0.93 0.93 0.0 0 1 235.50 301.16   C 236.23 300.19 237.15 300.50 238.23 300.50   Q 252.33 300.60 266.50 300.34   Z"/>
<path fill="#c7d2d6" d="   M 422.33 303.02   Q 422.21 320.49 422.18 338.00   C 422.17 341.57 420.13 342.68 416.74 342.76   Q 388.66 343.45 359.96 342.56   Q 365.35 340.96 369.93 339.53   C 377.80 337.07 378.67 327.29 377.56 319.75   Q 379.30 319.04 380.82 316.95   A 0.52 0.51 -27.0 0 1 381.75 317.25   L 381.75 326.50   A 0.50 0.49 0.0 0 0 382.25 326.99   L 398.93 326.97   A 0.66 0.66 0.0 0 0 399.59 326.32   L 399.67 316.79   Q 399.67 316.05 400.20 316.57   L 406.82 323.19   Q 407.26 323.63 407.70 323.19   L 419.50 311.34   Q 419.99 310.84 419.49 310.35   L 412.65 303.58   A 0.33 0.33 0.0 0 1 412.89 303.02   L 422.33 303.02   Z"/>
<path fill="#59a0f0" d="   M 122.00 307.84   L 122.03 312.97   L 122.19 317.43   A 0.52 0.51 1.5 0 1 121.63 317.96   L 119.15 317.74   Q 118.61 317.69 118.61 317.15   L 118.72 304.52   Q 118.72 304.00 119.23 304.00   L 121.46 304.00   A 0.57 0.57 0.0 0 1 122.03 304.57   L 122.00 307.84   Z"/>
<path fill="#59a0f0" d="   M 267.75 304.92   L 268.33 307.13   L 236.42 307.19   A 0.95 0.94 87.3 0 1 235.48 306.33   Q 235.36 304.98 237.01 304.95   Q 252.32 304.67 267.75 304.92   Z"/>
<circle fill="#c7d2d6" cx="96.00" cy="321.63" r="15.20"/>
<path fill="#3b66b4" d="   M 375.59 307.24   L 377.56 319.75   C 378.67 327.29 377.80 337.07 369.93 339.53   Q 365.35 340.96 359.96 342.56   L 319.98 346.23   Q 319.55 346.26 319.64 346.69   L 320.73 351.83   Q 320.81 352.23 321.21 352.25   L 323.79 352.44   L 321.27 352.56   Q 320.73 352.58 320.79 353.12   Q 322.21 365.27 321.83 383.56   Q 321.63 393.10 322.73 420.39   L 310.44 421.06   Q 309.75 420.27 310.32 420.10   L 307.07 401.90   L 296.85 352.49   L 295.09 344.43   C 292.94 333.78 290.69 325.82 301.98 319.52   L 342.52 319.50   L 358.62 319.49   A 1.08 1.08 0.0 0 0 359.61 318.84   C 360.37 317.11 359.12 316.73 357.74 316.74   Q 351.27 316.81 344.82 316.72   Q 344.29 316.72 344.15 316.20   L 342.77 310.92   Q 355.33 311.42 367.02 309.83   Q 371.90 309.50 375.59 307.24   Z"/>
<path fill="#59a0f0" d="   M 268.96 309.34   L 269.54 311.23   Q 268.95 311.21 268.47 311.52   A 1.41 1.40 28.2 0 1 267.70 311.75   L 236.37 311.75   A 0.92 0.92 0.0 0 1 235.48 310.60   L 235.66 309.90   Q 235.82 309.30 236.43 309.30   L 268.96 309.34   Z"/>
<rect fill="#59a0f0" x="-1.75" y="-3.75" transform="translate(162.50,314.24) rotate(0.1)" width="3.50" height="7.50" rx="0.44"/>
<path fill="#264d92" d="   M 271.50 318.01   L 272.16 319.03   Q 272.45 319.48 272.99 319.48   L 301.98 319.52   C 290.69 325.82 292.94 333.78 295.09 344.43   L 280.29 345.77   Q 279.81 345.82 279.77 346.30   L 279.27 352.47   L 276.73 369.25   L 270.89 399.91   L 267.95 420.09   L 267.01 421.00   L 256.69 420.24   A 1.54 1.48 29.3 0 0 255.73 420.49   L 254.27 421.48   Q 254.23 420.96 253.46 420.10   Q 254.36 420.48 254.97 420.13   Q 255.42 419.89 255.43 419.38   L 255.78 399.82   L 256.51 369.53   L 256.97 352.42   L 257.23 343.03   C 257.46 331.79 256.53 322.59 269.39 318.69   L 271.50 318.01   Z"/>
<path fill="#8cf6f2" d="   M 295.09 344.43   L 296.85 352.49   L 283.01 352.31   L 279.27 352.47   L 279.77 346.30   Q 279.81 345.82 280.29 345.77   L 295.09 344.43   Z"/>
<path fill="#5bd4cd" d="   M 136.68 352.32   Q 136.69 352.84 137.54 352.80   Q 131.45 369.22 118.94 381.44   Q 118.71 381.66 118.39 381.47   A 0.38 0.38 0.0 0 1 118.31 380.88   C 126.40 372.46 132.70 363.38 136.68 352.32   Z"/>
<path fill="#5bd4cd" d="   M 256.97 352.42   L 256.51 369.53   L 217.70 369.56   L 217.65 352.36   L 256.97 352.42   Z"/>
<path fill="#5bd4cd" d="   M 279.27 352.47   L 283.01 352.31   L 283.00 369.47   L 276.73 369.25   L 279.27 352.47   Z"/>
<path fill="#5bd4cd" d="   M 325.39 352.45   Q 327.52 370.31 341.78 380.78   Q 342.15 381.05 341.82 381.37   Q 341.38 381.79 341.01 381.52   Q 326.49 371.04 324.48 352.79   L 325.39 352.45   Z"/>
<path fill="#5bd4cd" d="   M 402.86 353.01   L 403.81 353.01   Q 401.52 371.11 387.26 381.52   Q 386.93 381.76 386.47 381.41   A 0.36 0.36 0.0 0 1 386.48 380.83   Q 400.58 370.53 402.86 353.01   Z"/>
<circle fill="#5bd4cd" cx="98.54" cy="362.44" r="1.57"/>
<path fill="#8cf6f2" d="   M 276.73 369.25   L 283.00 369.47   L 283.00 399.91   L 270.89 399.91   L 276.73 369.25   Z"/>
<path fill="#8cf6f2" d="   M 217.70 369.56   L 256.51 369.53   L 255.78 399.82   L 217.44 399.87   L 217.70 369.56   Z"/>
<path fill="#190a39" fill-opacity="0.635" d="   M 300.13 391.38   Q 295.22 395.34 291.25 390.50   Q 290.96 390.15 290.51 390.03   Q 285.15 388.60 287.17 382.72   Q 287.30 382.34 287.71 382.34   C 295.41 382.34 301.43 378.25 300.47 390.73   A 0.93 0.92 72.9 0 1 300.13 391.38   Z   M 294.49 389.56   C 299.20 390.76 301.40 386.28 298.18 383.18   A 1.03 1.02 -30.3 0 0 297.22 382.93   C 294.25 383.72 290.29 384.99 293.56 388.97   Q 293.92 389.41 294.49 389.56   Z"/>
<path fill="#264d92" d="   M 294.49 389.56   Q 293.92 389.41 293.56 388.97   C 290.29 384.99 294.25 383.72 297.22 382.93   A 1.03 1.02 -30.3 0 1 298.18 383.18   C 301.40 386.28 299.20 390.76 294.49 389.56   Z"/>
<path fill="#5bd4cd" d="   M 255.78 399.82   L 255.43 419.38   Q 255.42 419.89 254.97 420.13   Q 254.36 420.48 253.46 420.10   L 189.66 420.05   A 0.66 0.65 -0.0 0 1 189.00 419.40   C 189.00 412.13 188.00 404.96 195.57 401.15   C 200.38 398.74 211.70 400.04 217.44 399.87   L 255.78 399.82   Z"/>
<path fill="#5bd4cd" d="   M 307.07 401.90   L 310.32 420.10   L 267.95 420.09   L 270.89 399.91   L 283.00 399.91   C 290.47 399.37 299.31 398.74 307.07 401.90   Z"/>
<path fill="#ffffff" d="   M 267.01 421.00   C 267.85 422.81 270.98 431.80 266.20 431.71   C 257.02 431.54 247.63 432.09 238.43 431.50   A 0.82 0.81 19.9 0 1 237.82 430.21   C 241.54 425.03 249.42 425.67 254.27 421.48   L 255.73 420.49   A 1.54 1.48 29.3 0 1 256.69 420.24   L 267.01 421.00   Z"/>
<path fill="#ffffff" d="   M 322.73 420.39   Q 324.59 425.77 324.00 431.01   A 0.57 0.53 2.8 0 1 323.44 431.48   L 294.31 431.65   A 1.21 1.21 0.0 0 1 293.60 429.46   C 299.22 425.50 306.11 425.31 310.44 421.06   L 322.73 420.39   Z"/>
</svg>